<svg xmlns="http://www.w3.org/2000/svg" width="418" height="526" viewBox="0 0 418 526">
  <g fill="none" fill-rule="evenodd" transform="translate(1)">
    <path stroke="#A9A8B5" stroke-dasharray="5.395" stroke-width=".899" d="M161.150339 114.417073C171.458605 114.417073 179.815323 122.782016 179.815323 133.101951 179.815323 143.423122 171.458605 151.789301 161.150339 151.789301M18.8883734 114.417073C8.58010781 114.417073.223389063 106.050894.223389063 95.7309593.223389063 85.4097886 8.58010781 77.0448455 18.8883734 77.0448455M197.863491.913730081C218.862678.913730081 235.884709 17.9562667 235.884709 38.979226 235.884709 60.0021854 218.862678 77.044722 197.863491 77.044722" transform="translate(172 373)"/>
    <g stroke="#A9A8B5" stroke-dasharray="5.395" stroke-width=".899" transform="translate(191 373)">
      <line x1="142.227" x2="52.769" y1="151.556" y2="151.556"/>
      <line x1="142.227" x2=".138" y1="114.241" y2="114.241"/>
      <line x1="178.896" x2="28.326" y1=".912" y2=".912"/>
      <line x1="178.896" x2=".139" y1="76.926" y2="76.926"/>
    </g>
    <path stroke="#A9A8B5" stroke-dasharray="5.384 5.384" stroke-width=".899" d="M247,140.5 C247,207.049747 193.049747,261 126.5,261 C59.9502533,261 6,207.049747 6,140.5 C6,73.9490199 59.9502533,20 126.5,20 C193.049747,20 247,73.9490199 247,140.5 Z"/>
    <g transform="translate(16 166)">
      <polygon fill="#E1E3EC" points="4.079 235.077 370.015 235.077 370.015 2.506 4.079 2.506"/>
      <polygon stroke="#2F395A" stroke-width=".899" points="0 232.582 365.937 232.582 365.937 .01 0 .01"/>
    </g>
    <g transform="translate(0 103)">
      <path fill="#FFFFFE" d="M30.5488278,285.48972 C82.8194077,260.143914 145.464405,259.940378 197.902772,284.875411 C198.485091,285.152961 199.180914,284.77426 199.180914,284.175987 L199.180914,53.7335526 C144.608198,36.2874178 85.1203101,36.2874178 30.5488278,53.7335526 L30.5488278,285.48972 Z"/>
      <path stroke="#2F395A" stroke-width=".899" d="M30.5488278,285.48972 C82.8194077,260.143914 145.464405,259.940378 197.902772,284.875411 C198.485091,285.152961 199.180914,284.77426 199.180914,284.175987 L199.180914,53.7335526 C144.608198,36.2874178 85.1203101,36.2874178 30.5488278,53.7335526 L30.5488278,285.48972 Z"/>
      <path fill="#FFFFFE" d="M367.813246,285.48972 C315.520459,260.134046 252.845853,259.940378 200.396382,284.90625 C199.842438,285.17023 199.179927,284.811266 199.179927,284.241365 L199.179927,53.7335526 C253.753876,36.2874178 313.24053,36.2874178 367.813246,53.7335526 L367.813246,53.7335526 L367.813246,285.48972 Z"/>
      <path stroke="#2F395A" stroke-width=".899" d="M367.813246,285.48972 C315.520459,260.134046 252.845853,259.940378 200.396382,284.90625 C199.842438,285.17023 199.179927,284.811266 199.179927,284.241365 L199.179927,53.7335526 C253.753876,36.2874178 313.24053,36.2874178 367.813246,53.7335526 L367.813246,53.7335526 L367.813246,285.48972 Z"/>
      <path stroke="#2F395A" stroke-width=".899" d="M35.3437109 271.553043C86.1276488 246.928865 146.991143 246.730263 197.936699 270.956003 198.505448 271.226151 199.180297 270.858553 199.180297 270.277549L199.180297 46.3877467C146.162078 29.4362664 88.3643973 29.4362664 35.3437109 46.3877467L35.3437109 271.553043zM363.018116 271.553043C312.213205 246.918997 251.320101 246.72903 200.360974 270.986842 199.823069 271.242188 199.180297 270.893092 199.180297 270.340461L199.180297 46.3877467C252.200983 29.4362664 309.99743 29.4362664 363.018116 46.3877467L363.018116 271.553043z"/>
      <path fill="#DDDCDF" d="M35.3437109,271.553043 C86.1276488,246.928865 146.991143,246.730263 197.936699,270.956003 C198.505448,271.226151 199.180297,270.858553 199.180297,270.277549 L199.180297,46.3877467 C146.162078,29.4362664 88.3643973,29.4362664 35.3437109,46.3877467 L35.3437109,271.553043 Z"/>
      <path stroke="#2F395A" stroke-width=".899" d="M35.3437109,271.553043 C86.1276488,246.928865 146.991143,246.730263 197.936699,270.956003 C198.505448,271.226151 199.180297,270.858553 199.180297,270.277549 L199.180297,46.3877467 C146.162078,29.4362664 88.3643973,29.4362664 35.3437109,46.3877467 L35.3437109,271.553043 Z"/>
      <path fill="#DDDCDF" d="M363.018116,271.553043 C312.213205,246.918997 251.320101,246.72903 200.360974,270.986842 C199.823069,271.242188 199.180297,270.893092 199.180297,270.340461 L199.180297,46.3877467 C252.200983,29.4362664 309.99743,29.4362664 363.018116,46.3877467 L363.018116,271.553043 Z"/>
      <path stroke="#2F395A" stroke-width=".899" d="M363.018116,271.553043 C312.213205,246.918997 251.320101,246.72903 200.360974,270.986842 C199.823069,271.242188 199.180297,270.893092 199.180297,270.340461 L199.180297,46.3877467 C252.200983,29.4362664 309.99743,29.4362664 363.018116,46.3877467 L363.018116,271.553043 Z"/>
      <path fill="#FFFFFE" d="M40.1485873,259.518503 C89.4434157,235.61472 148.521706,235.422286 197.975685,258.939967 C198.524694,259.20148 199.181037,258.84375 199.181037,258.280016 L199.181037,40.9564145 C147.716081,24.5020559 91.6147766,24.5020559 40.1485873,40.9564145 L40.1485873,259.518503 Z"/>
      <path stroke="#2F395A" stroke-width=".899" d="M40.1485873,259.518503 C89.4434157,235.61472 148.521706,235.422286 197.975685,258.939967 C198.524694,259.20148 199.181037,258.84375 199.181037,258.280016 L199.181037,40.9564145 C147.716081,24.5020559 91.6147766,24.5020559 40.1485873,40.9564145 L40.1485873,259.518503 Z"/>
      <path fill="#FFFFFE" d="M358.21324,259.518503 C308.898672,235.606086 249.792006,235.422286 200.326923,258.968339 C199.803823,259.216283 199.179557,258.877056 199.179557,258.340461 L199.179557,40.9564145 C250.645746,24.5020559 306.747051,24.5020559 358.21324,40.9564145 L358.21324,259.518503 Z"/>
      <path stroke="#2F395A" stroke-width=".899" d="M358.21324,259.518503 C308.898672,235.606086 249.792006,235.422286 200.326923,258.968339 C199.803823,259.216283 199.179557,258.877056 199.179557,258.340461 L199.179557,40.9564145 C250.645746,24.5020559 306.747051,24.5020559 358.21324,40.9564145 L358.21324,259.518503 Z"/>
      <path fill="#FFFFFE" d="M409.061455,108.598643 L409.061455,108.598643 L414.066689,101.093709 C417.558138,95.8585115 416.143053,88.7828536 410.905878,85.2894326 L409.542609,84.3815378 C404.305434,80.8905839 397.228772,82.3042352 393.736088,87.5418997 L388.732088,95.0456003 L336.810653,172.908676 L357.138786,186.461719 L409.061455,108.598643 Z"/>
      <polygon fill="#FFFFFE" points="367.262 174.378 357.664 188.773 336.187 198 336.314 192.512 337.333 175.22 346.931 160.825 368.687 150.222"/>
      <path fill="#FFFFFE" d="M397.733736,128.684827 L377.40437,115.131785 L394.260793,89.8525905 C397.753476,84.6161595 404.828905,83.2000411 410.06608,86.6934622 L411.430583,87.6013569 C416.668991,91.0923109 418.084077,98.1679688 414.590159,103.405633 L397.733736,128.684827 Z"/>
      <polygon fill="#817F95" points="409.587 110.91 357.664 188.772 337.335 175.22 389.256 97.357"/>
      <polyline stroke="#2F395A" stroke-width=".899" points="366.736 172.068 356.811 186.946 335.384 197.066 335.789 190.2 336.567 173.266 346.407 158.515"/>
      <path stroke="#2F395A" stroke-width=".899" d="M409.061455,108.598643 L409.061455,108.598643 L414.066689,101.093709 C417.558138,95.8585115 416.143053,88.7828536 410.905878,85.2894326 L409.542609,84.3815378 C404.305434,80.8905839 397.228772,82.3042352 393.736088,87.5418997 L388.732088,95.0456003 L336.810653,172.908676 L357.138786,186.461719 L409.061455,108.598643 Z"/>
      <line x1="388.732" x2="409.061" y1="95.045" y2="108.598" stroke="#2F395A" stroke-width="2.698"/>
      <polygon fill="#2F395A" points="336.286 191.197 340.452 193.977 335.993 196.15"/>
      <path fill="#2F395A" d="M335.788633,190.199877 L335.38397,197.064597 L341.564947,194.052262 L335.788633,190.199877 Z M336.783018,192.196998 L339.340536,193.903002 L336.60166,195.236472 L336.783018,192.196998 Z"/>
      <polygon fill="#FFFFFE" points="219.96 300.493 234.883 300.493 234.883 285.571 219.96 285.571"/>
      <polyline stroke="#FFFFFE" stroke-width="3.597" points="215.561 293.612 223.126 301.175 239.414 284.89"/>
      <polygon fill="#FFFFFE" points="218.802 298.123 233.725 298.123 233.725 283.2 218.802 283.2"/>
      <polygon stroke="#2F395A" stroke-width=".899" points="218.802 298.123 233.725 298.123 233.725 283.201 218.802 283.201"/>
      <path fill="#DF4874" d="M214.014023,292.414762 L215.577156,290.85185 L221.574307,296.849383 C221.679174,296.954235 221.819819,297.012212 221.966633,297.012212 C222.11468,297.012212 222.255325,296.954235 222.358958,296.849383 L237.081032,282.130633 L238.644165,283.693544 L221.966633,300.367475 L214.014023,292.414762 Z"/>
      <path fill="#2F395A" d="M237.081155,281.346464 L221.966756,296.457484 L215.57728,290.067681 L213.229496,292.415132 L221.966756,301.151151 L239.428939,283.693914 L237.081155,281.346464 Z M237.081155,282.914309 L237.859638,283.693914 L221.966756,299.583306 L214.798797,292.415132 L215.57728,291.635526 L221.183339,297.242023 C221.390605,297.450493 221.673129,297.566447 221.966756,297.566447 C222.261617,297.566447 222.544141,297.450493 222.751407,297.242023 L237.081155,282.914309 L237.081155,282.914309 Z"/>
      <polygon fill="#FFFFFE" points="219.96 337.562 234.883 337.562 234.883 322.641 219.96 322.641"/>
      <g transform="translate(214.669 321.957)">
        <polyline fill="#ECEDF2" points=".892 8.722 8.458 16.285 24.745 .001"/>
        <polyline stroke="#FFFFFE" stroke-width="3.597" points=".892 8.722 8.458 16.285 24.745 .001"/>
      </g>
      <polygon fill="#FFFFFE" points="218.802 335.191 233.725 335.191 233.725 320.27 218.802 320.27"/>
      <polygon stroke="#2F395A" stroke-width=".899" points="218.802 335.191 233.725 335.191 233.725 320.27 218.802 320.27"/>
      <path fill="#DF4874" d="M214.014023,329.482648 L215.577156,327.919737 L221.574307,333.91727 C221.679174,334.022122 221.819819,334.080099 221.966633,334.080099 C222.11468,334.080099 222.255325,334.022122 222.358958,333.91727 L237.081032,319.19852 L238.644165,320.761431 L221.966633,337.435362 L214.014023,329.482648 Z"/>
      <path fill="#2F395A" d="M237.081155,318.413117 L221.966756,333.52537 L215.57728,327.134334 L213.229496,329.481785 L221.966756,338.219038 L239.428939,320.760567 L237.081155,318.413117 Z M237.081155,319.982196 L237.859638,320.760567 L221.966756,336.651192 L214.798797,329.481785 L215.57728,328.703413 L221.183339,334.30991 C221.390605,334.51838 221.673129,334.634334 221.966756,334.634334 C222.261617,334.634334 222.544141,334.51838 222.751407,334.30991 L237.081155,319.982196 L237.081155,319.982196 Z"/>
      <polygon fill="#FFFFFE" points="219.96 374.569 234.883 374.569 234.883 359.648 219.96 359.648"/>
      <polygon fill="#FFFFFE" points="218.802 372.2 233.725 372.2 233.725 357.278 218.802 357.278"/>
      <polygon stroke="#2F395A" stroke-width=".899" points="218.802 372.2 233.725 372.2 233.725 357.278 218.802 357.278"/>
      <polygon fill="#FFFFFE" points="101.802 226.994 .091 226.994 .091 170.577 121.401 170.577 121.401 207.397"/>
      <polygon fill="#DDDCDF" points="103.788 228.3 2.077 228.3 2.077 171.883 123.386 171.883 123.386 208.704"/>
      <polygon fill="#A9A8B5" points="103.788 228.3 103.783 228.3 103.783 208.7 123.386 208.7 123.386 208.704"/>
      <polygon stroke="#2F395A" stroke-width=".899" points="101.848 226.948 101.843 226.948 101.843 207.347 121.447 207.347 121.447 207.352"/>
      <polygon stroke="#2F395A" stroke-width=".899" points="101.711 227.417 0 227.417 0 171 121.31 171 121.31 207.82"/>
      <polygon fill="#FFFFFE" points="128.426 77.534 51.44 77.534 51.44 .559 128.426 .559 128.426 65.493"/>
      <polygon fill="#DDDCDF" points="53.044 80.74 130.03 80.74 130.03 3.765 53.044 3.765"/>
      <polygon stroke="#2F395A" stroke-width=".899" points="128.426 77.534 51.44 77.534 51.44 .559 128.426 .559 128.426 65.493"/>
    </g>
    <g fill="#2F395A" font-family="National-Regular, National" font-size="10.79" transform="translate(13 115)">
      <text letter-spacing=".086">
        <tspan x="44.777" y="9.031">D</tspan> <tspan x="51.359" y="9.031">eine </tspan>
      </text>
      <text>
        <tspan x="44.777" y="24.986">pe</tspan> <tspan x="55.697" y="24.986" letter-spacing="-.162">r</tspan> <tspan x="59.214" y="24.986">sönliche </tspan>
      </text>
      <text letter-spacing="-.054">
        <tspan x="44.777" y="40.94">R</tspan> <tspan x="50.604" y="40.94">eise</tspan>
      </text>
      <text>
        <tspan x="9.558" y="190">Überblic</tspan> <tspan x="46.645" y="190" letter-spacing="-.053">k</tspan> <tspan x="51.588" y="190">swissen</tspan>
      </text>
      <text>
        <tspan x="259.285" y="206">G</tspan> <tspan x="265.868" y="206" letter-spacing="-.131">r</tspan> <tspan x="269.449" y="206">aﬁ</tspan> <tspan x="279.97" y="206" letter-spacing="-.238">k</tspan> <tspan x="284.544" y="206">en</tspan>
      </text>
    </g>
    <g transform="translate(9)">
      <path fill="#FFFFFE" d="M124.489753,74.4112411 C111.201587,74.3865656 100.411893,85.15494 100.384749,98.4643195 L100.384749,98.5570118 C100.384749,111.856504 124.489753,136.835227 124.489753,136.835227 C124.489753,136.835227 148.502258,111.856504 148.502258,98.5570118 C148.525663,85.2476323 137.776684,74.4372374 124.489753,74.4112411"/>
      <path fill="#817F95" d="M126.665335,107.212867 C122.755382,107.212867 119.585716,104.039082 119.585716,100.122523 C119.585716,96.2072 122.755382,93.0321795 126.665335,93.0321795 C130.574054,93.0321795 133.74372,96.2072 133.74372,100.122523 C133.74372,104.039082 130.574054,107.212867 126.665335,107.212867 M126.665335,75.9792153 C113.377169,75.9520769 102.586241,86.7216872 102.560331,100.029831 L102.560331,100.122523 C102.560331,113.423251 126.665335,138.400738 126.665335,138.400738 C126.665335,138.400738 150.676611,113.423251 150.676611,100.122523 C150.701245,86.8143795 139.952267,76.0039846 126.665335,75.9792153"/>
      <path fill="#DF4874" d="M116.457013,148.755211 L115.097351,146.775303 C118.047398,144.747195 121.231869,143.093565 124.566866,141.860139 L125.395988,144.114416 C122.248531,145.277395 119.240495,146.838334 116.457013,148.755211 L116.457013,148.755211 Z M103.963423,164.575934 C103.847445,164.002477 103.777118,163.419134 103.75861,162.845677 C103.754909,162.724559 103.752441,162.605913 103.752441,162.486031 C103.752441,159.683016 104.892485,156.81697 107.141726,153.965754 L109.024524,155.455011 C107.117049,157.87119 106.14974,160.237934 106.14974,162.486031 C106.14974,162.577488 106.152208,162.671416 106.155909,162.764108 C106.170715,163.204088 106.223769,163.653954 106.313837,164.098877 L103.963423,164.575934 Z M119.017175,179.489508 C116.399024,178.001488 113.615542,176.347857 110.99369,174.328401 C110.717315,174.11459 110.440941,173.894601 110.167035,173.668431 L111.694495,171.815821 C111.946193,172.024688 112.199125,172.226139 112.455758,172.422647 C114.960398,174.351883 117.658747,175.957313 120.201636,177.400842 L119.017175,179.489508 Z M135.604556,191.684108 L133.209726,191.551867 C133.214661,191.44558 133.217128,191.339293 133.217128,191.233006 C133.217128,190.523601 133.087578,189.857452 132.832179,189.256806 C132.167154,187.693395 130.671772,186.518057 129.152949,185.482375 C128.754427,185.211713 128.35097,184.943524 127.945046,184.681513 L129.244251,182.663293 C129.667449,182.93519 130.088179,183.213267 130.50274,183.497524 C132.323848,184.739601 134.132618,186.184365 135.038236,188.316288 C135.421952,189.216021 135.615661,190.197324 135.615661,191.233006 C135.615661,191.383785 135.611959,191.533329 135.604556,191.684108 L135.604556,191.684108 Z M119.590898,205.256734 L118.898729,202.955493 C122.030146,202.012503 124.767977,200.816154 127.27015,199.299708 C127.525549,199.146457 127.776013,198.988262 128.025244,198.826359 L129.335553,200.837165 C129.064114,201.013898 128.788974,201.188159 128.511366,201.355006 C125.835226,202.976503 122.916024,204.253185 119.590898,205.256734 L119.590898,205.256734 Z M98.7653694,208.145026 L98.6469234,205.746149 C101.909125,205.585483 105.410686,205.377852 108.923351,204.950231 L109.212064,207.336749 C105.615499,207.771785 101.912826,207.990539 98.7653694,208.145026 L98.7653694,208.145026 Z"/>
      <path stroke="#2F395A" stroke-width=".899" d="M124.489753 74.4112411C111.201587 74.3865656 100.411893 85.15494 100.384749 98.4643195L100.384749 98.5570118C100.384749 111.856504 124.489753 136.835227 124.489753 136.835227 124.489753 136.835227 148.502258 111.856504 148.502258 98.5570118 148.525663 85.2476323 137.776684 74.4372374 124.489753 74.4112411zM115.64134 147.869567L114.281678 145.890895C117.231724 143.861551 120.416196 142.207921 123.751192 140.975731L124.580314 143.228772C121.432858 144.391751 118.424822 145.953926 115.64134 147.869567zM103.14775 163.69029C103.031771 163.116833 102.962678 162.534726 102.944171 161.960033 102.939235 161.838915 102.936768 161.720269 102.936768 161.601623 102.936768 158.798608 104.076811 155.931326 106.326052 153.08011L108.20885 154.570603C106.301376 156.985546 105.334066 159.35229 105.334066 161.601623 105.334066 161.693079 105.336534 161.785772 105.340235 161.878464 105.355041 162.319679 105.408095 162.76831 105.498163 163.211997L103.14775 163.69029zM118.201501 178.6051C115.582117 177.115844 112.797401 175.460977 110.178016 173.443992 109.900408 173.230182 109.625268 173.010192 109.351361 172.782787L110.878822 170.931413C111.130519 171.139044 111.383451 171.340495 111.640084 171.538238 114.143491 173.466238 116.84184 175.071669 119.385962 176.516433L118.201501 178.6051zM134.787649 190.798464L132.394052 190.667459C132.398987 190.561172 132.401455 190.454885 132.401455 190.348597 132.401455 189.639192 132.271904 188.973044 132.016505 188.372397 131.35148 186.807751 129.856099 185.633649 128.337275 184.596731 127.938753 184.324833 127.53653 184.057879 127.130606 183.797105L128.428577 181.776413C128.853009 182.049546 129.273739 182.328859 129.689534 182.613115 131.508174 183.855192 133.316944 185.298721 134.222563 187.430644 134.606278 188.330377 134.799987 189.312915 134.799987 190.348597 134.799987 190.498141 134.796286 190.648921 134.787649 190.798464zM118.775224 204.37109L118.083055 202.069849C121.214473 201.126859 123.953537 199.93051 126.45571 198.414064 126.709876 198.262049 126.961573 198.102618 127.20957 197.940715L128.519879 199.951521C128.247206 200.130726 127.972066 200.303751 127.694458 200.470597 125.019552 202.090859 122.101584 203.367541 118.775224 204.37109zM97.9496957 207.259382L97.8312496 204.860505C101.093451 204.701074 104.595012 204.492208 108.107678 204.065823L108.39639 206.451105C104.798591 206.887377 101.095919 207.104895 97.9496957 207.259382z"/>
      <path stroke="#2F395A" stroke-width=".899" d="M124.489753,105.646861 C120.579799,105.646861 117.410134,102.562061 117.410134,98.754261 C117.410134,94.946461 120.579799,91.861661 124.489753,91.861661 C128.398472,91.861661 131.568137,94.946461 131.568137,98.754261 C131.568137,102.562061 128.398472,105.646861 124.489753,105.646861 Z"/>
      <polygon fill="#DF4874" points="21.708 287.51 12.193 287.51 11.022 278.869 22.879 278.869"/>
      <path fill="#FFFFFE" d="M32.7455191,260.520629 C32.7455191,264.024398 29.8843068,269.436393 27.7880586,272.931511 C26.5764543,274.955911 25.6140802,276.342588 25.6140802,276.342588 C25.6140802,276.641675 25.5770658,277.035927 25.5030371,277.488265 C25.1230227,279.837706 23.82135,283.734491 22.2704471,283.734491 L11.6300442,283.734491 C10.0779076,283.734491 8.77746871,279.837706 8.39745432,277.488265 C8.32219173,277.035927 8.28517734,276.641675 8.28517734,276.342588 C8.28517734,276.342588 7.32773849,274.955911 6.11119892,272.931511 C4.01495072,269.436393 1.15867374,264.024398 1.15867374,260.520629 C1.15867374,251.785306 8.22842194,244.703614 16.9502457,244.703614 C25.6745371,244.703614 32.7455191,251.785306 32.7455191,260.520629"/>
      <path fill="#FFFFFE" d="M27.7886755,272.931882 C26.5758374,274.955046 25.6146971,276.342959 25.6146971,276.342959 C25.6146971,276.642046 25.5776827,277.036297 25.5024201,277.488636 L8.39683741,277.488636 C8.32280863,277.036297 8.28579424,276.642046 8.28579424,276.342959 C8.28579424,276.342959 7.3283554,274.955046 6.11058201,272.931882 L27.7886755,272.931882 Z"/>
      <polyline stroke="#2F395A" stroke-width=".899" points="21.554 283.06 21.042 286.843 11.527 286.843 11.015 283.06"/>
      <path stroke="#2F395A" stroke-width=".899" d="M32.0802471,259.853245 C32.0802471,263.357014 29.2178011,268.769009 27.1215529,272.264127 C25.9099486,274.289763 24.9488083,275.676439 24.9488083,275.676439 C24.9488083,275.974291 24.9105601,276.368542 24.8377651,276.820881 C24.4565169,279.171557 23.1548442,283.067106 21.6039414,283.067106 L10.9647723,283.067106 C9.4114018,283.067106 8.11219676,279.171557 7.73094856,276.820881 C7.65691978,276.368542 7.61867158,275.974291 7.61867158,275.676439 C7.61867158,275.676439 6.66246655,274.289763 5.44469317,272.264127 C3.34967878,268.769009 0.492167986,263.357014 0.492167986,259.853245 C0.492167986,251.119157 7.56315,244.036229 16.2837399,244.036229 C25.0080313,244.036229 32.0802471,251.119157 32.0802471,259.853245 Z"/>
      <path fill="#2F395A" d="M27.1222932,272.264374 C25.909455,274.288774 24.9483147,275.676687 24.9483147,275.676687 C24.9483147,275.974538 24.9113004,276.368789 24.8372716,276.821128 L7.73045504,276.821128 C7.65642626,276.368789 7.61941187,275.974538 7.61941187,275.676687 C7.61941187,275.676687 6.66320683,274.288774 5.44419964,272.264374 L27.1222932,272.264374 Z"/>
      <path stroke="#2F395A" stroke-width=".899" d="M27.1222932,272.264374 C25.909455,274.288774 24.9483147,275.676687 24.9483147,275.676687 C24.9483147,275.974538 24.9113004,276.368789 24.8372716,276.821128 L7.73045504,276.821128 C7.65642626,276.368789 7.61941187,275.974538 7.61941187,275.676687 C7.61941187,275.676687 6.66320683,274.288774 5.44419964,272.264374 L27.1222932,272.264374 Z"/>
      <path fill="#FFFFFE" d="M266.889657,80.1166805 L266.889657,144.667604 C266.889657,149.726132 270.982215,153.825604 276.032211,153.825604 C281.082208,153.825604 285.174765,149.726132 285.174765,144.667604 L285.174765,105.060798"/>
      <path fill="#FFFFFE" d="M321.746955,101.67135 L321.746955,126.283011 C321.746955,131.340304 325.839513,135.441011 330.889509,135.441011 C335.940739,135.441011 340.033297,131.340304 340.033297,126.283011 L340.033297,86.6762062 L340.033297,55.5612523 C340.033297,48.2570985 337.907437,41.1111395 333.917286,34.995919 L332.286185,32.4981703 C330.038178,29.0512523 328.840146,25.0222267 328.840146,20.9042164 L328.840146,0.455057436 L262.226585,0.455057436 L262.226585,36.18856 C262.226585,41.5548267 260.727502,46.8148062 257.899603,51.3727959 L240.50284,90.4345703 C237.116023,94.8850369 238.154894,101.270919 242.779225,104.411334 C247.046984,107.309514 252.827397,106.371468 255.962516,102.273232 L269.105092,75.3553856 C269.105092,75.3553856 298.584585,69.5145344 299.491437,48.3646215"/>
      <path fill="#FFFFFE" d="M303.4616 105.060675L303.4616 147.665767C303.4616 152.724295 307.554158 156.823767 312.604154 156.823767 317.654151 156.823767 321.746708 152.724295 321.746708 147.665767L321.746708 108.060198M285.175135 103.562026L285.175135 158.162738C285.175135 163.220031 289.268927 167.319503 294.317689 167.319503 299.368919 167.319503 303.461477 163.220031 303.461477 158.162738L303.461477 103.562026"/>
      <path fill="#A9A8B5" d="M244.947651,107.105467 C249.212942,110.001175 254.99459,109.064365 258.129709,104.967365 L269.056356,82.5840262 L269.056356,147.361118 C269.056356,152.417175 273.151381,156.517883 278.200144,156.517883 C283.248906,156.517883 287.342698,152.417175 287.342698,147.361118 L287.342698,160.854647 C287.342698,165.913175 291.436489,170.012647 296.486486,170.012647 C301.535248,170.012647 305.627806,165.913175 305.627806,160.854647 L305.627806,150.359406 C305.627806,155.416698 309.721597,159.51617 314.771594,159.51617 C319.820356,159.51617 323.915381,155.416698 323.915381,150.359406 L323.915381,128.975908 C323.915381,134.033201 328.007939,138.135144 333.057935,138.135144 C338.106698,138.135144 342.200489,134.033201 342.200489,128.975908 L342.200489,89.370339 L342.200489,58.2553851 C342.200489,50.9499954 340.075863,43.8028005 336.084478,37.6900518 L334.453378,35.1898313 C332.204137,31.7429133 331.006104,27.7151236 331.006104,23.5971133 L331.006104,3.14919026 L264.393777,3.14919026 L264.393777,38.8814569 C264.393777,44.2477236 262.894694,49.5077031 260.065561,54.0656928 L242.671266,93.1274672 C239.283216,97.5766979 240.32332,103.965052 244.947651,107.105467"/>
      <path stroke="#2F395A" stroke-width=".899" d="M266.889657,80.1166805 L266.889657,144.667604 C266.889657,149.726132 270.982215,153.825604 276.032211,153.825604 C281.082208,153.825604 285.174765,149.726132 285.174765,144.667604 L285.174765,105.060798"/>
      <path stroke="#2F395A" stroke-width=".899" d="M321.746955,101.67135 L321.746955,126.283011 C321.746955,131.340304 325.839513,135.441011 330.889509,135.441011 C335.940739,135.441011 340.033297,131.340304 340.033297,126.283011 L340.033297,86.6762062 L340.033297,55.5612523 C340.033297,48.2570985 337.907437,41.1111395 333.917286,34.995919 L332.286185,32.4981703 C330.038178,29.0512523 328.840146,25.0222267 328.840146,20.9042164 L328.840146,0.455057436 L262.226585,0.455057436 L262.226585,36.18856 C262.226585,41.5548267 260.727502,46.8148062 257.899603,51.3727959 L240.50284,90.4345703 C237.116023,94.8850369 238.154894,101.270919 242.779225,104.411334 C247.046984,107.309514 252.827397,106.371468 255.962516,102.273232 L269.105092,75.3553856 C269.105092,75.3553856 298.584585,69.5145344 299.491437,48.3646215"/>
      <path stroke="#2F395A" stroke-width=".899" d="M303.4616 105.060675L303.4616 147.665767C303.4616 152.724295 307.554158 156.823767 312.604154 156.823767 317.654151 156.823767 321.746708 152.724295 321.746708 147.665767L321.746708 108.060198M285.175135 103.562026L285.175135 158.162738C285.175135 163.220031 289.268927 167.319503 294.317689 167.319503 299.368919 167.319503 303.461477 163.220031 303.461477 158.162738L303.461477 103.562026"/>
      <path fill="#FFFFFE" d="M109.507809,356.782827 L107.765665,356.782827 C102.551571,356.782827 98.3245281,361.018247 98.3245281,366.239914 L98.3245281,363.669247 C98.3245281,358.435222 94.0777439,354.181263 88.8833914,354.181263 L87.1412475,354.181263 C81.9172835,354.181263 77.6692655,358.435222 77.6692655,363.669247 L77.6692655,358.527914 C77.6692655,353.324786 73.4533266,349.070827 68.2281288,349.070827 L66.4872187,349.070827 C61.2916324,349.070827 57.0448482,353.324786 57.0448482,358.527914 L57.0448482,327.707104 C57.0448482,324.859596 55.8838302,322.288929 54.0207727,320.422724 C52.1564813,318.556519 49.559305,317.393539 46.7178338,317.393539 C41.0348914,317.393539 36.4204309,322.013324 36.4204309,327.707104 L36.4204309,399.601729 L17.7516072,380.901365 C15.7355568,378.881909 13.1063014,377.870945 10.4486683,377.870945 C7.82188058,377.870945 5.19509281,378.881909 3.17657482,380.901365 C-0.855525899,384.941514 -0.855525899,391.490534 3.17657482,395.530683 L36.4204309,428.830704 L36.4204309,477.615283 L57.0448482,477.615283 L77.6692655,477.615283 L103.613884,477.615283 L103.613884,463.217078 C112.209859,462.454529 118.950179,455.233181 118.950179,446.427411 L118.950179,366.24115 C118.950179,361.018247 114.721902,356.782827 109.507809,356.782827"/>
      <path fill="#A9A8B5" d="M112.548047,360.736463 L110.805903,360.736463 C105.59181,360.736463 101.364767,364.970647 101.364767,370.19355 L101.364767,367.621647 C101.364767,362.388857 97.1179824,358.134898 91.9236299,358.134898 L90.181486,358.134898 C84.9575219,358.134898 80.709504,362.388857 80.709504,367.621647 L80.709504,362.48155 C80.709504,357.278422 76.4935651,353.024463 71.2683673,353.024463 L69.5274572,353.024463 C64.3318709,353.024463 60.0850867,357.278422 60.0850867,362.48155 L60.0850867,331.660739 C60.0850867,328.813232 58.9240687,326.242565 57.0610112,324.37636 C55.1967198,322.510155 52.5995435,321.347175 49.7580723,321.347175 C44.0751299,321.347175 39.4606694,325.96696 39.4606694,331.660739 L39.4606694,403.555365 L20.7918457,384.855001 C18.7757953,382.834309 16.1465399,381.824581 13.4889068,381.824581 C10.8608853,381.824581 8.23409748,382.834309 6.21681331,384.855001 C2.18471259,388.893914 2.18471259,395.44417 6.21681331,399.484319 L39.4606694,432.784339 L39.4606694,481.568919 L60.0850867,481.568919 L80.709504,481.568919 L106.654123,481.568919 L106.654123,467.170714 C115.250097,466.408165 121.989184,459.186816 121.989184,450.379811 L121.989184,370.194786 C121.989184,364.971883 117.762141,360.736463 112.548047,360.736463"/>
      <path stroke="#2F395A" stroke-width=".899" d="M109.507809,356.782827 L107.765665,356.782827 C102.551571,356.782827 98.3245281,361.018247 98.3245281,366.239914 L98.3245281,363.669247 C98.3245281,358.435222 94.0777439,354.181263 88.8833914,354.181263 L87.1412475,354.181263 C81.9172835,354.181263 77.6692655,358.435222 77.6692655,363.669247 L77.6692655,358.527914 C77.6692655,353.324786 73.4533266,349.070827 68.2281288,349.070827 L66.4872187,349.070827 C61.2916324,349.070827 57.0448482,353.324786 57.0448482,358.527914 L57.0448482,327.707104 C57.0448482,324.859596 55.8838302,322.288929 54.0207727,320.422724 C52.1564813,318.556519 49.559305,317.393539 46.7178338,317.393539 C41.0348914,317.393539 36.4204309,322.013324 36.4204309,327.707104 L36.4204309,399.601729 L17.7516072,380.901365 C15.7355568,378.881909 13.1063014,377.870945 10.4486683,377.870945 C7.82188058,377.870945 5.19509281,378.881909 3.17657482,380.901365 C-0.855525899,384.941514 -0.855525899,391.490534 3.17657482,395.530683 L36.4204309,428.830704 L36.4204309,477.615283 L57.0448482,477.615283 L77.6692655,477.615283 L103.613884,477.615283 L103.613884,463.217078 C112.209859,462.454529 118.950179,455.233181 118.950179,446.427411 L118.950179,366.24115 C118.950179,361.018247 114.721902,356.782827 109.507809,356.782827 Z"/>
      <path stroke="#DF4874" stroke-width=".899" d="M241,303.226821 C251.230777,303.226821 251.230777,276 261.461554,276 C271.693565,276 271.693565,303.226821 281.925576,303.226821 C292.157586,303.226821 292.157586,276 302.392065,276 C312.625309,276 312.625309,303.226821 322.85732,303.226821"/>
      <polygon fill="#FFFFFE" points="295.252 232.696 207.964 232.696 207.964 145.26 295.252 145.26 295.252 219.02"/>
      <polygon fill="#DDDCDF" points="209.782 236.337 297.07 236.337 297.07 148.901 209.782 148.901"/>
      <polygon stroke="#2F395A" stroke-width=".899" points="295.289 232.436 208 232.436 208 145 295.289 145 295.289 218.76"/>
      <line x1="251.609" x2="251.609" y1="155.325" y2="205.333" stroke="#DF4874" stroke-width=".899"/>
      <polygon fill="#DF4874" points="248.289 156.297 251.608 150.538 254.928 156.297"/>
      <polygon fill="#DF4874" points="248.289 204.361 251.608 210.119 254.928 204.361"/>
      <line x1="276.571" x2="226.646" y1="180.329" y2="180.329" stroke="#DF4874" stroke-width=".899"/>
      <polygon fill="#DF4874" points="275.6 177.004 281.349 180.329 275.6 183.653"/>
      <polygon fill="#DF4874" points="227.617 177.004 221.869 180.329 227.617 183.653"/>
    </g>
    <text fill="#2F395A" font-family="National-Regular, National" font-size="10.79">
      <tspan x="239.047" y="224">Methoden</tspan>
    </text>
    <polygon fill="#FFFFFE" points="341 386 341 436.149 303.34 436.149 281.021 454 281.021 436.149 247 436.149 247 386"/>
    <polygon fill="#DDDCDF" points="343 389 343 439.148 305.339 439.148 283.021 457 283.021 439.148 249 439.148 249 389"/>
    <polygon stroke="#2F395A" stroke-width=".899" points="341 386 341 436.149 303.34 436.149 281.021 454 281.021 436.149 247 436.149 247 386"/>
    <polyline stroke="#2F395A" stroke-width="2.698" points="51 226.5 116.517 226.5 186 226.5"/>
    <polyline stroke="#2F395A" stroke-width="2.698" points="51 242.5 103.414 242.5 159 242.5"/>
    <polyline stroke="#2F395A" stroke-width="2.698" points="52 259.5 111.693 259.5 175 259.5"/>
    <text fill="#2F395A" font-family="National-Regular, National" font-size="10.79" letter-spacing="-.228">
      <tspan x="274.539" y="416">K</tspan> <tspan x="279.879" y="416">on</tspan> <tspan x="290.82" y="416" letter-spacing="-.109">z</tspan> <tspan x="294.855" y="416">ep</tspan> <tspan x="305.775" y="416" letter-spacing="-.054">t</tspan> <tspan x="309.303" y="416">e</tspan>
    </text>
    <polygon fill="#DDDCDF" points="156.398 276 156.398 278.943 171.979 278.943 119 331.919 121.081 334 174.059 281.021 174.059 296.601 177 296.601 177 276"/>
    <polygon fill="#FFFFFE" points="155.398 274 155.398 276.943 170.979 276.943 118 329.919 120.08 332 173.057 279.021 173.057 294.602 176 294.602 176 274"/>
    <polygon stroke="#2F395A" stroke-width=".899" points="155.398 274 155.398 276.943 170.979 276.943 118 329.919 120.08 332 173.057 279.021 173.057 294.602 176 294.602 176 274"/>
  </g>
</svg>
