<svg xmlns="http://www.w3.org/2000/svg" width="65" height="72" viewBox="0 0 65 72">
  <g fill="none" fill-rule="evenodd" transform="translate(1 1)">
    <polygon stroke="#8792BD" stroke-width="2" points="58.475 50.164 58.475 20.094 32.433 5.058 6.393 20.094 6.393 50.164 32.433 65.2"/>
    <path stroke="#8792BD" stroke-width="2" d="M34.608 5.0582C34.608 7.3622 32.74 9.2322 30.434 9.2322 28.13 9.2322 26.26 7.3622 26.26 5.0582 26.26 2.7542 28.13.8842 30.434.8842 32.74.8842 34.608 2.7542 34.608 5.0582zM34.608 65.1988C34.608 67.5028 32.74 69.3728 30.434 69.3728 28.13 69.3728 26.26 67.5028 26.26 65.1988 26.26 62.8928 28.13 61.0248 30.434 61.0248 32.74 61.0248 34.608 62.8928 34.608 65.1988zM60.651 49.5954C60.651 51.8994 58.781 53.7694 56.475 53.7694 54.171 53.7694 52.301 51.8994 52.301 49.5954 52.301 47.2894 54.171 45.4214 56.475 45.4214 58.781 45.4214 60.651 47.2894 60.651 49.5954zM8.567 49.5954C8.567 51.8994 6.697 53.7694 4.393 53.7694 2.089 53.7694.219 51.8994.219 49.5954.219 47.2894 2.089 45.4214 4.393 45.4214 6.697 45.4214 8.567 47.2894 8.567 49.5954zM8.567 19.7848C8.567 22.0908 6.697 23.9608 4.393 23.9608 2.089 23.9608.219 22.0908.219 19.7848.219 17.4808 2.089 15.6108 4.393 15.6108 6.697 15.6108 8.567 17.4808 8.567 19.7848zM60.651 19.7848C60.651 22.0908 58.781 23.9608 56.475 23.9608 54.171 23.9608 52.301 22.0908 52.301 19.7848 52.301 17.4808 54.171 15.6108 56.475 15.6108 58.781 15.6108 60.651 17.4808 60.651 19.7848z" transform="translate(2)"/>
    <g stroke-width="2" transform="translate(4 4)">
      <line x1="54.475" x2="2.393" y1="16.093" y2="46.163" stroke="#8792BD"/>
      <line x1="2.393" x2="54.475" y1="16.093" y2="46.163" stroke="#8792BD"/>
      <line x1="28.434" x2="28.434" y1="61.199" y2="1.059" stroke="#8792BD"/>
      <line x1="28.434" x2="2.392" y1="1.058" y2="46.164" stroke="#8792BD"/>
      <line x1="28.434" x2="54.476" y1="1.058" y2="46.164" stroke="#8792BD"/>
      <line x1="2.393" x2="54.475" y1="46.164" y2="46.164" stroke="#8792BD"/>
      <line x1="52.946" x2=".862" y1="15.414" y2="45.482" stroke="#2F395A"/>
      <line x1=".862" x2="52.946" y1="15.414" y2="45.482" stroke="#2F395A"/>
      <line x1="26.905" x2="26.905" y1="60.517" y2=".379" stroke="#2F395A"/>
      <line x1="26.905" x2=".863" y1=".379" y2="45.483" stroke="#2F395A"/>
      <line x1="26.905" x2="52.947" y1=".379" y2="45.483" stroke="#2F395A"/>
      <line x1=".862" x2="52.946" y1="45.482" y2="45.482" stroke="#2F395A"/>
      <polygon stroke="#2F395A" points="52.946 45.482 52.946 15.414 26.904 .378 .862 15.414 .862 45.482 26.904 60.518"/>
    </g>
    <path fill="#FFFFFE" d="M35.0788 4.3786C35.0788 6.6826 33.2088 8.5526 30.9048 8.5526 28.5988 8.5526 26.7288 6.6826 26.7288 4.3786 26.7288 2.0726 28.5988.2046 30.9048.2046 33.2088.2046 35.0788 2.0726 35.0788 4.3786M35.0788 64.5172C35.0788 66.8232 33.2088 68.6932 30.9048 68.6932 28.5988 68.6932 26.7288 66.8232 26.7288 64.5172 26.7288 62.2132 28.5988 60.3432 30.9048 60.3432 33.2088 60.3432 35.0788 62.2132 35.0788 64.5172M61.1198 48.9136C61.1198 51.2196 59.2498 53.0896 56.9458 53.0896 54.6398 53.0896 52.7718 51.2196 52.7718 48.9136 52.7718 46.6096 54.6398 44.7396 56.9458 44.7396 59.2498 44.7396 61.1198 46.6096 61.1198 48.9136M9.0378 48.9136C9.0378 51.2196 7.1678 53.0896 4.8618 53.0896 2.5578 53.0896.6878 51.2196.6878 48.9136.6878 46.6096 2.5578 44.7396 4.8618 44.7396 7.1678 44.7396 9.0378 46.6096 9.0378 48.9136M9.0378 19.105C9.0378 21.409 7.1678 23.279 4.8618 23.279 2.5578 23.279.6878 21.409.6878 19.105.6878 16.801 2.5578 14.931 4.8618 14.931 7.1678 14.931 9.0378 16.801 9.0378 19.105M61.1198 19.105C61.1198 21.409 59.2498 23.279 56.9458 23.279 54.6398 23.279 52.7718 21.409 52.7718 19.105 52.7718 16.801 54.6398 14.931 56.9458 14.931 59.2498 14.931 61.1198 16.801 61.1198 19.105"/>
    <path stroke="#2F395A" stroke-width="2" d="M35.0788 4.3786C35.0788 6.6826 33.2088 8.5526 30.9048 8.5526 28.5988 8.5526 26.7288 6.6826 26.7288 4.3786 26.7288 2.0726 28.5988.2046 30.9048.2046 33.2088.2046 35.0788 2.0726 35.0788 4.3786zM35.0788 64.5172C35.0788 66.8232 33.2088 68.6932 30.9048 68.6932 28.5988 68.6932 26.7288 66.8232 26.7288 64.5172 26.7288 62.2132 28.5988 60.3432 30.9048 60.3432 33.2088 60.3432 35.0788 62.2132 35.0788 64.5172zM61.1198 48.9136C61.1198 51.2196 59.2498 53.0896 56.9458 53.0896 54.6398 53.0896 52.7718 51.2196 52.7718 48.9136 52.7718 46.6096 54.6398 44.7396 56.9458 44.7396 59.2498 44.7396 61.1198 46.6096 61.1198 48.9136zM9.0378 48.9136C9.0378 51.2196 7.1678 53.0896 4.8618 53.0896 2.5578 53.0896.6878 51.2196.6878 48.9136.6878 46.6096 2.5578 44.7396 4.8618 44.7396 7.1678 44.7396 9.0378 46.6096 9.0378 48.9136zM9.0378 19.105C9.0378 21.409 7.1678 23.279 4.8618 23.279 2.5578 23.279.6878 21.409.6878 19.105.6878 16.801 2.5578 14.931 4.8618 14.931 7.1678 14.931 9.0378 16.801 9.0378 19.105zM61.1198 19.105C61.1198 21.409 59.2498 23.279 56.9458 23.279 54.6398 23.279 52.7718 21.409 52.7718 19.105 52.7718 16.801 54.6398 14.931 56.9458 14.931 59.2498 14.931 61.1198 16.801 61.1198 19.105z"/>
  </g>
</svg>
