<svg xmlns="http://www.w3.org/2000/svg" width="79" height="77" viewBox="0 0 79 77">
  <g fill="none" fill-rule="evenodd">
    <line x1="40.443" x2="40.443" y1="3.674" y2="73.194" stroke="#ED9FAA" stroke-width="2"/>
    <g transform="translate(2)">
      <path fill="#ED9FAA" d="M40.7944 74.1112C40.7944 75.4112 39.7424 76.4652 38.4424 76.4652 37.1424 76.4652 36.0884 75.4112 36.0884 74.1112 36.0884 72.8132 37.1424 69.1052 38.4424 69.1052 39.7424 69.1052 40.7944 72.8132 40.7944 74.1112M36.0894 2.7694C36.0894 1.4714 37.1414.4154 38.4434.4154 39.7414.4154 40.7954 1.4714 40.7954 2.7694 40.7954 4.0674 39.7414 7.7774 38.4434 7.7774 37.1414 7.7774 36.0894 4.0674 36.0894 2.7694"/>
      <line x1="13.857" x2="63.015" y1="63.025" y2="13.867" stroke="#ED9FAA" stroke-width="2"/>
      <path fill="#ED9FAA" d="M62.0016 11.5526C62.9216 10.6346 64.4096 10.6346 65.3296 11.5526 66.2476 12.4726 66.2476 13.9606 65.3296 14.8806 64.4096 15.7986 61.0436 17.6766 60.1256 16.7586 59.2076 15.8406 61.0836 12.4726 62.0016 11.5526M14.8824 65.328C13.9624 66.246 12.4744 66.246 11.5544 65.328 10.6364 64.408 10.6364 62.92 11.5544 62 12.4744 61.082 15.8404 59.204 16.7584 60.122 17.6764 61.042 15.8004 64.408 14.8824 65.328"/>
      <line x1="13.857" x2="63.015" y1="13.857" y2="63.013" stroke="#ED9FAA" stroke-width="2"/>
      <path fill="#ED9FAA" d="M65.3296 62C66.2476 62.92 66.2476 64.408 65.3296 65.328 64.4096 66.246 62.9216 66.246 62.0016 65.328 61.0836 64.408 59.2056 61.042 60.1236 60.124 61.0436 59.206 64.4096 61.082 65.3296 62M11.5542 14.8808C10.6362 13.9608 10.6362 12.4728 11.5542 11.5528 12.4742 10.6348 13.9622 10.6348 14.8822 11.5528 15.8002 12.4728 17.6782 15.8388 16.7602 16.7568 15.8422 17.6748 12.4742 15.7988 11.5542 14.8808"/>
      <line x1="3.675" x2="73.195" y1="38.441" y2="38.441" stroke="#ED9FAA" stroke-width="2"/>
      <path fill="#ED9FAA" d="M74.1128 36.0878C75.4128 36.0878 76.4668 37.1398 76.4668 38.4418 76.4668 39.7398 75.4128 40.7938 74.1128 40.7938 72.8148 40.7938 69.1068 39.7398 69.1068 38.4418 69.1068 37.1398 72.8148 36.0878 74.1128 36.0878M2.771 40.793C1.471 40.793.417 39.741.417 38.441.417 37.141 1.471 36.087 2.771 36.087 4.069 36.087 7.777 37.141 7.777 38.441 7.777 39.741 4.069 40.793 2.771 40.793M38.773 19.291C27.369 19.291 18.091 28.569 18.091 39.971 18.091 51.385 27.369 60.669 38.773 60.669 50.187 60.669 59.473 51.385 59.473 39.971 59.473 28.569 50.187 19.291 38.773 19.291M38.773 64.669C25.163 64.669 14.091 53.589 14.091 39.971 14.091 26.361 25.163 15.291 38.773 15.291 52.393 15.291 63.473 26.361 63.473 39.971 63.473 53.589 52.393 64.669 38.773 64.669"/>
    </g>
    <line x1="38.912" x2="38.912" y1="3.674" y2="73.194" stroke="#2F395A" stroke-width="2"/>
    <path fill="#2F395A" d="M41.2632 74.1112C41.2632 75.4112 40.2112 76.4652 38.9112 76.4652 37.6132 76.4652 36.5572 75.4112 36.5572 74.1112 36.5572 72.8132 37.6132 69.1052 38.9112 69.1052 40.2112 69.1052 41.2632 72.8132 41.2632 74.1112M36.5582 2.7694C36.5582 1.4714 37.6122.4154 38.9122.4154 40.2102.4154 41.2642 1.4714 41.2642 2.7694 41.2642 4.0674 40.2102 7.7774 38.9122 7.7774 37.6122 7.7774 36.5582 4.0674 36.5582 2.7694"/>
    <line x1="14.328" x2="63.484" y1="63.025" y2="13.867" stroke="#2F395A" stroke-width="2"/>
    <path fill="#2F395A" d="M62.4722 11.5526C63.3902 10.6346 64.8802 10.6346 65.7982 11.5526 66.7182 12.4726 66.7182 13.9606 65.7982 14.8806 64.8802 15.7986 61.5142 17.6766 60.5942 16.7586 59.6762 15.8406 61.5522 12.4726 62.4722 11.5526M15.3512 65.328C14.4332 66.246 12.9432 66.246 12.0252 65.328 11.1052 64.408 11.1052 62.92 12.0252 62 12.9432 61.082 16.3092 59.204 17.2272 60.122 18.1472 61.042 16.2712 64.408 15.3512 65.328"/>
    <line x1="14.328" x2="63.484" y1="13.857" y2="63.013" stroke="#2F395A" stroke-width="2"/>
    <path fill="#2F395A" d="M65.7984 62C66.7184 62.92 66.7184 64.408 65.7984 65.328 64.8804 66.246 63.3904 66.246 62.4724 65.328 61.5524 64.408 59.6744 61.042 60.5924 60.124 61.5124 59.206 64.8804 61.082 65.7984 62M12.025 14.8808C11.105 13.9608 11.105 12.4728 12.025 11.5528 12.943 10.6348 14.433 10.6348 15.351 11.5528 16.271 12.4728 18.149 15.8388 17.229 16.7568 16.311 17.6748 12.943 15.7988 12.025 14.8808"/>
    <line x1="4.144" x2="73.664" y1="38.441" y2="38.441" stroke="#2F395A" stroke-width="2"/>
    <path fill="#2F395A" d="M74.5836 36.0878C75.8816 36.0878 76.9356 37.1398 76.9356 38.4418 76.9356 39.7398 75.8816 40.7938 74.5836 40.7938 73.2836 40.7938 69.5756 39.7398 69.5756 38.4418 69.5756 37.1398 73.2836 36.0878 74.5836 36.0878M3.2398 40.793C1.9418 40.793.8858 39.741.8858 38.441.8858 37.141 1.9418 36.087 3.2398 36.087 4.5378 36.087 8.2478 37.141 8.2478 38.441 8.2478 39.741 4.5378 40.793 3.2398 40.793"/>
    <path fill="#FFFFFE" d="M38.9018,17.7598 C27.4978,17.7598 18.2198,27.0378 18.2198,38.4398 C18.2198,49.8538 27.4978,59.1378 38.9018,59.1378 C50.3158,59.1378 59.6018,49.8538 59.6018,38.4398 C59.6018,27.0378 50.3158,17.7598 38.9018,17.7598 M38.9018,63.1378 C25.2918,63.1378 14.2198,52.0578 14.2198,38.4398 C14.2198,24.8298 25.2918,13.7598 38.9018,13.7598 C52.5218,13.7598 63.6018,24.8298 63.6018,38.4398 C63.6018,52.0578 52.5218,63.1378 38.9018,63.1378"/>
    <path stroke="#2F395A" stroke-width="2" d="M38.9018,17.7598 C27.4978,17.7598 18.2198,27.0378 18.2198,38.4398 C18.2198,49.8538 27.4978,59.1378 38.9018,59.1378 C50.3158,59.1378 59.6018,49.8538 59.6018,38.4398 C59.6018,27.0378 50.3158,17.7598 38.9018,17.7598 Z M38.9018,63.1378 C25.2918,63.1378 14.2198,52.0578 14.2198,38.4398 C14.2198,24.8298 25.2918,13.7598 38.9018,13.7598 C52.5218,13.7598 63.6018,24.8298 63.6018,38.4398 C63.6018,52.0578 52.5218,63.1378 38.9018,63.1378 Z"/>
    <path fill="#FFFFFE" d="M45.1518,38.4472 C45.1518,41.8992 42.3558,44.6972 38.9038,44.6972 C35.4518,44.6972 32.6558,41.8992 32.6558,38.4472 C32.6558,34.9952 35.4518,32.1992 38.9038,32.1992 C42.3558,32.1992 45.1518,34.9952 45.1518,38.4472"/>
    <path stroke="#ED9FAA" stroke-width="2" d="M46.1734,38.959 C46.1734,42.411 43.3774,45.207 39.9254,45.207 C36.4734,45.207 33.6754,42.411 33.6754,38.959 C33.6754,35.507 36.4734,32.709 39.9254,32.709 C43.3774,32.709 46.1734,35.507 46.1734,38.959 Z"/>
    <path stroke="#2F395A" stroke-width="2" d="M45.1518,38.4472 C45.1518,41.8992 42.3558,44.6972 38.9038,44.6972 C35.4518,44.6972 32.6558,41.8992 32.6558,38.4472 C32.6558,34.9952 35.4518,32.1992 38.9038,32.1992 C42.3558,32.1992 45.1518,34.9952 45.1518,38.4472 Z"/>
  </g>
</svg>
