<svg xmlns="http://www.w3.org/2000/svg" width="71" height="69" viewBox="0 0 71 69">
  <g fill="none" fill-rule="evenodd" transform="translate(1 1)">
    <path stroke="#8792BD" stroke-linejoin="round" stroke-width="2" d="M45.6374,11.1066 C45.6374,16.8246 41.0014,21.4626 35.2794,21.4626 C29.5614,21.4626 24.9254,16.8246 24.9254,11.1066 C24.9254,5.3866 29.5614,0.7506 35.2794,0.7506 C41.0014,0.7506 45.6374,5.3866 45.6374,11.1066 Z"/>
    <line x1="35.737" x2="35.737" y1="21.735" y2="13.265" stroke="#8792BD" stroke-linejoin="round" stroke-width="2"/>
    <path fill="#8792BD" d="M37.5788 11.505C37.5788 12.523 36.7548 13.347 35.7368 13.347 34.7188 13.347 33.8948 12.523 33.8948 11.505 33.8948 10.489 34.7188 9.663 35.7368 9.663 36.7548 9.663 37.5788 10.489 37.5788 11.505M30.3736 20.253C31.9356 21.199 33.7696 21.743 35.7296 21.743 37.6956 21.743 39.5336 21.197 41.0996 20.243L41.0916 20.243 39.8216 26.985 31.6536 26.985 30.3836 20.243 30.3736 20.253z"/>
    <path stroke="#2F395A" stroke-width="2" d="M44.8834,10.5576 C44.8834,16.2776 40.2474,20.9136 34.5274,20.9136 C28.8074,20.9136 24.1714,16.2776 24.1714,10.5576 C24.1714,4.8396 28.8074,0.2016 34.5274,0.2016 C40.2474,0.2016 44.8834,4.8396 44.8834,10.5576 Z"/>
    <polyline stroke="#2F395A" stroke-width="2" points="39.882 19.423 38.612 26.163 30.444 26.163 29.174 19.423"/>
    <line x1="34.801" x2="34.801" y1="20.913" y2="12.443" stroke="#2F395A" stroke-width="2"/>
    <path stroke="#2F395A" stroke-width="2" d="M36.4068,10.6846 C36.4068,11.5686 35.6888,12.2886 34.8008,12.2886 C33.9148,12.2886 33.1968,11.5686 33.1968,10.6846 C33.1968,9.7986 33.9148,9.0786 34.8008,9.0786 C35.6888,9.0786 36.4068,9.7986 36.4068,10.6846 Z"/>
    <path fill="#8792BD" d="M24.5436,61.5264 L2.0236,61.5264 L2.0236,53.5224 C2.0236,47.3064 7.0656,42.2644 13.2836,42.2644 C19.5016,42.2644 24.5436,47.3064 24.5436,53.5224 L24.5436,61.5264 Z"/>
    <path fill="#8792BD" d="M21.8972,35.1964 C21.8972,39.9524 18.0392,43.8084 13.2832,43.8084 C8.5252,43.8084 4.6712,39.9524 4.6712,35.1964 C4.6712,30.4384 8.5252,26.5824 13.2832,26.5824 C18.0392,26.5824 21.8972,30.4384 21.8972,35.1964"/>
    <path stroke="#2F395A" stroke-width="2" d="M14.9792,41.5576 C19.4872,43.0276 22.7452,47.2656 22.7452,52.2656 L22.7452,60.2676 L0.2272,60.2676 L0.2272,52.2656 C0.2272,47.3116 3.4252,43.1036 7.8692,41.5996"/>
    <path stroke="#2F395A" stroke-width="2" d="M20.0984,33.9366 C20.0984,38.6946 16.2424,42.5506 11.4864,42.5506 C6.7284,42.5506 2.8744,38.6946 2.8744,33.9366 C2.8744,29.1806 6.7284,25.3246 11.4864,25.3246 C16.2424,25.3246 20.0984,29.1806 20.0984,33.9366 Z"/>
    <path stroke="#2F395A" stroke-width="2" d="M14.9792,41.5576 C19.4872,43.0276 22.7452,47.2656 22.7452,52.2656 L22.7452,60.2676 L0.2272,60.2676 L0.2272,52.2656 C0.2272,47.3116 3.4252,43.1036 7.8692,41.5996"/>
    <path stroke="#2F395A" stroke-width="2" d="M20.0984,33.9366 C20.0984,38.6946 16.2424,42.5506 11.4864,42.5506 C6.7284,42.5506 2.8744,38.6946 2.8744,33.9366 C2.8744,29.1806 6.7284,25.3246 11.4864,25.3246 C16.2424,25.3246 20.0984,29.1806 20.0984,33.9366 Z"/>
    <path fill="#FFFFFE" d="M37.4986,47.8838 C42.0066,49.3518 45.2646,53.5918 45.2646,58.5918 L45.2646,66.5938 L22.7446,66.5938 L22.7446,58.5918 C22.7446,53.6378 25.9446,49.4298 30.3886,47.9258"/>
    <path fill="#FFFFFE" d="M42.6178,40.2628 C42.6178,45.0188 38.7618,48.8768 34.0038,48.8768 C29.2478,48.8768 25.3938,45.0188 25.3938,40.2628 C25.3938,35.5068 29.2478,31.6488 34.0038,31.6488 C38.7618,31.6488 42.6178,35.5068 42.6178,40.2628"/>
    <path fill="#8792BD" d="M47.0632,67.8526 L24.5432,67.8526 L24.5432,59.8486 C24.5432,53.6306 29.5852,48.5886 35.8032,48.5886 C42.0212,48.5886 47.0632,53.6306 47.0632,59.8486 L47.0632,67.8526 Z"/>
    <path fill="#8792BD" d="M44.4148,41.5206 C44.4148,46.2786 40.5588,50.1346 35.8028,50.1346 C31.0448,50.1346 27.1908,46.2786 27.1908,41.5206 C27.1908,36.7646 31.0448,32.9086 35.8028,32.9086 C40.5588,32.9086 44.4148,36.7646 44.4148,41.5206"/>
    <path stroke="#2F395A" stroke-width="2" d="M37.4986,47.8838 C42.0066,49.3518 45.2646,53.5918 45.2646,58.5918 L45.2646,66.5938 L22.7446,66.5938 L22.7446,58.5918 C22.7446,53.6378 25.9446,49.4298 30.3886,47.9258"/>
    <path stroke="#2F395A" stroke-width="2" d="M42.6178,40.2628 C42.6178,45.0188 38.7618,48.8768 34.0038,48.8768 C29.2478,48.8768 25.3938,45.0188 25.3938,40.2628 C25.3938,35.5068 29.2478,31.6488 34.0038,31.6488 C38.7618,31.6488 42.6178,35.5068 42.6178,40.2628 Z"/>
    <path stroke="#2F395A" stroke-width="2" d="M37.4986,47.8838 C42.0066,49.3518 45.2646,53.5918 45.2646,58.5918 L45.2646,66.5938 L22.7446,66.5938 L22.7446,58.5918 C22.7446,53.6378 25.9446,49.4298 30.3886,47.9258"/>
    <path stroke="#2F395A" stroke-width="2" d="M42.6178,40.2628 C42.6178,45.0188 38.7618,48.8768 34.0038,48.8768 C29.2478,48.8768 25.3938,45.0188 25.3938,40.2628 C25.3938,35.5068 29.2478,31.6488 34.0038,31.6488 C38.7618,31.6488 42.6178,35.5068 42.6178,40.2628 Z"/>
    <path fill="#FFFFFE" d="M60.0182,42.8154 C64.5262,44.2854 67.7842,48.5234 67.7842,53.5234 L67.7842,61.5254 L45.2642,61.5254 L45.2642,53.5234 C45.2642,48.5694 48.4642,44.3634 52.9082,42.8574"/>
    <path fill="#FFFFFE" d="M65.1374,35.1964 C65.1374,39.9524 61.2814,43.8084 56.5234,43.8084 C51.7674,43.8084 47.9134,39.9524 47.9134,35.1964 C47.9134,30.4384 51.7674,26.5824 56.5234,26.5824 C61.2814,26.5824 65.1374,30.4384 65.1374,35.1964"/>
    <path fill="#8792BD" d="M69.5808,62.7842 L47.0628,62.7842 L47.0628,54.7822 C47.0628,48.5642 52.1048,43.5222 58.3208,43.5222 C64.5388,43.5222 69.5808,48.5642 69.5808,54.7822 L69.5808,62.7842 Z"/>
    <path fill="#8792BD" d="M66.9342,36.4542 C66.9342,41.2102 63.0782,45.0682 58.3202,45.0682 C53.5642,45.0682 49.7102,41.2102 49.7102,36.4542 C49.7102,31.6982 53.5642,27.8402 58.3202,27.8402 C63.0782,27.8402 66.9342,31.6982 66.9342,36.4542"/>
    <path stroke="#2F395A" stroke-width="2" d="M60.0182,42.8154 C64.5262,44.2854 67.7842,48.5234 67.7842,53.5234 L67.7842,61.5254 L45.2642,61.5254 L45.2642,53.5234 C45.2642,48.5694 48.4642,44.3634 52.9082,42.8574"/>
    <path stroke="#2F395A" stroke-width="2" d="M65.1374,35.1964 C65.1374,39.9524 61.2814,43.8084 56.5234,43.8084 C51.7674,43.8084 47.9134,39.9524 47.9134,35.1964 C47.9134,30.4384 51.7674,26.5824 56.5234,26.5824 C61.2814,26.5824 65.1374,30.4384 65.1374,35.1964 Z"/>
    <path stroke="#2F395A" stroke-width="2" d="M60.0182,42.8154 C64.5262,44.2854 67.7842,48.5234 67.7842,53.5234 L67.7842,61.5254 L45.2642,61.5254 L45.2642,53.5234 C45.2642,48.5694 48.4642,44.3634 52.9082,42.8574"/>
    <path stroke="#2F395A" stroke-width="2" d="M65.1374,35.1964 C65.1374,39.9524 61.2814,43.8084 56.5234,43.8084 C51.7674,43.8084 47.9134,39.9524 47.9134,35.1964 C47.9134,30.4384 51.7674,26.5824 56.5234,26.5824 C61.2814,26.5824 65.1374,30.4384 65.1374,35.1964 Z"/>
  </g>
</svg>
