<svg xmlns="http://www.w3.org/2000/svg" width="74" height="45" viewBox="0 0 74 45">
  <g fill="none" fill-rule="evenodd">
    <path fill="#FFFFFE" d="M21.2382,42.219 L42.0082,21.449 C35.0882,14.525 28.1642,7.599 21.2382,0.679 C14.3142,7.599 7.3902,14.525 0.4682,21.449 C7.3902,28.369 14.3142,35.295 21.2382,42.219"/>
    <path fill="#817F95" d="M21.6698,3.012 C14.7438,9.932 7.8198,16.856 0.8998,23.782 C7.8198,30.702 14.7438,37.626 21.6698,44.552 L42.4398,23.782 C35.5178,16.856 28.5938,9.932 21.6698,3.012 M21.6698,5.84 C27.6498,11.818 33.6298,17.8 39.6118,23.782 L21.6698,41.722 L3.7278,23.782 C9.7078,17.8 15.6878,11.818 21.6698,5.84"/>
    <path fill="#2F395A" d="M21.2382,0.6798 C14.3142,7.5998 7.3902,14.5258 0.4682,21.4498 C7.3902,28.3698 14.3142,35.2958 21.2382,42.2198 L42.0082,21.4498 C35.0882,14.5258 28.1642,7.5998 21.2382,0.6798 M21.2382,3.5078 C27.2202,9.4858 33.2002,15.4678 39.1802,21.4498 L21.2382,39.3898 L3.2962,21.4498 C9.2782,15.4678 15.2582,9.4858 21.2382,3.5078"/>
    <path fill="#FFFFFE" d="M52.5702,42.219 L73.3382,21.449 C66.4182,14.525 59.4942,7.601 52.5702,0.677 L31.8002,21.445 C38.7202,28.371 45.6442,35.295 52.5702,42.219"/>
    <path fill="#817F95" d="M52.9998,3.008 C46.0738,9.932 39.1498,16.858 32.2298,23.778 C39.1498,30.702 46.0738,37.628 52.9998,44.55 L73.7698,23.782 C66.8478,16.858 59.9238,9.932 52.9998,3.008 M52.9998,5.836 L70.9418,23.782 L52.9998,41.722 L35.0578,23.778 L44.0258,14.81 L52.9998,5.836"/>
    <path fill="#2F395A" d="M52.5702,0.676 L31.8002,21.446 C38.7202,28.372 45.6442,35.296 52.5702,42.218 L73.3382,21.45 C66.4182,14.526 59.4942,7.602 52.5702,0.676 M52.5682,3.506 L70.5102,21.45 L52.5702,39.39 L34.6282,21.446 L52.5682,3.506"/>
  </g>
</svg>
