<svg xmlns="http://www.w3.org/2000/svg" xmlns:xlink="http://www.w3.org/1999/xlink" width="65" height="70" viewBox="0 0 65 70">
  <defs>
    <polyline id="methods_menschzentriert-a" points=".904 80.448 80.906 80.448 80.906 .448 .904 .448"/>
  </defs>
  <g fill="none" fill-rule="evenodd" transform="translate(-9 -7)">
    <path stroke="#ED9FAA" stroke-width="2" d="M72.6636,67.664 C72.6636,72.02 58.8256,75.55 41.7536,75.55 C24.6836,75.55 10.8456,72.02 10.8456,67.664 C10.8456,63.306 24.6836,59.778 41.7536,59.778 C58.8256,59.778 72.6636,63.306 72.6636,67.664 Z"/>
    <path stroke="#2F395A" stroke-width="2" d="M71.814,66.9824 C71.814,71.3384 57.974,74.8684 40.904,74.8684 C23.834,74.8684 9.994,71.3384 9.994,66.9824 C9.994,62.6264 23.834,59.0964 40.904,59.0964 C57.974,59.0964 71.814,62.6264 71.814,66.9824 Z"/>
    <mask id="methods_menschzentriert-b" fill="#fff">
      <use xlink:href="#methods_menschzentriert-a"/>
    </mask>
    <path fill="#FFFFFE" d="M43.443,24.6934 C46.305,23.3454 48.297,20.4574 48.297,17.0854 C48.297,12.4314 44.525,8.6574 39.869,8.6574 C35.215,8.6574 31.441,12.4314 31.441,17.0854 C31.441,20.4174 33.393,23.2714 36.199,24.6414 C31.921,26.1514 28.851,30.2254 28.851,35.0194 L28.851,47.7094 L32.585,47.7094 L32.585,66.0534 L32.585,66.2114 L38.483,66.2114 L38.483,49.9094 L41.911,49.9094 L41.911,66.2114 L47.153,66.2114 L47.153,34.3394 L47.517,47.7094 L50.889,47.7094 L50.889,35.0194 C50.889,30.1334 47.849,26.1334 43.443,24.6934" mask="url(#methods_menschzentriert-b)"/>
    <path fill="#ED9FAA" d="M52.9566,35.623 L52.9566,48.313 L49.2126,48.313 L49.2126,66.819 L43.9786,66.819 L43.9786,50.517 L40.5486,50.517 L40.5486,66.819 L34.6506,66.819 L34.6506,48.313 L30.9226,48.313 L30.9226,35.623 C30.9226,30.819 33.9886,26.759 38.2606,25.237 C35.4626,23.877 33.5066,21.027 33.5066,17.681 C33.5066,13.025 37.2846,9.265 41.9386,9.265 C46.5946,9.265 50.3546,13.025 50.3546,17.681 C50.3546,21.061 48.3666,23.943 45.5006,25.303 C49.9086,26.745 52.9566,30.737 52.9566,35.623" mask="url(#methods_menschzentriert-b)"/>
    <path stroke="#2F395A" stroke-width="2" d="M36.3296 24.584C31.9816 26.056 28.8516 30.174 28.8516 35.022L28.8516 47.71 32.5856 47.71M43.4332 24.6894C47.8452 26.1274 50.8892 30.1294 50.8892 35.0214L50.8892 47.7094 47.5172 47.7094" mask="url(#methods_menschzentriert-b)"/>
    <path stroke="#2F395A" stroke-width="2" d="M48.2964,17.086 C48.2964,21.74 44.5244,25.514 39.8684,25.514 C35.2144,25.514 31.4404,21.74 31.4404,17.086 C31.4404,12.432 35.2144,8.658 39.8684,8.658 C44.5244,8.658 48.2964,12.432 48.2964,17.086 Z" mask="url(#methods_menschzentriert-b)"/>
    <polyline stroke="#2F395A" stroke-width="2" points="47.154 34.34 47.154 66.212 41.912 66.212 41.912 49.91 38.482 49.91 38.482 66.212 32.586 66.212 32.586 66.052 32.586 34.182" mask="url(#methods_menschzentriert-b)"/>
  </g>
</svg>
