<svg xmlns="http://www.w3.org/2000/svg" width="67" height="72" viewBox="0 0 67 72">
  <g fill="none" fill-rule="evenodd" transform="translate(1 1)">
    <g stroke-width="2">
      <polygon stroke="#817F95" points="26.545 53.772 2.437 53.772 2.437 2.014 35.529 2.014 48.465 14.946 48.465 53.772 33.487 53.772"/>
      <polyline stroke="#817F95" points="47.601 14.95 34.667 14.95 34.667 2.014"/>
      <polygon stroke="#2F395A" points="26.234 51.991 .666 51.991 .666 .233 33.756 .233 46.692 13.165 46.692 51.991 33.034 51.991"/>
      <polyline stroke="#2F395A" points="45.83 13.168 32.894 13.168 32.894 .232"/>
    </g>
    <g transform="translate(22 24)">
      <path fill="#FFFFFE" d="M17.9882,0.1684 C27.8702,0.1684 35.8822,8.1804 35.8822,18.0624 C35.8822,27.9464 27.8702,35.9584 17.9882,35.9584 C8.1062,35.9584 0.0942,27.9464 0.0942,18.0624 C0.0942,8.1804 8.1062,0.1684 17.9882,0.1684"/>
      <path fill="#817F95" d="M42.4998,40.9652 C42.5058,41.3112 42.4918,43.0852 41.0878,44.5392 C39.6078,46.0732 37.7078,46.0812 37.3878,46.0772 C34.0638,42.7532 30.7398,39.4272 27.4158,36.1032 L32.5278,30.9932 L42.4998,40.9652 Z"/>
      <path stroke="#817F95" stroke-linejoin="round" stroke-width="2" d="M18.826,1.436 C28.708,1.436 36.72,9.448 36.72,19.332 C36.72,29.216 28.708,37.228 18.826,37.228 C8.944,37.228 0.932,29.216 0.932,19.332 C0.932,9.448 8.944,1.436 18.826,1.436 Z"/>
      <path stroke="#2F395A" stroke-width="2" d="M17.9882,0.1684 C27.8702,0.1684 35.8822,8.1804 35.8822,18.0624 C35.8822,27.9464 27.8702,35.9584 17.9882,35.9584 C8.1062,35.9584 0.0942,27.9464 0.0942,18.0624 C0.0942,8.1804 8.1062,0.1684 17.9882,0.1684 Z"/>
      <path stroke="#2F395A" stroke-width="2" d="M42.9628,38.389 C42.9668,38.735 42.9548,40.509 41.5488,41.963 C40.0688,43.497 38.1708,43.505 37.8508,43.501 C34.5268,40.177 31.2028,36.851 27.8768,33.527 L32.9888,28.417 L42.9628,38.389 Z"/>
      <polyline stroke="#817F95" stroke-width="2" points="9.086 18.797 15.052 24.763 27.294 12.519"/>
      <polyline stroke="#2F395A" stroke-width="2" points="8.681 17.641 14.647 23.605 26.889 11.363"/>
    </g>
  </g>
</svg>
