<svg xmlns="http://www.w3.org/2000/svg" xmlns:xlink="http://www.w3.org/1999/xlink" width="141" height="44" viewBox="0 0 141 44">
  <defs>
    <rect id="politics_for_tomorrow_logo-a" width="153.942" height="54.896" x="0" y="0"/>
    <rect id="politics_for_tomorrow_logo-c" width="153.942" height="54.896" x="0" y="0"/>
    <rect id="politics_for_tomorrow_logo-e" width="153.942" height="54.896" x="0" y="0"/>
    <rect id="politics_for_tomorrow_logo-g" width="153.942" height="54.896" x="0" y="0"/>
    <rect id="politics_for_tomorrow_logo-i" width="153.942" height="54.896" x="0" y="0"/>
    <rect id="politics_for_tomorrow_logo-k" width="153.942" height="54.896" x="0" y="0"/>
    <rect id="politics_for_tomorrow_logo-m" width="153.942" height="54.896" x="0" y="0"/>
    <rect id="politics_for_tomorrow_logo-o" width="153.942" height="54.896" x="0" y="0"/>
    <rect id="politics_for_tomorrow_logo-q" width="153.942" height="54.896" x="0" y="0"/>
    <rect id="politics_for_tomorrow_logo-s" width="153.942" height="54.896" x="0" y="0"/>
    <rect id="politics_for_tomorrow_logo-u" width="153.942" height="54.896" x="0" y="0"/>
    <rect id="politics_for_tomorrow_logo-w" width="153.942" height="54.896" x="0" y="0"/>
    <rect id="politics_for_tomorrow_logo-y" width="153.942" height="54.896" x="0" y="0"/>
    <rect id="politics_for_tomorrow_logo-A" width="153.942" height="54.896" x="0" y="0"/>
    <rect id="politics_for_tomorrow_logo-C" width="153.942" height="54.896" x="0" y="0"/>
    <rect id="politics_for_tomorrow_logo-E" width="153.942" height="54.896" x="0" y="0"/>
    <rect id="politics_for_tomorrow_logo-G" width="153.942" height="54.896" x="0" y="0"/>
    <rect id="politics_for_tomorrow_logo-I" width="153.942" height="54.896" x="0" y="0"/>
    <rect id="politics_for_tomorrow_logo-K" width="153.942" height="54.896" x="0" y="0"/>
  </defs>
  <g fill="none" fill-rule="evenodd" transform="translate(-6 -5)">
    <mask id="politics_for_tomorrow_logo-b" fill="#fff">
      <use xlink:href="#politics_for_tomorrow_logo-a"/>
    </mask>
    <path fill="#290088" fill-rule="nonzero" d="M53.4911436,35.7469014 L53.4911436,46.9165493 C53.4911436,47.6451056 53.4698086,47.9030634 53.2781814,48.2841901 C53.0423325,48.7218662 52.5361108,49.0251408 51.9189471,49.0251408 C51.3017834,49.0251408 50.7959496,48.7218662 50.5608766,48.2841901 C50.3692494,47.9030634 50.3467506,47.6451056 50.3467506,46.9165493 L50.3467506,35.7469014 L47.9777884,35.7469014 C47.3148514,35.7469014 47.0565038,35.7240493 46.7527708,35.5671831 C46.3602065,35.3653873 46.0902217,34.9056338 46.0902217,34.3564085 C46.0902217,33.8067958 46.3602065,33.3474296 46.7527708,33.1448592 C47.0565038,32.987993 47.3148514,32.9655282 47.9777884,32.9655282 L55.8612695,32.9655282 C56.5238186,32.9655282 56.7821662,32.987993 57.0858992,33.1448592 C57.4788514,33.3470423 57.7488363,33.8067958 57.7488363,34.3564085 C57.7488363,34.9056338 57.4788514,35.3653873 57.0858992,35.5671831 C56.7821662,35.7240493 56.5238186,35.7469014 55.8612695,35.7469014 L53.4911436,35.7469014 Z" mask="url(#politics_for_tomorrow_logo-b)"/>
    <mask id="politics_for_tomorrow_logo-d" fill="#fff">
      <use xlink:href="#politics_for_tomorrow_logo-c"/>
    </mask>
    <path fill="#290088" fill-rule="nonzero" d="M76.4367557,37.1149296 C77.7393552,37.1149296 78.7948564,37.5866901 79.5373149,38.5952817 C80.524932,37.5634507 81.5808212,37.1149296 83.0409118,37.1149296 C84.2089068,37.1149296 85.2640202,37.4964437 85.9157078,38.1471479 C86.8591033,39.0891197 87.1961965,40.1879577 87.1961965,41.4657394 L87.1961965,47.0288732 C87.1961965,47.7357394 87.1624484,48.015 87.0049572,48.329507 C86.7916071,48.7547887 86.3315466,49.0247535 85.7361058,49.0247535 C85.1414408,49.0247535 84.6798287,48.7547887 84.4672544,48.329507 C84.3097632,48.015 84.2760151,47.7357394 84.2760151,47.0288732 L84.2760151,41.869331 C84.2760151,40.2882746 83.2658992,39.7619014 82.3446146,39.7619014 C81.4462166,39.7619014 80.3903275,40.2882746 80.3903275,41.8030986 L80.3903275,47.0292606 C80.3903275,47.7361268 80.3565793,48.0153873 80.1990882,48.3298944 C79.985738,48.7551761 79.5249018,49.0251408 78.9298489,49.0251408 C78.334796,49.0251408 77.8743476,48.7551761 77.6613854,48.3298944 C77.5038942,48.0153873 77.4701461,47.7361268 77.4701461,47.0292606 L77.4701461,41.8697183 C77.4701461,40.288662 76.4588665,39.7622887 75.5379698,39.7622887 C74.617073,39.7622887 73.5836826,40.288662 73.5836826,41.8697183 L73.5836826,47.0292606 C73.5836826,47.7361268 73.5499345,48.0153873 73.3932191,48.3298944 C73.1794811,48.7551761 72.7198086,49.0251408 72.1239798,49.0251408 C71.528927,49.0251408 71.0684786,48.7551761 70.8547406,48.3298944 C70.6980252,48.0153873 70.6638892,47.7361268 70.6638892,47.0292606 L70.6638892,39.1452817 C70.6638892,38.3942606 70.6980252,38.1696127 70.8780151,37.8330282 C71.0905894,37.4298239 71.5851738,37.1602465 72.1356171,37.1602465 C72.5285693,37.1602465 72.8427758,37.2838028 73.0673753,37.496831 C73.3032242,37.7098592 73.41533,37.9569718 73.5053249,38.349331 C74.257869,37.5301408 75.3579798,37.1149296 76.4367557,37.1149296" mask="url(#politics_for_tomorrow_logo-d)"/>
    <mask id="politics_for_tomorrow_logo-f" fill="#fff">
      <use xlink:href="#politics_for_tomorrow_logo-e"/>
    </mask>
    <path fill="#290088" fill-rule="nonzero" d="M106.696786,37.1149296 C107.607209,37.1149296 108.190625,37.3058803 108.718569,37.6536972 C109.156907,37.9453521 109.459864,38.3714085 109.459864,38.8760915 C109.459864,39.3021479 109.279874,39.683662 109.021526,39.9416197 C108.763179,40.1995775 108.403975,40.3455986 108.044771,40.3455986 C107.752675,40.3455986 107.437693,40.2437324 107.044353,40.0430986 C106.696786,39.862993 106.325945,39.7398239 105.932605,39.7398239 C104.955849,39.7398239 103.989955,40.412993 103.989955,41.8929577 L103.989955,47.0296479 C103.989955,47.7365141 103.956207,48.0157746 103.799103,48.3302817 C103.586141,48.7555634 103.124917,49.0255282 102.529864,49.0255282 C101.935199,49.0255282 101.474751,48.7555634 101.260625,48.3302817 C101.103521,48.0157746 101.070549,47.7365141 101.070549,47.0296479 L101.070549,39.145669 C101.070549,38.3946479 101.103521,38.17 101.283511,37.8334155 C101.497249,37.4302113 101.991446,37.1606338 102.541113,37.1606338 C102.934841,37.1606338 103.24866,37.2841901 103.474035,37.4972183 C103.709496,37.7102465 103.844489,37.9573592 103.911597,38.3830282 C104.472902,37.7094718 105.540428,37.1149296 106.696786,37.1149296" mask="url(#politics_for_tomorrow_logo-f)"/>
    <mask id="politics_for_tomorrow_logo-h" fill="#fff">
      <use xlink:href="#politics_for_tomorrow_logo-g"/>
    </mask>
    <path fill="#290088" fill-rule="nonzero" d="M116.955824,37.1149296 C117.865083,37.1149296 118.448499,37.3058803 118.977607,37.6536972 C119.415169,37.9453521 119.718902,38.3714085 119.718902,38.8760915 C119.718902,39.3021479 119.538912,39.683662 119.280564,39.9416197 C119.022217,40.1995775 118.662237,40.3455986 118.303033,40.3455986 C118.010937,40.3455986 117.69673,40.2437324 117.303003,40.0430986 C116.955436,39.862993 116.584982,39.7398239 116.191254,39.7398239 C115.214111,39.7398239 114.248217,40.412993 114.248217,41.8929577 L114.248217,47.0296479 C114.248217,47.7365141 114.214856,48.0157746 114.056977,48.3302817 C113.844015,48.7555634 113.383955,49.0255282 112.788902,49.0255282 C112.193849,49.0255282 111.732237,48.7555634 111.518499,48.3302817 C111.362171,48.0157746 111.328423,47.7365141 111.328423,47.0296479 L111.328423,39.145669 C111.328423,38.3946479 111.362171,38.17 111.542161,37.8334155 C111.755899,37.4302113 112.24932,37.1606338 112.799763,37.1606338 C113.193491,37.1606338 113.506534,37.2841901 113.731521,37.4972183 C113.968146,37.7102465 114.102363,37.9573592 114.169471,38.3830282 C114.731552,37.7094718 115.79869,37.1149296 116.955824,37.1149296" mask="url(#politics_for_tomorrow_logo-h)"/>
    <mask id="politics_for_tomorrow_logo-j" fill="#fff">
      <use xlink:href="#politics_for_tomorrow_logo-i"/>
    </mask>
    <path fill="#290088" fill-rule="nonzero" d="M137.16939,47.4208451 C136.956428,48.1164789 136.777602,48.441831 136.519254,48.6552465 C136.226771,48.8899648 135.87804,49.0251408 135.462589,49.0251408 C135.035889,49.0251408 134.698408,48.8899648 134.407088,48.6552465 C134.148741,48.441831 133.957113,48.1164789 133.755788,47.4208451 L131.373637,39.3803873 C131.183174,38.7521479 131.149038,38.4941901 131.227783,38.157993 C131.363552,37.5975352 131.934942,37.1598592 132.576544,37.1598592 C132.957471,37.1598592 133.283315,37.3058803 133.507526,37.5301408 C133.743763,37.7764789 133.833758,38.0011268 134.014136,38.6289789 L135.66469,44.4485211 L137.483597,38.6510563 C137.685698,38.0235915 137.844353,37.7090845 138.1027,37.4848239 C138.348247,37.2605634 138.65198,37.1594718 139.044932,37.1594718 C139.43866,37.1594718 139.741229,37.2605634 139.988715,37.4848239 C140.247451,37.7090845 140.404166,38.0235915 140.606267,38.6510563 L142.42595,44.4485211 L144.07728,38.6289789 C144.256494,38.0011268 144.346489,37.7764789 144.582338,37.5301408 C144.806937,37.3058803 145.133169,37.1598592 145.514872,37.1598592 C146.154534,37.1598592 146.728252,37.5975352 146.861693,38.157993 C146.940826,38.4941901 146.907078,38.7521479 146.715451,39.3803873 L144.335627,47.4208451 C144.133139,48.1164789 143.941899,48.441831 143.683552,48.6552465 C143.391456,48.8899648 143.054751,49.0251408 142.62805,49.0251408 C142.212212,49.0251408 141.864257,48.8899648 141.572161,48.6552465 C141.313814,48.441831 141.134212,48.1164789 140.920474,47.4208451 L139.044544,41.5331338 L137.16939,47.4208451 Z" mask="url(#politics_for_tomorrow_logo-j)"/>
    <mask id="politics_for_tomorrow_logo-l" fill="#fff">
      <use xlink:href="#politics_for_tomorrow_logo-k"/>
    </mask>
    <path fill="#E9004C" fill-rule="nonzero" d="M63.0356524,43.9147887 C64.0244332,43.9147887 64.8099496,43.1072183 64.8099496,42.0990141 C64.8099496,41.0888732 64.0244332,40.2813028 63.0356524,40.2813028 C62.0468715,40.2813028 61.2613552,41.0888732 61.2613552,42.0990141 C61.2613552,43.1072183 62.0468715,43.9147887 63.0356524,43.9147887 M63.0356524,37.9600704 C65.3266448,37.9600704 67.1800756,39.8103169 67.1800756,42.0990141 C67.1800756,44.386162 65.3266448,46.2364085 63.0356524,46.2364085 C60.7446599,46.2364085 58.892005,44.3865493 58.892005,42.0990141 C58.892005,39.8107042 60.7446599,37.9600704 63.0356524,37.9600704" mask="url(#politics_for_tomorrow_logo-l)"/>
    <mask id="politics_for_tomorrow_logo-n" fill="#fff">
      <use xlink:href="#politics_for_tomorrow_logo-m"/>
    </mask>
    <path fill="#E9004C" fill-rule="nonzero" d="M125.46539,46.391338 C126.454171,46.391338 127.2393,45.5837676 127.2393,44.5747887 C127.2393,43.5658099 126.454171,42.7582394 125.46539,42.7582394 C124.476222,42.7582394 123.691093,43.5658099 123.691093,44.5747887 C123.691093,45.5837676 124.47661,46.391338 125.46539,46.391338 M125.46539,40.4366197 C127.755995,40.4366197 129.610202,42.2864789 129.610202,44.5747887 C129.610202,46.8619366 127.756383,48.7129577 125.46539,48.7129577 C123.174398,48.7129577 121.321355,46.8623239 121.321355,44.5747887 C121.321743,42.2864789 123.174398,40.4366197 125.46539,40.4366197" mask="url(#politics_for_tomorrow_logo-n)"/>
    <mask id="politics_for_tomorrow_logo-p" fill="#fff">
      <use xlink:href="#politics_for_tomorrow_logo-o"/>
    </mask>
    <path fill="#E9004C" fill-rule="nonzero" d="M94.2511033,37.7323239 C95.2398841,37.7323239 96.0257884,36.9247535 96.0257884,35.916162 C96.0257884,34.9067958 95.2398841,34.0992254 94.2511033,34.0992254 C93.2630982,34.0992254 92.4768059,34.9067958 92.4768059,35.916162 C92.4764181,36.9247535 93.2630982,37.7323239 94.2511033,37.7323239 M94.2511033,31.7776056 C96.5420957,31.7776056 98.3955264,33.6278521 98.3955264,35.916162 C98.3955264,38.2033099 96.5424836,40.0539437 94.2511033,40.0539437 C91.9597229,40.0539437 90.1059043,38.2036972 90.1059043,35.916162 C90.1059043,33.6282394 91.9597229,31.7776056 94.2511033,31.7776056" mask="url(#politics_for_tomorrow_logo-p)"/>
    <mask id="politics_for_tomorrow_logo-r" fill="#fff">
      <use xlink:href="#politics_for_tomorrow_logo-q"/>
    </mask>
    <path fill="#E9004C" fill-rule="nonzero" d="M94.2511033,17.2630282 C95.2398841,17.2630282 96.0257884,16.4554577 96.0257884,15.4464789 C96.0257884,14.4371127 95.2398841,13.6295423 94.2511033,13.6295423 C93.2630982,13.6295423 92.4768059,14.4371127 92.4768059,15.4464789 C92.4764181,16.4554577 93.2630982,17.2630282 94.2511033,17.2630282 M94.2511033,11.3086972 C96.5420957,11.3086972 98.3955264,13.1589437 98.3955264,15.4468662 C98.3955264,17.7344014 96.5424836,19.5846479 94.2511033,19.5846479 C91.9597229,19.5846479 90.1059043,17.7344014 90.1059043,15.4468662 C90.1059043,13.1589437 91.9597229,11.3086972 94.2511033,11.3086972" mask="url(#politics_for_tomorrow_logo-r)"/>
    <mask id="politics_for_tomorrow_logo-t" fill="#fff">
      <use xlink:href="#politics_for_tomorrow_logo-s"/>
    </mask>
    <path fill="#290088" fill-rule="nonzero" d="M8.60188917,7.71007042 L8.60188917,14.0571479 L12.7125642,14.0571479 C14.7118489,14.0571479 16.0703073,12.9807746 16.0703073,10.8725704 C16.0703073,8.7643662 14.7118489,7.71007042 12.7125642,7.71007042 L8.60188917,7.71007042 Z M7.10805038,6.42066901 C7.34389924,6.18478873 7.64685642,6.18478873 7.9164534,6.18478873 L12.8475567,6.18478873 C15.7564887,6.18478873 17.8116322,8.02419014 17.8116322,10.8725704 C17.8116322,13.7209507 15.7564887,15.5832042 12.8475567,15.5832042 L8.60188917,15.5832042 L8.60188917,21.0777817 C8.60188917,21.5259155 8.57900252,21.6715493 8.44478589,21.8853521 C8.30979345,22.0987676 8.05144584,22.2444014 7.73685139,22.2444014 C7.42264484,22.2444014 7.16429723,22.0987676 7.02930479,21.8853521 C6.89470025,21.6715493 6.87220151,21.5259155 6.87220151,21.0777817 L6.87220151,7.22785211 C6.87220151,6.9590493 6.87220151,6.65616197 7.10805038,6.42066901" mask="url(#politics_for_tomorrow_logo-t)"/>
    <mask id="politics_for_tomorrow_logo-v" fill="#fff">
      <use xlink:href="#politics_for_tomorrow_logo-u"/>
    </mask>
    <path fill="#290088" fill-rule="nonzero" d="M31.9691587,19.1369014 C31.9691587,20.1474296 32.4296071,20.7411972 33.4296373,20.7411972 C33.8000907,20.7411972 34.0134408,20.7857394 34.1592947,20.8755986 C34.350534,20.9991549 34.4626398,21.1897183 34.4626398,21.4472887 C34.4626398,21.7052465 34.350534,21.8958099 34.1592947,22.0193662 C34.0134408,22.1092254 33.8000907,22.1537676 33.4296373,22.1537676 L33.1375416,22.1537676 C31.262,22.1537676 30.3298539,20.8302817 30.3298539,19.193838 L30.3298539,7.19415493 C30.3298539,6.80179577 30.3519647,6.64454225 30.4753199,6.4431338 C30.5994509,6.24133803 30.8465491,6.0953169 31.1491184,6.0953169 C31.4524635,6.0953169 31.6995617,6.24133803 31.8236927,6.4431338 C31.9470479,6.64454225 31.9691587,6.80179577 31.9691587,7.19415493 L31.9691587,19.1369014 Z" mask="url(#politics_for_tomorrow_logo-v)"/>
    <mask id="politics_for_tomorrow_logo-x" fill="#fff">
      <use xlink:href="#politics_for_tomorrow_logo-w"/>
    </mask>
    <path fill="#290088" fill-rule="nonzero" d="M38.7110227,21.1451761 C38.7110227,21.5375352 38.688136,21.6947887 38.5647809,21.8958099 C38.4410378,22.0987676 38.1943275,22.2444014 37.8909824,22.2444014 C37.5880252,22.2444014 37.340539,22.0987676 37.2171839,21.8958099 C37.0934408,21.6947887 37.07133,21.5375352 37.07133,21.1451761 L37.07133,12.1282746 C37.07133,11.7363028 37.0934408,11.5790493 37.2171839,11.3772535 C37.340539,11.1754577 37.5880252,11.0294366 37.8909824,11.0294366 C38.1943275,11.0294366 38.4410378,11.1754577 38.5647809,11.3772535 C38.688136,11.5790493 38.7110227,11.7363028 38.7110227,12.1282746 L38.7110227,21.1451761 Z M37.8913703,5.87066901 C38.5093098,5.87066901 39.0031184,6.36450704 39.0031184,6.98112676 C39.0031184,7.59774648 38.5093098,8.09158451 37.8913703,8.09158451 C37.2738186,8.09158451 36.7796219,7.59774648 36.7796219,6.98112676 C36.7792343,6.36450704 37.2734307,5.87066901 37.8913703,5.87066901" mask="url(#politics_for_tomorrow_logo-x)"/>
    <mask id="politics_for_tomorrow_logo-z" fill="#fff">
      <use xlink:href="#politics_for_tomorrow_logo-y"/>
    </mask>
    <path fill="#290088" fill-rule="nonzero" d="M44.8120605,19.1369014 C44.8120605,20.1474296 45.2725088,20.7411972 46.2721511,20.7411972 C46.6429924,20.7411972 46.8563426,20.7857394 47.0021965,20.8755986 C47.1930479,20.9991549 47.3055416,21.1897183 47.3055416,21.4472887 C47.3055416,21.7052465 47.1930479,21.8958099 47.0021965,22.0193662 C46.8563426,22.1092254 46.6429924,22.1537676 46.2721511,22.1537676 L45.9800554,22.1537676 C44.1045139,22.1537676 43.1723678,20.8302817 43.1723678,19.193838 L43.1723678,12.375 L42.3973249,12.375 C42.0939798,12.375 41.9368766,12.3529225 41.8018841,12.2630634 C41.6114207,12.1511268 41.5322872,11.9714085 41.5322872,11.7471479 C41.5322872,11.5232746 41.6114207,11.3435563 41.8018841,11.2312324 C41.9368766,11.1413732 42.0939798,11.1192958 42.3973249,11.1192958 L43.1723678,11.1192958 L43.1723678,8.7531338 C43.1723678,8.36038732 43.1948665,8.20352113 43.3182217,8.00172535 C43.4415768,7.79992958 43.6886751,7.65390845 43.9920202,7.65390845 C44.2953652,7.65390845 44.5424635,7.79992958 44.6658186,8.00172535 C44.7895617,8.20352113 44.8120605,8.36038732 44.8120605,8.7531338 L44.8120605,11.1192958 L46.4405038,11.1192958 C46.7438489,11.1192958 46.9013401,11.1413732 47.0355567,11.2312324 C47.226796,11.3435563 47.3055416,11.5232746 47.3055416,11.7471479 C47.3055416,11.9714085 47.226796,12.1511268 47.0355567,12.2630634 C46.9013401,12.3529225 46.7438489,12.375 46.4405038,12.375 L44.8120605,12.375 L44.8120605,19.1369014 L44.8120605,19.1369014 Z" mask="url(#politics_for_tomorrow_logo-z)"/>
    <mask id="politics_for_tomorrow_logo-B" fill="#fff">
      <use xlink:href="#politics_for_tomorrow_logo-A"/>
    </mask>
    <path fill="#290088" fill-rule="nonzero" d="M52.0822569,21.1451761 C52.0822569,21.5375352 52.0593703,21.6947887 51.9360151,21.8958099 C51.812272,22.0987676 51.5655617,22.2444014 51.2622166,22.2444014 C50.9588715,22.2444014 50.7117733,22.0987676 50.5884181,21.8958099 C50.4646751,21.6947887 50.4425642,21.5375352 50.4425642,21.1451761 L50.4425642,12.1282746 C50.4425642,11.7363028 50.4646751,11.5790493 50.5884181,11.3772535 C50.7117733,11.1754577 50.9588715,11.0294366 51.2622166,11.0294366 C51.5655617,11.0294366 51.812272,11.1754577 51.9360151,11.3772535 C52.0593703,11.5790493 52.0822569,11.7363028 52.0822569,12.1282746 L52.0822569,21.1451761 Z M51.2622166,5.87066901 C51.8801562,5.87066901 52.3739647,6.36450704 52.3739647,6.98112676 C52.3739647,7.59774648 51.8801562,8.09158451 51.2622166,8.09158451 C50.644665,8.09158451 50.1504685,7.59774648 50.1504685,6.98112676 C50.1504685,6.36450704 50.644665,5.87066901 51.2622166,5.87066901" mask="url(#politics_for_tomorrow_logo-B)"/>
    <mask id="politics_for_tomorrow_logo-D" fill="#fff">
      <use xlink:href="#politics_for_tomorrow_logo-C"/>
    </mask>
    <path fill="#290088" fill-rule="nonzero" d="M60.4738992,10.984507 C61.5972846,10.984507 62.3719395,11.2649296 63.1690932,11.8927817 C63.6970378,12.307993 63.9557733,12.5318662 63.9557733,12.9358451 C63.9557733,13.1264085 63.8657783,13.3169718 63.7195365,13.4626056 C63.584932,13.586162 63.40533,13.6644014 63.2140907,13.6644014 C62.9669924,13.6644014 62.7986398,13.5408451 62.4281864,13.2387324 C61.6981411,12.6329577 61.2039446,12.4423944 60.4738992,12.4423944 C59.3958992,12.4423944 58.5308615,12.8459859 57.94667,13.6644014 C57.4299748,14.3937324 57.2278741,15.2342254 57.2278741,16.6359507 C57.2278741,18.026831 57.4299748,18.8680986 57.94667,19.5974296 C58.5308615,20.4158451 59.3958992,20.8302817 60.4738992,20.8302817 C61.2039446,20.8302817 61.7315013,20.6397183 62.4281864,20.0351056 C62.6973955,19.7984507 62.9669924,19.6082746 63.2140907,19.6082746 C63.40533,19.6082746 63.584932,19.6865141 63.7195365,19.8100704 C63.8657783,19.9557042 63.9557733,20.1470423 63.9557733,20.3376056 C63.9557733,20.7411972 63.6407909,21.0328521 63.1690932,21.3915141 C62.416937,21.9864437 61.5972846,22.2889437 60.4738992,22.2889437 C57.6549622,22.2889437 55.5885693,20.405 55.5885693,16.6359507 C55.5889572,12.8576056 57.6553501,10.984507 60.4738992,10.984507" mask="url(#politics_for_tomorrow_logo-D)"/>
    <mask id="politics_for_tomorrow_logo-F" fill="#fff">
      <use xlink:href="#politics_for_tomorrow_logo-E"/>
    </mask>
    <path fill="#290088" fill-rule="nonzero" d="M66.0047103,20.472007 C66.0047103,20.280669 66.0947053,20.0680282 66.2630579,19.9107746 C66.386801,19.798838 66.5551537,19.7434507 66.7347557,19.7434507 C66.9368564,19.7434507 67.1839547,19.8441549 67.4760504,20.0567958 C68.273204,20.6292606 69.1611285,20.8872183 70.3853703,20.8872183 C72.2605239,20.8872183 73.3276625,20.2477465 73.3276625,18.9467254 C73.3276625,17.9594366 72.743471,17.4551408 71.485869,17.3432042 L69.6665743,17.1751056 C67.5210479,16.9849296 66.3643023,16.031338 66.3643023,14.2144014 C66.3643023,12.2072887 68.0598539,10.973662 70.4295919,10.973662 C71.6650831,10.973662 72.653864,11.2316197 73.5189018,11.6685211 C73.8102217,11.8145423 73.9677128,11.9380986 74.0685693,12.0725 C74.1698136,12.2181338 74.1927003,12.3304577 74.1927003,12.4873239 C74.1927003,12.6221127 74.1135668,12.801831 74.0123224,12.9246127 C73.8664685,13.0818662 73.6981159,13.160493 73.4960151,13.160493 C73.3164131,13.160493 73.1476725,13.0927113 72.8784635,12.9470775 C72.1484181,12.5659507 71.3508766,12.3529225 70.4074811,12.3529225 C68.8348967,12.3529225 67.9364987,13.0036268 67.9364987,14.1690845 C67.9364987,15.1676056 68.5544383,15.6382042 69.8795365,15.7617606 L71.6542217,15.9298592 C73.5972594,16.1095775 74.9114962,16.8389085 74.9114962,18.9242606 C74.9114962,21.0553169 73.0805642,22.2889437 70.4074811,22.2889437 C68.7115416,22.2889437 67.5435466,21.929507 66.5439043,21.2342606 C66.2296977,21.0216197 66.0047103,20.7752817 66.0047103,20.472007" mask="url(#politics_for_tomorrow_logo-F)"/>
    <mask id="politics_for_tomorrow_logo-H" fill="#fff">
      <use xlink:href="#politics_for_tomorrow_logo-G"/>
    </mask>
    <path fill="#290088" fill-rule="nonzero" d="M88.165194,11.1192958 C88.468539,11.1192958 88.6256423,11.1413732 88.7606348,11.2312324 C88.9507103,11.3435563 89.0298438,11.5232746 89.0298438,11.7471479 C89.0298438,11.9714085 88.9507103,12.1511268 88.7606348,12.2630634 C88.6252544,12.3529225 88.468539,12.375 88.165194,12.375 L86.5367506,12.375 L86.5367506,21.1451761 C86.5367506,21.5371479 86.5142519,21.6947887 86.3905088,21.8958099 C86.2671537,22.0983803 86.0200554,22.2444014 85.7167103,22.2444014 C85.4137531,22.2444014 85.1666549,22.0983803 85.0432997,21.8958099 C84.9199446,21.6947887 84.8970579,21.5371479 84.8970579,21.1451761 L84.8970579,12.375 L84.122403,12.375 C83.8190579,12.375 83.6615668,12.3529225 83.5273501,12.2630634 C83.3361108,12.1511268 83.2573652,11.9714085 83.2573652,11.7471479 C83.2573652,11.5232746 83.3361108,11.3435563 83.5273501,11.2312324 C83.6615668,11.1413732 83.8190579,11.1192958 84.122403,11.1192958 L84.8970579,11.1192958 L84.8970579,9.10056338 C84.8970579,7.46334507 85.829204,6.14024648 87.7047456,6.14024648 L87.9968413,6.14024648 C88.3672947,6.14024648 88.5806448,6.18478873 88.7272746,6.27464789 C88.917738,6.39820423 89.0302317,6.58838028 89.0302317,6.84633803 C89.0302317,7.10429577 88.917738,7.29485915 88.7272746,7.41880282 C88.5806448,7.50788732 88.3672947,7.5528169 87.9968413,7.5528169 C86.997199,7.5528169 86.5367506,8.14735915 86.5367506,9.15672535 L86.5367506,11.1192958 L88.165194,11.1192958 Z" mask="url(#politics_for_tomorrow_logo-H)"/>
    <mask id="politics_for_tomorrow_logo-J" fill="#fff">
      <use xlink:href="#politics_for_tomorrow_logo-I"/>
    </mask>
    <path fill="#290088" fill-rule="nonzero" d="M102.814977,12.4427817 C103.432917,11.5453521 104.623023,10.9848944 105.835627,10.9848944 C106.621919,10.9848944 107.228997,11.1417606 107.82405,11.5116549 C108.161144,11.7250704 108.441602,11.9830282 108.441602,12.3416901 C108.441602,12.5547183 108.340358,12.7789789 108.206141,12.9137676 C108.059899,13.0597887 107.858186,13.1488732 107.644836,13.1488732 C107.453597,13.1488732 107.273995,13.0706338 106.869406,12.8351408 C106.453955,12.5880282 105.993118,12.4427817 105.488448,12.4427817 C103.848368,12.4427817 102.814977,13.6872535 102.814977,15.414331 L102.814977,21.1451761 C102.814977,21.5375352 102.791703,21.6947887 102.669123,21.8958099 C102.54538,22.0987676 102.297894,22.2444014 101.995325,22.2444014 C101.69198,22.2444014 101.444494,22.0987676 101.320751,21.8958099 C101.197783,21.6947887 101.175285,21.5375352 101.175285,21.1451761 L101.175285,12.1174296 C101.175285,11.7250704 101.197783,11.5682042 101.320751,11.3664085 C101.444494,11.1642254 101.69198,11.0185915 101.995325,11.0185915 C102.297894,11.0185915 102.54538,11.1642254 102.669123,11.3664085 C102.791703,11.5682042 102.814977,11.7250704 102.814977,12.1174296 L102.814977,12.4427817 L102.814977,12.4427817 Z" mask="url(#politics_for_tomorrow_logo-J)"/>
    <mask id="politics_for_tomorrow_logo-L" fill="#fff">
      <use xlink:href="#politics_for_tomorrow_logo-K"/>
    </mask>
    <path fill="#E9004C" fill-rule="nonzero" d="M22.6290781,19.6102113 C23.6178589,19.6102113 24.4033753,18.8026408 24.4033753,17.7940493 C24.4033753,16.7839085 23.6178589,15.976338 22.6290781,15.976338 C21.6402972,15.976338 20.8547809,16.7839085 20.8547809,17.7940493 C20.8547809,18.8026408 21.6402972,19.6102113 22.6290781,19.6102113 M22.6290781,13.655493 C24.9200705,13.655493 26.7735013,15.5057394 26.7735013,17.7940493 C26.7735013,20.0815845 24.9200705,21.9314437 22.6290781,21.9314437 C20.3380856,21.9314437 18.4854307,20.0815845 18.4854307,17.7940493 C18.4854307,15.5057394 20.3380856,13.655493 22.6290781,13.655493" mask="url(#politics_for_tomorrow_logo-L)"/>
  </g>
</svg>
