<?xml version="1.0" encoding="UTF-8"?>
<svg width="110px" height="45px" viewBox="0 0 110 45" version="1.1" xmlns="http://www.w3.org/2000/svg" xmlns:xlink="http://www.w3.org/1999/xlink">
    <!-- Generator: Sketch 53.2 (72643) - https://sketchapp.com -->
    <title>Group 9 Copy</title>
    <desc>Created with Sketch.</desc>
    <g id="Page-1" stroke="none" stroke-width="1" fill="none" fill-rule="evenodd">
        <g id="03_Website-Copy" transform="translate(-748.000000, -33.000000)">
            <g id="Group-9-Copy" transform="translate(749.000000, 34.032883)">
                <g id="Group-Copy-7" transform="translate(48.892081, 5.873077)" fill="#393A60" fill-rule="nonzero">
                    <path d="M6.5688564,6.90680361 L6.5688564,6.97746292 C8.12336114,7.20710566 8.86528385,8.21400077 8.86528385,9.45053863 C8.86528385,11.146362 7.71707013,12.2769109 5.1733351,12.2769109 L0.633474679,12.2769109 L0.633474679,1.87232804 L5.20866476,1.87232804 C7.31077912,1.87232804 8.42366319,2.86155833 8.42366319,4.48672237 C8.42366319,5.77625471 7.6994053,6.60650156 6.5688564,6.90680361 Z M3.28319866,6.14721607 L4.60806065,6.14721607 C5.33231854,6.14721607 5.79160403,5.88224367 5.79160403,5.15798578 C5.79160403,4.38073341 5.34998337,4.11576101 4.55506617,4.11576101 L3.28319866,4.11576101 L3.28319866,6.14721607 Z M3.28319866,8.05501734 L3.28319866,10.0334779 L4.94369236,10.0334779 C5.72094473,10.0334779 6.18023022,9.82149999 6.18023022,9.0265828 C6.18023022,8.37298421 5.72094473,8.05501734 4.94369236,8.05501734 L3.28319866,8.05501734 Z M14.2707208,10.4750986 C14.8183304,10.4750986 15.3129455,10.2807855 15.5779179,9.45053863 L17.8036861,10.2454558 C17.3444006,11.8882847 15.8428903,12.4888888 14.2353911,12.4888888 C11.8506395,12.4888888 10.1901458,10.9520489 10.1901458,8.33765456 C10.1901458,5.51128231 11.7269858,3.92144792 14.253056,3.92144792 C16.6201427,3.92144792 17.7683564,5.45828783 17.7683564,7.57806702 C17.7683564,7.91369872 17.7330268,8.26699525 17.6623675,8.63795661 L12.716216,8.63795661 C12.7515457,9.76850551 13.2814905,10.4750986 14.2707208,10.4750986 Z M12.7868753,7.26010014 L15.2599511,7.26010014 C15.2776159,7.17177601 15.2776159,7.1011167 15.2776159,7.01279257 C15.2776159,6.34152916 14.9243194,5.84691402 14.1647318,5.84691402 C13.3698146,5.84691402 12.8575347,6.46518295 12.7868753,7.26010014 Z M25.346567,3.93911275 L25.0286001,6.81847948 C24.6929684,6.71249052 24.4456609,6.65949604 24.0393699,6.65949604 C23.1914582,6.65949604 22.0079148,6.97746292 22.0079148,8.67328626 L22.0079148,12.2769109 L19.3935205,12.2769109 L19.3935205,4.11576101 L21.6722831,4.11576101 L21.99025,6.37685881 C22.3435465,4.96367269 23.0854692,3.79779414 25.346567,3.93911275 Z M30.4340371,10.0158131 L30.2927185,12.2062516 C29.8157681,12.3475702 29.3034882,12.4535591 28.808873,12.4535591 C27.5723352,12.4535591 26.4064566,11.8882847 26.4064566,10.2631207 L26.4064566,0.476806745 L29.0208509,0.476806745 L29.0208509,9.45053863 C29.0208509,9.9628186 29.3564827,10.1394669 29.7804385,10.1394669 C29.9747516,10.1394669 30.2220592,10.1041372 30.4340371,10.0158131 Z M31.5999156,1.66035012 C31.5999156,0.671119837 32.3065087,0.19416952 33.1544204,0.19416952 C34.0729913,0.19416952 34.7619196,0.671119837 34.7619196,1.66035012 C34.7619196,2.61425076 34.0729913,3.1088659 33.1544204,3.1088659 C32.3065087,3.1088659 31.5999156,2.61425076 31.5999156,1.66035012 Z M31.8472232,4.11576101 L34.4616175,4.11576101 L34.4616175,12.2769109 L31.8472232,12.2769109 L31.8472232,4.11576101 Z M38.8424945,4.11576101 L39.1604614,5.68793058 C39.6020821,4.46905755 40.520653,3.92144792 41.7748557,3.92144792 C42.9937288,3.92144792 44.1419425,4.66337064 44.1419425,6.51817743 L44.1419425,12.2769109 L41.5275481,12.2769109 L41.5275481,7.54273737 C41.5275481,6.67716086 41.3508999,6.11188641 40.5383179,6.11188641 C39.8670545,6.11188641 39.195791,6.5005126 39.195791,7.86070424 L39.195791,12.2769109 L36.5813967,12.2769109 L36.5813967,4.11576101 L38.8424945,4.11576101 Z M7.11646602,23.4293047 L9.4305583,24.7541667 C8.47665767,26.3969956 7.25778464,27.2095776 4.85536823,27.2095776 C1.99366632,27.2095776 0.0152057498,25.231117 0.0152057498,21.768811 C0.0152057498,18.306505 1.90534219,16.3810389 5.1733351,16.3810389 C7.39910325,16.3810389 8.75929489,17.387934 9.51888243,19.0660926 L6.93981776,20.3202952 C6.65718053,19.3487298 6.21555987,18.7304608 5.1026758,18.7304608 C3.63649519,18.7304608 2.73558904,19.8963394 2.73558904,21.8394703 C2.73558904,23.7472716 3.54817106,24.8601557 5.1733351,24.8601557 C6.00358195,24.8601557 6.74550467,24.3832053 7.11646602,23.4293047 Z M10.5964369,16.3810389 C10.5964369,15.3918086 11.3030299,14.9148583 12.1509416,14.9148583 C13.0695126,14.9148583 13.7584408,15.3918086 13.7584408,16.3810389 C13.7584408,17.3349396 13.0695126,17.8295547 12.1509416,17.8295547 C11.3030299,17.8295547 10.5964369,17.3349396 10.5964369,16.3810389 Z M10.8437444,18.8364498 L13.4581388,18.8364498 L13.4581388,26.9975997 L10.8437444,26.9975997 L10.8437444,18.8364498 Z M20.9126956,24.4538647 L21.3543162,26.661968 C20.6123935,27.0329293 19.7291522,27.2095776 18.6692626,27.2095776 C17.0087689,27.2095776 15.87822,26.4499901 15.87822,24.4715295 L15.87822,20.85024 L14.6946766,20.85024 L14.6946766,18.8364498 L15.8958848,18.8364498 L15.8958848,17.1052968 L18.5102791,16.8049948 L18.5102791,18.8364498 L20.9303604,18.8364498 L20.9303604,20.85024 L18.4926143,20.85024 L18.4926143,23.8709254 C18.4926143,24.718837 18.828246,24.9838094 19.4641798,24.9838094 C19.9764598,24.9838094 20.4357452,24.7894964 20.9126956,24.4538647 Z M24.4809905,18.8364498 L25.4348912,22.2987558 C25.8765118,23.8885902 25.964836,24.9484798 25.964836,24.9484798 L26.0354953,24.9484798 C26.0354953,24.9484798 26.1238194,23.8709254 26.6007697,22.2987558 L27.6606593,18.8364498 L30.4163722,18.8364498 L27.1130497,27.7395224 C26.159149,30.3009222 25.0109353,30.6718836 23.2444527,30.6718836 C22.7498375,30.6718836 22.1668982,30.5835595 21.7076128,30.4775705 L22.1139038,28.1458134 C22.4142058,28.3401265 22.802832,28.4461155 23.1914582,28.4461155 C23.8980512,28.4461155 24.3573367,28.1811431 24.639974,27.4568852 L21.6192886,18.8364498 L24.4809905,18.8364498 Z M31.7412342,16.5930168 L34.3909582,16.5930168 L34.3909582,24.7011722 L38.2772201,24.7011722 L38.2772201,26.9975997 L31.7412342,26.9975997 L31.7412342,16.5930168 Z M46.9329851,26.9975997 L46.2440568,25.0544688 L42.4107895,25.0544688 L41.7571909,26.9975997 L38.9838131,26.9975997 L42.7464212,16.5930168 L45.9790844,16.5930168 L49.7770221,26.9975997 L46.9329851,26.9975997 Z M43.4353494,22.0337834 L43.1527122,22.8463654 L45.4668045,22.8463654 L45.1841672,22.0514482 C44.5658983,20.3202952 44.3539204,19.0130981 44.3539204,19.0130981 L44.2832611,19.0130981 C44.2832611,19.0130981 44.0182887,20.3379601 43.4353494,22.0337834 Z M57.2139141,21.6274924 L57.2139141,21.6981517 C58.7684189,21.9277945 59.5103416,22.9346896 59.5103416,24.1712274 C59.5103416,25.8670508 58.3621279,26.9975997 55.8183928,26.9975997 L51.2785324,26.9975997 L51.2785324,16.5930168 L55.8537225,16.5930168 C57.9558368,16.5930168 59.0687209,17.5822471 59.0687209,19.2074112 C59.0687209,20.4969435 58.344463,21.3271904 57.2139141,21.6274924 Z M53.9282564,20.8679049 L55.2531184,20.8679049 C55.9773763,20.8679049 56.4366618,20.6029325 56.4366618,19.8786746 C56.4366618,19.1014222 55.9950411,18.8364498 55.2001239,18.8364498 L53.9282564,18.8364498 L53.9282564,20.8679049 Z M53.9282564,22.7757061 L53.9282564,24.7541667 L55.5887501,24.7541667 C56.3660025,24.7541667 56.8252879,24.5421888 56.8252879,23.7472716 C56.8252879,23.093673 56.3660025,22.7757061 55.5887501,22.7757061 L53.9282564,22.7757061 Z" id="BerlinCityLAB"></path>
                </g>
                <g id="Group-7-Copy-5" transform="translate(0.000000, 4.237737)">
                    <polygon id="Fill-7" fill="#FFFFFF" points="3.55271368e-15 26.2179402 7.43014603 30.4785937 21.6779308 22.2137688 21.7052521 4.15390953 14.4875352 -1.0658141e-14 0.133430021 8.26440135"></polygon>
                    <polygon id="Stroke-8" stroke="#393A60" stroke-width="1.35903912" points="3.55271368e-15 26.2179402 7.43014603 30.4785937 21.6779308 22.2137688 21.7052521 4.15390953 14.4875352 -1.0658141e-14 0.133430021 8.26440135"></polygon>
                    <polygon id="Stroke-8" fill="#393A60" opacity="0.400000006" points="7.38167532 30.5624217 21.62946 22.2975967 21.7052521 4.15390953 7.38167532 12.4128435"></polygon>
                    <polygon id="Stroke-8" fill="#393A60" opacity="0.100000001" points="0.230461578 25.9440735 7.35435394 30.4785937 7.38167532 12.4187345 0.163958361 8.26482494"></polygon>
                </g>
                <g id="Group-7-Copy-6" transform="translate(7.738327, 11.997795)">
                    <polygon id="Fill-7" fill="#FFFFFF" points="3.55271368e-15 26.2179402 7.43014603 30.4785937 21.6779308 22.2137688 21.7052521 4.15390953 14.4875352 -1.0658141e-14 0.133430021 8.26440135"></polygon>
                    <polygon id="Stroke-8" stroke="#2F2FA2" stroke-width="1.35903912" points="3.55271368e-15 26.2179402 7.43014603 30.4785937 21.6779308 22.2137688 21.7052521 4.15390953 14.4875352 -1.0658141e-14 0.133430021 8.26440135"></polygon>
                    <polygon id="Stroke-8" fill="#2F2FA2" opacity="0.400000006" points="7.38167532 30.5624217 21.62946 22.2975967 21.7052521 4.15390953 7.38167532 12.4128435"></polygon>
                    <polygon id="Stroke-8" fill="#2F2FA2" opacity="0.100000001" points="0.230461578 25.9440735 7.35435394 30.4785937 7.38167532 12.4187345 0.163958361 8.26482494"></polygon>
                </g>
                <g id="Group-7-Copy-7" transform="translate(0.000000, 4.237737)">
                    <polygon id="Fill-7" fill="#FFFFFF" points="3.55271368e-15 26.2179402 7.43014603 30.4785937 21.6779308 22.2137688 21.7052521 4.15390953 14.4875352 -1.0658141e-14 0.133430021 8.26440135"></polygon>
                    <polygon id="Stroke-8" stroke="#393A60" stroke-width="1.35903912" points="3.55271368e-15 26.2179402 7.43014603 30.4785937 21.6779308 22.2137688 21.7052521 4.15390953 14.4875352 -1.0658141e-14 0.133430021 8.26440135"></polygon>
                    <polygon id="Stroke-8" fill="#393A60" opacity="0.400000006" points="7.38167532 30.5624217 21.62946 22.2975967 21.7052521 4.15390953 7.38167532 12.4128435"></polygon>
                    <polygon id="Stroke-8" fill="#393A60" opacity="0.100000001" points="0.230461578 25.9440735 7.35435394 30.4785937 7.38167532 12.4187345 0.163958361 8.26482494"></polygon>
                </g>
                <g id="Group-7-Copy-8" transform="translate(7.738327, 11.997795)">
                    <polygon id="Fill-7" fill="#FFFFFF" points="3.55271368e-15 26.2179402 7.43014603 30.4785937 21.6779308 22.2137688 21.7052521 4.15390953 14.4875352 -1.0658141e-14 0.133430021 8.26440135"></polygon>
                    <polygon id="Stroke-8" stroke="#393A60" stroke-width="1.35903912" points="3.55271368e-15 26.2179402 7.43014603 30.4785937 21.6779308 22.2137688 21.7052521 4.15390953 14.4875352 -1.0658141e-14 0.133430021 8.26440135"></polygon>
                    <polygon id="Stroke-8" fill="#393A60" opacity="0.400000006" points="7.38167532 30.5624217 21.62946 22.2975967 21.7052521 4.15390953 7.38167532 12.4128435"></polygon>
                    <polygon id="Stroke-8" fill="#393A60" opacity="0.100000001" points="0.230461578 25.9440735 7.35435394 30.4785937 7.38167532 12.4187345 0.163958361 8.26482494"></polygon>
                </g>
                <g id="Group-7-Copy-9" transform="translate(15.475214, 0.000000)">
                    <polygon id="Fill-7" fill="#FFFFFF" points="3.55271368e-15 26.2179402 7.43014603 30.4785937 21.6779308 22.2137688 21.7052521 4.15390953 14.4875352 -1.0658141e-14 0.133430021 8.26440135"></polygon>
                    <polygon id="Stroke-8" stroke="#393A60" stroke-width="1.35903912" points="3.55271368e-15 26.2179402 7.43014603 30.4785937 21.6779308 22.2137688 21.7052521 4.15390953 14.4875352 -1.0658141e-14 0.133430021 8.26440135"></polygon>
                    <polygon id="Stroke-8" fill="#393A60" opacity="0.400000006" points="7.38167532 30.5624217 21.62946 22.2975967 21.7052521 4.15390953 7.38167532 12.4128435"></polygon>
                    <polygon id="Stroke-8" fill="#393A60" opacity="0.100000001" points="0.230461578 25.9440735 7.35435394 30.4785937 7.38167532 12.4187345 0.163958361 8.26482494"></polygon>
                </g>
            </g>
        </g>
    </g>
</svg>