
<svg width="170px" height="23px" viewBox="0 0 170 23" version="1.1" xmlns="http://www.w3.org/2000/svg" xmlns:xlink="http://www.w3.org/1999/xlink">
    <g id="Page-1" stroke="none" stroke-width="1" fill="none" fill-rule="evenodd">
        <g id="Group-12" fill="#E40323">
            <g id="berlin-logo-copy-2" transform="translate(88.158320, 1.418392)" fill-rule="nonzero">
                <path d="M68.544381,4.38759722 C68.1010108,4.38268766 67.7583493,4.7053333 67.7455087,5.13989156 C67.7324167,5.58074413 68.084142,5.93725311 68.5315407,5.93712721 C68.964714,5.93700132 69.3115298,5.59786459 69.31795,5.16859356 C69.3239925,4.74322498 68.9765474,4.39225499 68.544381,4.38759722 Z M70.1353275,11.8391634 C69.8741143,11.7958587 69.638204,11.7376994 69.3999017,11.7228449 C69.1874064,11.7095009 69.1388143,11.6129464 69.1437238,11.4227328 C69.153669,11.0454526 69.1463675,10.6677948 69.1463675,10.2902629 C69.1462416,9.21016156 69.1466192,8.13006024 69.1457382,7.04995888 C69.1456123,6.90531594 69.17444,6.73335576 68.9433133,6.74330074 C68.3675111,6.76810028 67.7917088,6.79592106 67.2160325,6.82361598 C66.9718138,6.83532335 67.0139855,7.01999803 67.0168809,7.17043173 C67.0197763,7.31708884 66.965142,7.49345505 67.2180469,7.51498153 C67.4739727,7.53675979 67.7271296,7.59353435 67.9969029,7.63759445 L67.9969029,10.9054674 C67.9969029,11.6599019 67.9991691,11.6738752 67.2626105,11.7912009 C66.8989259,11.8491085 67.0426876,12.1031463 67.0185174,12.2947447 C66.9900673,12.5193252 67.1485578,12.5142897 67.3031457,12.514038 C68.1735211,12.5126532 69.0437706,12.5139121 69.914146,12.5116461 C69.9842643,12.5113944 70.0542568,12.4917562 70.1353275,12.4795452 L70.1353275,11.8391634 Z M61.206112,7.5259336 C61.206112,7.36102304 61.1940269,7.19510538 61.2088815,7.03157953 C61.2297788,6.80473307 61.1307062,6.73813943 60.9173297,6.7492174 C60.4154225,6.77540165 59.9128857,6.79818702 59.4103493,6.80095651 C59.1670116,6.80234126 59.1179161,6.90770776 59.1141396,7.12712696 C59.1098594,7.37713643 59.1540455,7.53474562 59.4476115,7.51989108 C59.5498308,7.51460388 59.6541903,7.56521003 59.757291,7.56420293 C60.0159864,7.56168522 60.0867343,7.68203219 60.0844685,7.93267109 C60.0730127,9.17944539 60.079307,10.4264715 60.079307,11.6733717 C60.079307,12.534935 60.0791811,12.5275077 60.9442694,12.5185698 C61.1736334,12.5163039 61.2562148,12.4515985 61.2525639,12.2140518 C61.2403529,11.4075006 61.2220997,10.5993129 61.2584805,9.79414642 C61.2778671,9.36185412 61.3646025,8.92213454 61.4926285,8.5079698 C61.6352571,8.04647196 61.9907592,7.79684013 62.4921629,7.79482596 C62.6559405,7.79419653 62.8195922,7.7947001 63.0168555,7.7947001 C63.0168555,7.46387184 63.0303251,7.16161972 63.0062811,6.86213706 C63.0009937,6.79755759 62.8623932,6.69571586 62.7822042,6.69256869 C62.1116096,6.66651033 61.5700483,6.89260148 61.206112,7.5259336 Z M63.1918369,4.13406294 C63.0794207,4.73441297 63.0843302,4.74184024 63.6004627,4.82681326 C63.6418792,4.8336111 63.6835475,4.85136101 63.7239568,4.84871738 C64.0403082,4.82744269 64.0894034,4.99600395 64.0877669,5.27547074 C64.0765631,7.16237504 64.0818505,9.0495311 64.0819764,10.9364354 C64.0819764,11.6596501 64.0841163,11.6727423 63.3811691,11.7900679 C63.0148411,11.8511226 63.1749681,12.1123359 63.1479025,12.3000319 C63.1150464,12.5288925 63.2867547,12.5134085 63.4358038,12.5134085 C64.2744558,12.5135344 65.1131081,12.5144156 65.95176,12.5120238 C66.0405098,12.511772 66.1291334,12.4915044 66.2183865,12.4805523 L66.2183865,11.8436954 C66.009416,11.8064331 65.815174,11.7461337 65.6200506,11.7428607 C65.3214493,11.7378253 65.2707172,11.5901611 65.2724796,11.3269336 C65.2826765,9.79628649 65.2773891,8.26576527 65.2773891,6.73511815 C65.2773891,5.94883461 65.2780187,5.16255104 65.2765081,4.37639336 C65.276256,4.24333193 65.3040768,4.08912166 65.0870496,4.09428297 C64.4513256,4.10951518 63.8154758,4.12122258 63.1918369,4.13406294 Z M58.2826629,11.4019616 C57.7625023,11.4907112 57.262735,11.6085404 56.7564218,11.65537 C55.6342746,11.7593518 54.9723663,11.16089 54.8831131,10.0330779 C54.8595725,9.73372116 54.9322087,9.62999115 55.2490635,9.63603367 C56.2448215,9.65529422 57.2413344,9.63477481 58.2372183,9.64849639 C58.5030893,9.65214709 58.5822714,9.56025034 58.5766068,9.30520545 C58.5635145,8.72210179 58.5161812,8.14076053 58.2004595,7.63998626 C58.0273664,7.36530314 57.7939736,7.08885763 57.5208011,6.92369529 C56.2438143,6.15138507 54.45636,6.81832875 53.9586068,8.22283817 C53.6895887,8.98230803 53.6426334,9.76040898 53.7879057,10.5478255 C53.9913374,11.6493275 54.6127102,12.3211807 55.5947463,12.5222205 C56.2519968,12.6567926 56.9072333,12.6445817 57.5579378,12.4777828 C58.3671325,12.2703228 58.3798469,12.2505587 58.2826629,11.4019616 Z M71.7617738,12.5132826 C72.0801393,12.5132826 72.3612425,12.5010717 72.6407093,12.5170592 C72.8814032,12.5309067 72.9442204,12.4309533 72.9406957,12.203855 C72.9272258,11.3550061 72.9220642,10.5057796 72.9297433,9.65680486 C72.9364155,8.90690233 73.0960387,8.20773185 73.7728017,7.7613403 C74.1363601,7.52177937 74.5510284,7.41351748 74.9639341,7.63318842 C75.3405852,7.83372471 75.371679,8.21251552 75.3715531,8.59067686 C75.3711752,9.60758346 75.3718048,10.6244901 75.3719307,11.6413967 C75.3720565,12.5830235 75.371679,12.5786174 76.3309296,12.5166816 C76.5084288,12.505226 76.5641962,12.4416535 76.5635669,12.2698193 C76.5587833,10.928001 76.5796802,9.5856793 76.5541255,8.24423875 C76.5347389,7.22846515 75.9116035,6.66638444 74.8999842,6.68589675 C74.1466828,6.70049953 73.4767179,6.90972193 72.9668796,7.5386481 C72.9352824,7.34113306 72.9549207,7.15381478 72.926722,6.97404965 C72.9135042,6.89083905 72.8054941,6.75614109 72.7430544,6.75752584 C72.1088414,6.7713733 71.4753832,6.80850967 70.8414215,6.83922583 L70.8414215,7.49282562 C71.0462381,7.52203115 71.2315421,7.56521003 71.4178534,7.57100077 C71.6756678,7.57918335 71.7719704,7.66868826 71.7685715,7.94853269 C71.75271,9.33227091 71.761648,10.716135 71.7617738,12.0999991 L71.7617738,12.5132826 Z M47.7232246,5.31348828 L47.7232246,5.7105325 L47.7232246,10.8981661 C47.7232246,11.6393825 47.7259942,11.6552441 47.0031573,11.7835219 C46.6485365,11.8464649 46.7731637,12.0903059 46.7521406,12.2864362 C46.725327,12.5350609 46.9021966,12.5135344 47.0615684,12.5134085 C48.0047058,12.5131568 48.9479691,12.5204582 49.8909806,12.510639 C50.5156267,12.504093 51.1208863,12.3863896 51.6793163,12.0919424 C52.5121775,11.6529782 52.8608815,10.9332883 52.827144,10.0196081 C52.7960503,9.17315109 52.3453786,8.61761647 51.5662705,8.31372782 C51.515035,8.29383783 51.4683314,8.26224045 51.3989682,8.22510409 C51.5254836,8.15360089 51.6274512,8.10085467 51.724761,8.04017766 C52.4522557,7.58635887 52.7460737,6.9245765 52.6293773,6.0857985 C52.5191014,5.29309476 52.0526937,4.79232049 51.282146,4.61117062 C50.8780521,4.51612674 50.4559567,4.46186992 50.0410366,4.45494618 C49.0145627,4.43795159 47.9874592,4.4583451 46.9607335,4.46564648 C46.9014414,4.46602415 46.8422748,4.48377407 46.772534,4.49510379 C46.7640998,4.59102889 46.7630926,4.6741136 46.7487417,4.75493238 C46.6919671,5.07443088 46.8359805,5.21441604 47.1474224,5.23279539 C47.3319713,5.24374746 47.5147576,5.28327564 47.7232246,5.31348828 Z M34.1962774,19.8382076 C34.2048375,19.7344776 34.220699,19.6307476 34.220699,19.5270176 C34.2219579,16.3918284 34.2222097,13.2566391 34.2199439,10.1214499 C34.219818,10.0094114 34.1935079,9.8973729 34.1795345,9.78533441 L34.1728624,9.79288757 C34.319016,9.78420142 34.4650438,9.76808803 34.6110713,9.76796214 C37.5589423,9.76657739 40.5066874,9.76682917 43.4545584,9.76682917 L43.9058596,9.76682917 C43.9058596,9.13689593 43.910895,8.5339023 43.8951593,7.9314122 C43.8941521,7.88898867 43.7399418,7.81748543 43.6558502,7.81572304 C43.1105121,7.80514861 42.5649226,7.81018406 42.0193328,7.81018406 C40.8654625,7.81018406 39.711466,7.81018406 38.5574695,7.81018406 L38.1892534,7.81018406 L38.1892534,0.271378855 C38.2895845,0.263951585 38.3992311,0.248467615 38.5090036,0.248467615 C52.7236658,0.247334641 66.9382022,0.247334641 81.1528648,0.247964071 C81.236453,0.247964071 81.3199153,0.257783174 81.4035035,0.262944498 L81.4035035,16.1875155 C81.3102219,16.1787035 81.2170664,16.1622124 81.1239109,16.1622124 C68.8324081,16.1610794 56.5409053,16.1622124 44.2496542,16.1545334 C43.944129,16.1542816 43.8876061,16.2610329 43.8903757,16.5349607 C43.9014536,17.6359591 43.8916346,18.7370833 43.8894943,19.8382076 L42.0641482,19.8382076 C42.0649036,17.1864204 42.0630154,14.5345072 42.0711979,11.88272 C42.0719534,11.6416484 42.0125351,11.5467304 41.7569865,11.5576825 C41.3176448,11.5765654 40.8767921,11.562592 40.4365691,11.5629697 C39.9953388,11.5630956 39.9953388,11.5633474 39.9948354,12.0088577 C39.9921917,14.618599 39.9896739,17.2284663 39.9870305,19.8382076 L38.1616843,19.8382076 C38.1616843,17.2306063 38.1618102,14.6228792 38.1616843,12.015152 C38.1616843,11.9208634 38.1775458,11.8215394 38.1523688,11.7341746 C38.1341152,11.6703504 38.0612274,11.5755583 38.0111246,11.5746771 C37.3771633,11.5638509 36.7430757,11.5675016 36.099421,11.5675016 C36.0883427,11.6633008 36.0773907,11.7137811 36.0773907,11.7642613 C36.0791534,14.4555768 36.0819226,17.1468922 36.0845663,19.8382076 L34.1962774,19.8382076 Z" id="berlin-logo-shape"></path>
                <path d="M26.391387,19.8382579 C26.401332,19.703434 26.4199631,19.5686102 26.420089,19.4339122 C26.4217255,16.9494274 26.4213479,14.4650684 26.4213479,11.9807095 L26.4213479,11.5547115 L28.232343,11.5547115 C28.2381337,11.684374 28.2492117,11.8166801 28.2492117,11.9491121 C28.2503446,14.4439196 28.2495893,16.938853 28.2512259,19.4336605 C28.2513517,19.5684843 28.2697311,19.703434 28.2796761,19.8382579 L26.391387,19.8382579 Z" id="berlin-logo-shape"></path>
                <path d="M22.488923,19.8382579 C22.4943361,19.5873672 22.5045328,19.3364765 22.5046587,19.0855859 C22.5057917,16.708104 22.5052882,14.3307481 22.5052882,11.9533922 L22.5052882,11.5568515 L24.3522866,11.5568515 L24.3522866,11.9551546 C24.3522866,14.4476962 24.351909,16.9402377 24.3534196,19.4329051 C24.3535455,19.5679807 24.3689036,19.7031822 24.377212,19.8382579 L22.488923,19.8382579 Z" id="berlin-logo-shape"></path>
                <path d="M30.356794,19.8382579 C30.3521363,18.9166469 30.3448349,17.995036 30.3437019,17.0735509 C30.3415618,15.3659082 30.3430725,13.6583914 30.3430725,11.9508745 L30.3430725,11.5555927 L32.1671597,11.5555927 L32.1671597,11.9511263 C32.1671597,14.4442973 32.1669079,16.9375941 32.1677891,19.4307651 C32.167915,19.566596 32.1771047,19.7024269 32.1821401,19.8382579 L30.356794,19.8382579 Z" id="berlin-logo-shape"></path>
                <path d="M3.47585385,13.8479252 C3.76841275,13.8800261 4.00646308,13.9018044 4.24325451,13.9328982 C4.93650837,14.0239137 5.51621311,13.781961 5.94926073,13.2623038 C6.26737449,12.8804918 6.55263201,12.4561303 6.77293242,12.0113753 C7.1706061,11.2084748 7.42074144,10.3540869 7.39078059,9.44254687 C7.36258213,8.5819906 6.79873903,8.14264867 6.00565762,8.44578201 C5.48914764,8.64317116 5.02525796,8.98570681 4.55457043,9.28921778 C4.45084042,9.3561891 4.3876457,9.52626101 4.35743307,9.66058132 C4.16268752,10.5279354 3.98040468,11.3981849 3.79749242,12.2681826 C3.6902376,12.7782724 3.58927709,13.2896211 3.47585385,13.8479252 M4.80848236,6.91475725 C5.31832042,6.57851593 5.74582906,6.23232961 6.22746866,5.99704878 C6.72006031,5.75635488 7.25318728,5.5483913 7.79059434,5.46077468 C8.88189952,5.28277197 9.74950538,5.89545883 10.1358493,7.01609544 C10.5225709,8.13786501 10.5114929,9.28846246 10.3148591,10.4341504 C10.0848655,11.7745838 9.57288742,13.0097766 8.73675302,14.0935287 C7.44239384,15.7710847 5.75149394,16.5182177 3.62376982,16.3102541 C2.49960841,16.2003557 1.36663498,16.1803399 0.237689902,16.1190334 C0.176635223,16.1156345 0.116084088,16.1041789 0.0234320383,16.0924715 C0.855160421,11.6984228 1.6842452,7.31885113 2.52352674,2.88552609 C1.99442815,2.88552609 1.51530627,2.87633641 1.03681383,2.88968032 C0.815758123,2.89584873 0.715678805,2.84750853 0.721343672,2.59787672 C0.736827642,1.91658203 0.728519168,1.2347838 0.725246133,0.553111452 C0.724616706,0.391222136 0.733176948,0.270875181 0.952596135,0.271882269 C2.45202353,0.279183653 3.9515768,0.277169478 5.45100421,0.279561311 C5.4902806,0.279687197 5.52955703,0.296555912 5.54655163,0.30033249 C5.86743488,2.5631322 5.21710812,4.70759912 4.80848236,6.91475725" id="berlin-logo-shape"></path>
                <path d="M14.6590443,10.2887521 C15.1429499,10.2629455 15.5771305,10.2864862 15.9917987,10.2073039 C16.6640296,10.0789003 17.1507047,9.68034541 17.3566541,9.00622622 C17.4548451,8.68471354 17.4550969,8.34884984 17.1849456,8.09946979 C16.9304043,7.86431488 16.6156894,7.86217482 16.2995899,7.96917785 C16.2011471,8.00253762 16.100816,8.04105873 16.0144582,8.09732976 C15.2490717,8.59621571 14.8529087,9.32698357 14.6590443,10.2887521 M18.780424,13.6320308 C18.780424,14.2948203 18.7831935,14.9412446 18.7752627,15.5876688 C18.7745074,15.6412963 18.7100538,15.7280317 18.6593217,15.7421309 C17.3030266,16.1167675 15.9333877,16.4970689 14.5149049,16.2649352 C12.8742335,15.9962946 11.8898055,14.958491 11.4707312,13.3756012 C10.8731507,11.1180887 11.7551075,7.63973438 14.3050531,6.19229786 C15.8208456,5.33199338 17.4279055,5.11408482 19.0673181,5.84598565 C19.8566229,6.19846627 20.3091828,6.86125575 20.4773664,7.70192203 C20.885111,9.74114832 19.794687,11.3499706 17.7355707,11.7900678 C16.750765,12.000675 15.7552591,11.9601397 14.7605084,11.964168 C14.3142427,11.9659305 14.296241,11.9855687 14.3648489,12.4247847 C14.521451,13.4264591 15.1390474,13.9876586 16.1553246,13.937556 C16.9574697,13.8980278 17.7543278,13.7528813 18.5537034,13.6548162 C18.6142546,13.6473889 18.6750575,13.6424794 18.780424,13.6320308" id="berlin-logo-shape"></path>
                <path d="M34.179484,9.78533428 C34.0559899,9.7743822 33.9324958,9.7537369 33.8090018,9.753611 C30.1815986,9.75197451 26.5540694,9.75222626 22.9265403,9.75235215 L22.5101096,9.75235215 C22.5101096,9.14369364 22.5062071,8.56058998 22.517411,7.97786401 C22.5184181,7.92902025 22.6152243,7.86393721 22.6799297,7.83951534 C22.7445092,7.81534526 22.8248244,7.83221397 22.8982159,7.83221397 C26.5466421,7.83208808 30.1951943,7.83196218 33.8436205,7.83183629 L34.1735676,7.83183629 C34.1735676,8.50482253 34.1735676,9.14835144 34.1731897,9.7923839 C34.1728121,9.79288743 34.179484,9.78533428 34.179484,9.78533428" id="berlin-logo-shape"></path>
                <path d="M33.2238336,6.70469139 C32.4620978,6.70431375 31.8676644,6.1083697 31.8721964,5.34978105 C31.8767282,4.59773846 32.4892892,3.99726257 33.243346,4.00557104 C33.9830518,4.01375363 34.5724498,4.60994942 34.5757228,5.35355765 C34.5789958,6.11529343 33.9889685,6.70506907 33.2238336,6.70469139" id="berlin-logo-shape"></path>
                <path d="M48.9396102,10.1452296 C48.9394843,9.76832709 48.9297912,9.39117282 48.9474151,9.01515154 C48.951066,8.93483629 49.060083,8.78843097 49.1110668,8.79245931 C49.6598037,8.83601584 50.2194924,8.85011505 50.7502276,8.97952581 C51.2921665,9.11170603 51.5595484,9.56426596 51.5788088,10.1429636 C51.5970623,10.6952252 51.3415138,11.1088864 50.8340678,11.3410201 C50.291751,11.5890154 49.7138088,11.5759233 49.1391393,11.5458365 C49.0686434,11.5423117 48.9533318,11.3931368 48.948674,11.3066532 C48.9277768,10.9204352 48.9396102,10.5324547 48.9396102,10.1452296" id="berlin-logo-shape"></path>
                <path d="M48.9407053,7.85333763 C48.9407053,7.08430044 48.9345368,6.33188021 48.9517835,5.58008936 C48.9532941,5.51513225 49.1091409,5.40170902 49.1953725,5.39969485 C49.5925429,5.39025337 49.9914752,5.39780653 50.3876384,5.42676031 C50.9164853,5.46553317 51.2988006,5.78641642 51.4136088,6.25294971 C51.5354664,6.74868852 51.3037105,7.33179217 50.8790969,7.5974115 C50.4552392,7.86252729 49.6693334,7.97204807 48.9407053,7.85333763" id="berlin-logo-shape"></path>
                <path d="M54.9868054,8.74818522 C55.0635959,7.89946225 55.6017584,7.40296811 56.3482621,7.44425868 C56.9493673,7.47749256 57.413383,7.97310551 57.386947,8.57118959 C57.3843033,8.63224428 57.2881265,8.73975085 57.2341214,8.74050617 C56.49152,8.75183589 55.7490448,8.74818522 54.9868054,8.74818522" id="berlin-logo-shape"></path>
            </g>
            <path d="M2.600208,2.314226 C2.600208,2.6736518 2.55715243,2.98252871 2.47104,3.240866 C2.38492757,3.49920329 2.26886473,3.71073718 2.122848,3.875474 C1.97683127,4.04021082 1.80648097,4.16188961 1.611792,4.240514 C1.41710303,4.31913839 1.21118509,4.35845 0.994032,4.35845 L0,4.35845 L0,0.42725 L0.994032,0.42725 C1.21118509,0.42725 1.41710303,0.454393729 1.611792,0.508682 C1.80648097,0.562970271 1.97683127,0.660313298 2.122848,0.800714 C2.26886473,0.941114702 2.38492757,1.13299278 2.47104,1.376354 C2.55715243,1.61971522 2.600208,1.93233609 2.600208,2.314226 Z M0.426816,0.797906 L0.426816,3.987794 L0.95472,3.987794 C1.12694486,3.987794 1.28606327,3.95503433 1.43208,3.889514 C1.57809673,3.82399367 1.70539146,3.72477866 1.813968,3.591866 C1.92254454,3.45895334 2.00771969,3.29328299 2.069496,3.09485 C2.13127231,2.89641701 2.16216,2.66241935 2.16216,2.39285 C2.16216,2.07460841 2.13127231,1.81159504 2.069496,1.603802 C2.00771969,1.39600896 1.92254454,1.23314659 1.813968,1.11521 C1.70539146,0.99727341 1.57716074,0.914906234 1.429272,0.868106 C1.28138326,0.821305766 1.12132886,0.797906 0.949104,0.797906 L0.426816,0.797906 Z M5.234112,4.229282 C5.14799957,4.26297817 5.05627249,4.29292987 4.958928,4.319138 C4.87281557,4.34160211 4.77360056,4.36125792 4.66128,4.378106 C4.54895944,4.39495408 4.42915264,4.403378 4.301856,4.403378 C3.93494217,4.403378 3.66444087,4.27982724 3.490344,4.032722 C3.31624713,3.78561676 3.2292,3.44304419 3.2292,3.004994 C3.2292,2.75414475 3.25821571,2.53418695 3.316248,2.345114 C3.37428029,2.15604105 3.45571148,1.99785864 3.560544,1.870562 C3.66537652,1.74326536 3.78986328,1.64873031 3.934008,1.586954 C4.07815272,1.52517769 4.23633514,1.49429 4.40856,1.49429 C4.67812935,1.49429 4.89153521,1.55980934 5.048784,1.69085 C5.20603279,1.82189066 5.284656,2.01657671 5.284656,2.274914 C5.284656,2.45837092 5.25189633,2.60719343 5.186376,2.721386 C5.12085567,2.83557857 5.03661651,2.92543367 4.933656,2.990954 C4.83069549,3.05647433 4.71369666,3.10046589 4.582656,3.12293 C4.45161534,3.14539411 4.32057666,3.156626 4.189536,3.156626 L3.639168,3.156626 C3.65040006,3.28766666 3.66911987,3.40840945 3.695328,3.518858 C3.72153613,3.62930655 3.76271972,3.72384161 3.81888,3.802466 C3.87504028,3.88109039 3.94804755,3.94286578 4.037904,3.987794 C4.12776045,4.03272222 4.24007933,4.055186 4.374864,4.055186 C4.47220849,4.055186 4.5704875,4.04582609 4.669704,4.027106 C4.7689205,4.00838591 4.86158357,3.98779411 4.947696,3.96533 C5.04504049,3.93912187 5.14051153,3.90729819 5.234112,3.869858 L5.234112,4.229282 Z M4.189536,2.825282 C4.42540918,2.825282 4.59950344,2.77848247 4.711824,2.684882 C4.82414456,2.59128153 4.880304,2.46585879 4.880304,2.30861 C4.880304,2.15884925 4.8400564,2.04278641 4.75956,1.960418 C4.6790636,1.87804959 4.56206477,1.836866 4.40856,1.836866 C4.28500738,1.836866 4.17549648,1.86307374 4.080024,1.91549 C3.98455152,1.96790626 3.90499232,2.03904155 3.841344,2.128898 C3.77769568,2.21875445 3.72808818,2.3235854 3.69252,2.443394 C3.65695182,2.5632026 3.63729602,2.69049733 3.633552,2.825282 L4.189536,2.825282 Z M7.49736,1.870562 C7.3775514,1.85932994 7.25961658,1.86588188 7.143552,1.890218 C7.02748742,1.91455412 6.92265647,1.94544181 6.829056,1.982882 C6.72047946,2.02406621 6.61564851,2.07273772 6.51456,2.128898 L6.51456,4.35845 L6.110208,4.35845 L6.110208,1.55045 L6.419088,1.55045 L6.475248,1.83125 C6.57633651,1.76385766 6.68303944,1.70582624 6.79536,1.657154 C6.89270449,1.61596979 7.0012794,1.57759418 7.121088,1.542026 C7.2408966,1.50645782 7.36631934,1.49241796 7.49736,1.499906 L7.49736,1.870562 Z M10.883808,1.870562 C10.7639994,1.85932994 10.6460646,1.86588188 10.53,1.890218 C10.4139354,1.91455412 10.3091045,1.94544181 10.215504,1.982882 C10.1069275,2.02406621 10.0020965,2.07273772 9.901008,2.128898 L9.901008,4.35845 L9.496656,4.35845 L9.496656,1.55045 L9.805536,1.55045 L9.861696,1.83125 C9.96278451,1.76385766 10.0694874,1.70582624 10.181808,1.657154 C10.2791525,1.61596979 10.3877274,1.57759418 10.507536,1.542026 C10.6273446,1.50645782 10.7527673,1.49241796 10.883808,1.499906 L10.883808,1.870562 Z M13.343616,4.229282 C13.2575036,4.26297817 13.1657765,4.29292987 13.068432,4.319138 C12.9823196,4.34160211 12.8831046,4.36125792 12.770784,4.378106 C12.6584634,4.39495408 12.5386566,4.403378 12.41136,4.403378 C12.0444462,4.403378 11.7739449,4.27982724 11.599848,4.032722 C11.4257511,3.78561676 11.338704,3.44304419 11.338704,3.004994 C11.338704,2.75414475 11.3677197,2.53418695 11.425752,2.345114 C11.4837843,2.15604105 11.5652155,1.99785864 11.670048,1.870562 C11.7748805,1.74326536 11.8993673,1.64873031 12.043512,1.586954 C12.1876567,1.52517769 12.3458391,1.49429 12.518064,1.49429 C12.7876333,1.49429 13.0010392,1.55980934 13.158288,1.69085 C13.3155368,1.82189066 13.39416,2.01657671 13.39416,2.274914 C13.39416,2.45837092 13.3614003,2.60719343 13.29588,2.721386 C13.2303597,2.83557857 13.1461205,2.92543367 13.04316,2.990954 C12.9401995,3.05647433 12.8232007,3.10046589 12.69216,3.12293 C12.5611193,3.14539411 12.4300807,3.156626 12.29904,3.156626 L11.748672,3.156626 C11.7599041,3.28766666 11.7786239,3.40840945 11.804832,3.518858 C11.8310401,3.62930655 11.8722237,3.72384161 11.928384,3.802466 C11.9845443,3.88109039 12.0575516,3.94286578 12.147408,3.987794 C12.2372644,4.03272222 12.3495833,4.055186 12.484368,4.055186 C12.5817125,4.055186 12.6799915,4.04582609 12.779208,4.027106 C12.8784245,4.00838591 12.9710876,3.98779411 13.0572,3.96533 C13.1545445,3.93912187 13.2500155,3.90729819 13.343616,3.869858 L13.343616,4.229282 Z M12.29904,2.825282 C12.5349132,2.825282 12.7090074,2.77848247 12.821328,2.684882 C12.9336486,2.59128153 12.989808,2.46585879 12.989808,2.30861 C12.989808,2.15884925 12.9495604,2.04278641 12.869064,1.960418 C12.7885676,1.87804959 12.6715688,1.836866 12.518064,1.836866 C12.3945114,1.836866 12.2850005,1.86307374 12.189528,1.91549 C12.0940555,1.96790626 12.0144963,2.03904155 11.950848,2.128898 C11.8871997,2.21875445 11.8375922,2.3235854 11.802024,2.443394 C11.7664558,2.5632026 11.7468,2.69049733 11.743056,2.825282 L12.29904,2.825282 Z M14.472432,2.555714 C14.472432,2.80656325 14.5388873,2.99282539 14.6718,3.114506 C14.8047127,3.23618661 14.968511,3.297026 15.1632,3.297026 C15.357889,3.297026 15.5226233,3.23618661 15.657408,3.114506 C15.7921927,2.99282539 15.859584,2.80656325 15.859584,2.555714 L15.859584,2.162594 C15.8071677,2.09894568 15.7453924,2.04278624 15.674256,1.994114 C15.6106077,1.95292979 15.5319845,1.91455418 15.438384,1.878986 C15.3447835,1.84341782 15.2343366,1.825634 15.10704,1.825634 C15.0321596,1.825634 14.9563444,1.83967386 14.879592,1.867754 C14.8028396,1.89583414 14.7345123,1.9398257 14.674608,1.99973 C14.6147037,2.0596343 14.5660322,2.13544954 14.528592,2.227178 C14.4911518,2.31890646 14.472432,2.42841736 14.472432,2.555714 Z M14.556672,4.38653 C14.5117438,4.42022617 14.4705602,4.45766579 14.43312,4.49885 C14.4031679,4.53629019 14.3750881,4.58215373 14.34888,4.636442 C14.3226719,4.69073027 14.309568,4.74969768 14.309568,4.813346 C14.309568,4.89571441 14.3310958,4.96404173 14.374152,5.01833 C14.4172082,5.07261827 14.4771116,5.11660983 14.553864,5.150306 C14.6306164,5.18400217 14.7223435,5.20833793 14.829048,5.223314 C14.9357525,5.23829007 15.0527514,5.245778 15.180048,5.245778 C15.3073446,5.245778 15.4262154,5.23641809 15.536664,5.217698 C15.6471126,5.19897791 15.7435196,5.17089819 15.825888,5.133458 C15.9082564,5.09601781 15.9728398,5.04828229 16.01964,4.99025 C16.0664402,4.93221771 16.08984,4.86389039 16.08984,4.785266 C16.08984,4.70664161 16.0739282,4.64299424 16.042104,4.594322 C16.0102798,4.54564976 15.9681603,4.50821013 15.915744,4.482002 C15.8633277,4.45579387 15.8015524,4.43801005 15.730416,4.42865 C15.6592796,4.41928995 15.5844004,4.41461 15.505776,4.41461 L14.79816,4.41461 C14.7644638,4.41461 14.7335761,4.41367401 14.705496,4.411802 C14.6774159,4.40992999 14.6521441,4.40712202 14.62968,4.403378 C14.6034719,4.39963398 14.5791361,4.39401804 14.556672,4.38653 Z M13.92768,4.858274 C13.92768,4.76092951 13.9473358,4.67481837 13.986648,4.599938 C14.0259602,4.52505763 14.0699518,4.46141026 14.118624,4.408994 C14.1747843,4.3490897 14.2384316,4.30041819 14.309568,4.262978 C14.2721278,4.24425791 14.2403041,4.21617819 14.214096,4.178738 C14.1916319,4.14878585 14.1710401,4.11041023 14.15232,4.06361 C14.1335999,4.01680977 14.12424,3.96158632 14.12424,3.897938 C14.12424,3.79684949 14.1457678,3.71448232 14.188824,3.650834 C14.2318802,3.58718568 14.2796157,3.53851417 14.332032,3.504818 C14.3919363,3.46363379 14.4611996,3.43555407 14.539824,3.420578 C14.4499676,3.37939379 14.3713443,3.32136237 14.303952,3.246482 C14.2440477,3.18283368 14.1906962,3.09765853 14.143896,2.990954 C14.0970958,2.88424947 14.073696,2.74853082 14.073696,2.583794 C14.073696,2.40033708 14.1036477,2.24028268 14.163552,2.103626 C14.2234563,1.96696932 14.2992715,1.85371445 14.391,1.763858 C14.4827285,1.67400155 14.5856874,1.60754622 14.69988,1.56449 C14.8140726,1.52143378 14.9273274,1.499906 15.039648,1.499906 C15.1744327,1.499906 15.2942395,1.51768982 15.399072,1.553258 C15.5039045,1.58882618 15.5937596,1.62720179 15.66864,1.668386 C15.7547524,1.71705824 15.8296317,1.7713457 15.89328,1.83125 L15.94944,1.55045 L16.252704,1.55045 L16.252704,2.522018 C16.252704,2.70921894 16.2227523,2.87114532 16.162848,3.007802 C16.1029437,3.14445868 16.0233845,3.25677756 15.924168,3.344762 C15.8249515,3.43274644 15.7098247,3.49826578 15.578784,3.541322 C15.4477433,3.58437822 15.3092167,3.605906 15.1632,3.605906 L14.916096,3.605906 C14.6427826,3.605906 14.506128,3.68265723 14.506128,3.836162 C14.506128,3.91104237 14.5360797,3.97094578 14.595984,4.015874 C14.6558883,4.06080222 14.7588473,4.083266 14.904864,4.083266 L15.606864,4.083266 C15.8914094,4.083266 16.1066873,4.13568148 16.252704,4.240514 C16.3987207,4.34534652 16.471728,4.51382484 16.471728,4.745954 C16.471728,4.98182718 16.3584731,5.17183328 16.13196,5.315978 C15.9054469,5.46012272 15.5750422,5.532194 15.140736,5.532194 C14.7101738,5.532194 14.4003609,5.47603456 14.211288,5.363714 C14.0222151,5.25139344 13.92768,5.08291512 13.92768,4.858274 Z M17.516304,4.35845 L17.111952,4.35845 L17.111952,1.55045 L17.516304,1.55045 L17.516304,4.35845 Z M16.994016,0.657506 C16.994016,0.563905532 17.0258397,0.485282318 17.089488,0.421634 C17.1531363,0.357985682 17.2317595,0.326162 17.32536,0.326162 C17.4189605,0.326162 17.4975837,0.357985682 17.561232,0.421634 C17.6248803,0.485282318 17.656704,0.563905532 17.656704,0.657506 C17.656704,0.751106468 17.6248803,0.829729682 17.561232,0.893378 C17.4975837,0.957026318 17.4189605,0.98885 17.32536,0.98885 C17.2317595,0.98885 17.1531363,0.957026318 17.089488,0.893378 C17.0258397,0.829729682 16.994016,0.751106468 16.994016,0.657506 Z M20.290608,4.229282 C20.2044956,4.26297817 20.1127685,4.29292987 20.015424,4.319138 C19.9293116,4.34160211 19.8300966,4.36125792 19.717776,4.378106 C19.6054554,4.39495408 19.4856486,4.403378 19.358352,4.403378 C18.9914382,4.403378 18.7209369,4.27982724 18.54684,4.032722 C18.3727431,3.78561676 18.285696,3.44304419 18.285696,3.004994 C18.285696,2.75414475 18.3147117,2.53418695 18.372744,2.345114 C18.4307763,2.15604105 18.5122075,1.99785864 18.61704,1.870562 C18.7218725,1.74326536 18.8463593,1.64873031 18.990504,1.586954 C19.1346487,1.52517769 19.2928311,1.49429 19.465056,1.49429 C19.7346253,1.49429 19.9480312,1.55980934 20.10528,1.69085 C20.2625288,1.82189066 20.341152,2.01657671 20.341152,2.274914 C20.341152,2.45837092 20.3083923,2.60719343 20.242872,2.721386 C20.1773517,2.83557857 20.0931125,2.92543367 19.990152,2.990954 C19.8871915,3.05647433 19.7701927,3.10046589 19.639152,3.12293 C19.5081113,3.14539411 19.3770727,3.156626 19.246032,3.156626 L18.695664,3.156626 C18.7068961,3.28766666 18.7256159,3.40840945 18.751824,3.518858 C18.7780321,3.62930655 18.8192157,3.72384161 18.875376,3.802466 C18.9315363,3.88109039 19.0045436,3.94286578 19.0944,3.987794 C19.1842564,4.03272222 19.2965753,4.055186 19.43136,4.055186 C19.5287045,4.055186 19.6269835,4.04582609 19.7262,4.027106 C19.8254165,4.00838591 19.9180796,3.98779411 20.004192,3.96533 C20.1015365,3.93912187 20.1970075,3.90729819 20.290608,3.869858 L20.290608,4.229282 Z M19.246032,2.825282 C19.4819052,2.825282 19.6559994,2.77848247 19.76832,2.684882 C19.8806406,2.59128153 19.9368,2.46585879 19.9368,2.30861 C19.9368,2.15884925 19.8965524,2.04278641 19.816056,1.960418 C19.7355596,1.87804959 19.6185608,1.836866 19.465056,1.836866 C19.3415034,1.836866 19.2319925,1.86307374 19.13652,1.91549 C19.0410475,1.96790626 18.9614883,2.03904155 18.89784,2.128898 C18.8341917,2.21875445 18.7845842,2.3235854 18.749016,2.443394 C18.7134478,2.5632026 18.693792,2.69049733 18.690048,2.825282 L19.246032,2.825282 Z M22.553856,1.870562 C22.4340474,1.85932994 22.3161126,1.86588188 22.200048,1.890218 C22.0839834,1.91455412 21.9791525,1.94544181 21.885552,1.982882 C21.7769755,2.02406621 21.6721445,2.07273772 21.571056,2.128898 L21.571056,4.35845 L21.166704,4.35845 L21.166704,1.55045 L21.475584,1.55045 L21.531744,1.83125 C21.6328325,1.76385766 21.7395354,1.70582624 21.851856,1.657154 C21.9492005,1.61596979 22.0577754,1.57759418 22.177584,1.542026 C22.2973926,1.50645782 22.4228153,1.49241796 22.553856,1.499906 L22.553856,1.870562 Z M25.013664,4.229282 C24.9275516,4.26297817 24.8358245,4.29292987 24.73848,4.319138 C24.6523676,4.34160211 24.5531526,4.36125792 24.440832,4.378106 C24.3285114,4.39495408 24.2087046,4.403378 24.081408,4.403378 C23.7144942,4.403378 23.4439929,4.27982724 23.269896,4.032722 C23.0957991,3.78561676 23.008752,3.44304419 23.008752,3.004994 C23.008752,2.75414475 23.0377677,2.53418695 23.0958,2.345114 C23.1538323,2.15604105 23.2352635,1.99785864 23.340096,1.870562 C23.4449285,1.74326536 23.5694153,1.64873031 23.71356,1.586954 C23.8577047,1.52517769 24.0158871,1.49429 24.188112,1.49429 C24.4576813,1.49429 24.6710872,1.55980934 24.828336,1.69085 C24.9855848,1.82189066 25.064208,2.01657671 25.064208,2.274914 C25.064208,2.45837092 25.0314483,2.60719343 24.965928,2.721386 C24.9004077,2.83557857 24.8161685,2.92543367 24.713208,2.990954 C24.6102475,3.05647433 24.4932487,3.10046589 24.362208,3.12293 C24.2311673,3.14539411 24.1001287,3.156626 23.969088,3.156626 L23.41872,3.156626 C23.4299521,3.28766666 23.4486719,3.40840945 23.47488,3.518858 C23.5010881,3.62930655 23.5422717,3.72384161 23.598432,3.802466 C23.6545923,3.88109039 23.7275996,3.94286578 23.817456,3.987794 C23.9073124,4.03272222 24.0196313,4.055186 24.154416,4.055186 C24.2517605,4.055186 24.3500395,4.04582609 24.449256,4.027106 C24.5484725,4.00838591 24.6411356,3.98779411 24.727248,3.96533 C24.8245925,3.93912187 24.9200635,3.90729819 25.013664,3.869858 L25.013664,4.229282 Z M23.969088,2.825282 C24.2049612,2.825282 24.3790554,2.77848247 24.491376,2.684882 C24.6036966,2.59128153 24.659856,2.46585879 24.659856,2.30861 C24.659856,2.15884925 24.6196084,2.04278641 24.539112,1.960418 C24.4586156,1.87804959 24.3416168,1.836866 24.188112,1.836866 C24.0645594,1.836866 23.9550485,1.86307374 23.859576,1.91549 C23.7641035,1.96790626 23.6845443,2.03904155 23.620896,2.128898 C23.5572477,2.21875445 23.5076402,2.3235854 23.472072,2.443394 C23.4365038,2.5632026 23.416848,2.69049733 23.413104,2.825282 L23.969088,2.825282 Z M27.585792,4.35845 L27.585792,2.415314 C27.585792,2.32545755 27.5801761,2.24496236 27.568944,2.173826 C27.5577119,2.10268964 27.5361842,2.04278624 27.50436,1.994114 C27.4725358,1.94544176 27.4285443,1.90800213 27.372384,1.881794 C27.3162237,1.85558587 27.2413445,1.842482 27.147744,1.842482 C27.0503995,1.842482 26.9511845,1.85745785 26.850096,1.88741 C26.7490075,1.91736215 26.6572804,1.95105781 26.574912,1.988498 C26.4775675,2.02968221 26.3839684,2.07648174 26.294112,2.128898 L26.294112,4.35845 L25.88976,4.35845 L25.88976,1.55045 L26.19864,1.55045 L26.2548,1.83125 C26.3558885,1.7713457 26.4607195,1.71705824 26.569296,1.668386 C26.6628965,1.62720179 26.7677274,1.58882618 26.883792,1.553258 C26.9998566,1.51768982 27.1159194,1.499906 27.231984,1.499906 C27.3929768,1.499906 27.5230795,1.52424176 27.622296,1.572914 C27.7215125,1.62158624 27.7982637,1.68429762 27.852552,1.76105 C27.9068403,1.83780238 27.9433439,1.92204154 27.962064,2.01377 C27.9807841,2.10549846 27.990144,2.19628955 27.990144,2.286146 L27.990144,4.35845 L27.585792,4.35845 Z M30.584736,4.35845 L30.528576,4.07765 C30.4312315,4.14129832 30.3338885,4.19745776 30.236544,4.24613 C30.1504316,4.28731421 30.0577685,4.32475383 29.958552,4.35845 C29.8593355,4.39214617 29.7629285,4.408994 29.669328,4.408994 C29.3772945,4.408994 29.1507848,4.29761111 28.989792,4.074842 C28.8287992,3.85207289 28.748304,3.49733243 28.748304,3.01061 C28.748304,2.73355261 28.7782557,2.49955495 28.83816,2.30861 C28.8980643,2.11766505 28.9738795,1.9622906 29.065608,1.842482 C29.1573365,1.7226734 29.2593594,1.63562627 29.37168,1.581338 C29.4840006,1.52704973 29.5944475,1.499906 29.703024,1.499906 C29.8303206,1.499906 29.9435755,1.51675383 30.042792,1.55045 C30.1420085,1.58414617 30.2271836,1.62158579 30.29832,1.66277 C30.3806884,1.71144224 30.4536957,1.7657297 30.517344,1.825634 L30.489264,1.49429 L30.489264,0.09029 L30.893616,0.09029 L30.893616,4.35845 L30.584736,4.35845 Z M30.489264,2.162594 C30.4405918,2.1026897 30.3825603,2.05027422 30.315168,2.005346 C30.2552637,1.96416179 30.1803844,1.92765816 30.090528,1.895834 C30.0006716,1.86400984 29.8958406,1.848098 29.776032,1.848098 C29.5963191,1.848098 29.4493686,1.94731301 29.335176,2.145746 C29.2209834,2.34417899 29.163888,2.6137443 29.163888,2.95445 C29.163888,3.12293084 29.1741839,3.27456133 29.194776,3.409346 C29.2153681,3.54413067 29.2481278,3.66019351 29.293056,3.757538 C29.3379842,3.85488249 29.3978876,3.92976174 29.472768,3.982178 C29.5476484,4.03459426 29.6393755,4.060802 29.747952,4.060802 C29.8153443,4.060802 29.8920956,4.04676214 29.978208,4.018682 C30.0643204,3.99060186 30.1448156,3.95784219 30.219696,3.920402 C30.3095524,3.87921779 30.3994076,3.83241826 30.489264,3.780002 L30.489264,2.162594 Z M33.66792,4.229282 C33.5818076,4.26297817 33.4900805,4.29292987 33.392736,4.319138 C33.3066236,4.34160211 33.2074086,4.36125792 33.095088,4.378106 C32.9827674,4.39495408 32.8629606,4.403378 32.735664,4.403378 C32.3687502,4.403378 32.0982489,4.27982724 31.924152,4.032722 C31.7500551,3.78561676 31.663008,3.44304419 31.663008,3.004994 C31.663008,2.75414475 31.6920237,2.53418695 31.750056,2.345114 C31.8080883,2.15604105 31.8895195,1.99785864 31.994352,1.870562 C32.0991845,1.74326536 32.2236713,1.64873031 32.367816,1.586954 C32.5119607,1.52517769 32.6701431,1.49429 32.842368,1.49429 C33.1119373,1.49429 33.3253432,1.55980934 33.482592,1.69085 C33.6398408,1.82189066 33.718464,2.01657671 33.718464,2.274914 C33.718464,2.45837092 33.6857043,2.60719343 33.620184,2.721386 C33.5546637,2.83557857 33.4704245,2.92543367 33.367464,2.990954 C33.2645035,3.05647433 33.1475047,3.10046589 33.016464,3.12293 C32.8854233,3.14539411 32.7543847,3.156626 32.623344,3.156626 L32.072976,3.156626 C32.0842081,3.28766666 32.1029279,3.40840945 32.129136,3.518858 C32.1553441,3.62930655 32.1965277,3.72384161 32.252688,3.802466 C32.3088483,3.88109039 32.3818556,3.94286578 32.471712,3.987794 C32.5615684,4.03272222 32.6738873,4.055186 32.808672,4.055186 C32.9060165,4.055186 33.0042955,4.04582609 33.103512,4.027106 C33.2027285,4.00838591 33.2953916,3.98779411 33.381504,3.96533 C33.4788485,3.93912187 33.5743195,3.90729819 33.66792,3.869858 L33.66792,4.229282 Z M32.623344,2.825282 C32.8592172,2.825282 33.0333114,2.77848247 33.145632,2.684882 C33.2579526,2.59128153 33.314112,2.46585879 33.314112,2.30861 C33.314112,2.15884925 33.2738644,2.04278641 33.193368,1.960418 C33.1128716,1.87804959 32.9958728,1.836866 32.842368,1.836866 C32.7188154,1.836866 32.6093045,1.86307374 32.513832,1.91549 C32.4183595,1.96790626 32.3388003,2.03904155 32.275152,2.128898 C32.2115037,2.21875445 32.1618962,2.3235854 32.126328,2.443394 C32.0907598,2.5632026 32.071104,2.69049733 32.06736,2.825282 L32.623344,2.825282 Z M37.357632,2.286146 C37.4587205,2.30861011 37.5569995,2.34043379 37.652472,2.381618 C37.7479445,2.42280221 37.8321836,2.47989763 37.905192,2.552906 C37.9782004,2.62591437 38.0371678,2.71951343 38.082096,2.833706 C38.1270242,2.94789857 38.149488,3.08923316 38.149488,3.257714 C38.149488,3.44865895 38.1139204,3.61339331 38.042784,3.751922 C37.9716476,3.89045069 37.8761766,4.00464155 37.756368,4.094498 C37.6365594,4.18435445 37.4961608,4.25080978 37.335168,4.293866 C37.1741752,4.33692222 37.0038249,4.35845 36.824112,4.35845 L35.919936,4.35845 L35.919936,0.42725 L36.767952,0.42725 C36.9177127,0.42725 37.0646633,0.440353869 37.208808,0.466562 C37.3529527,0.492770131 37.4821194,0.541441644 37.596312,0.612578 C37.7105046,0.683714356 37.8022317,0.780121392 37.871496,0.901802 C37.9407603,1.02348261 37.975392,1.17979305 37.975392,1.370738 C37.975392,1.61409922 37.9182966,1.81065725 37.804104,1.960418 C37.6899114,2.11017875 37.5410889,2.21688168 37.357632,2.28053 L37.357632,2.286146 Z M36.346752,0.775442 L36.346752,2.151362 L36.72864,2.151362 C36.8372165,2.151362 36.9411115,2.13732214 37.040328,2.109242 C37.1395445,2.08116186 37.2275276,2.03904228 37.30428,1.982882 C37.3810324,1.92672172 37.4418718,1.85558643 37.4868,1.769474 C37.5317282,1.68336157 37.554192,1.58414656 37.554192,1.471826 C37.554192,1.33704133 37.5317282,1.22565844 37.4868,1.137674 C37.4418718,1.04968956 37.3810324,0.978554271 37.30428,0.924266 C37.2275276,0.869977729 37.1395445,0.831602112 37.040328,0.809138 C36.9411115,0.786673888 36.8372165,0.775442 36.72864,0.775442 L36.346752,0.775442 Z M36.346752,2.493938 L36.346752,4.010258 L36.779184,4.010258 C36.9102247,4.010258 37.0328394,3.99434616 37.147032,3.962522 C37.2612246,3.93069784 37.3604396,3.88296232 37.44468,3.819314 C37.5289204,3.75566568 37.5953758,3.67610648 37.644048,3.580634 C37.6927202,3.48516152 37.717056,3.37377864 37.717056,3.246482 C37.717056,3.09672125 37.6927202,2.97317049 37.644048,2.875826 C37.5953758,2.77848151 37.5289204,2.70173028 37.44468,2.64557 C37.3604396,2.58940972 37.2612246,2.55009811 37.147032,2.527634 C37.0328394,2.50516989 36.9102247,2.493938 36.779184,2.493938 L36.346752,2.493938 Z M39.413088,0.724898 C39.4954564,0.724898 39.5656557,0.752041729 39.623688,0.80633 C39.6817203,0.860618271 39.710736,0.930817569 39.710736,1.01693 C39.710736,1.10304243 39.6826563,1.17230574 39.626496,1.224722 C39.5703357,1.27713826 39.4992004,1.303346 39.413088,1.303346 C39.3344636,1.303346 39.2670723,1.27713826 39.210912,1.224722 C39.1547517,1.17230574 39.126672,1.10304243 39.126672,1.01693 C39.126672,0.930817569 39.1547517,0.860618271 39.210912,0.80633 C39.2670723,0.752041729 39.3344636,0.724898 39.413088,0.724898 Z M40.65984,0.724898 C40.7422084,0.724898 40.8124077,0.752041729 40.87044,0.80633 C40.9284723,0.860618271 40.957488,0.930817569 40.957488,1.01693 C40.957488,1.10304243 40.9294083,1.17230574 40.873248,1.224722 C40.8170877,1.27713826 40.7459524,1.303346 40.65984,1.303346 C40.5812156,1.303346 40.5138243,1.27713826 40.457664,1.224722 C40.4015037,1.17230574 40.373424,1.10304243 40.373424,1.01693 C40.373424,0.930817569 40.4015037,0.860618271 40.457664,0.80633 C40.5138243,0.752041729 40.5812156,0.724898 40.65984,0.724898 Z M39.385008,1.55045 L39.385008,3.493586 C39.385008,3.58344245 39.3906239,3.66393764 39.401856,3.735074 C39.4130881,3.80621036 39.4346158,3.86611376 39.46644,3.914786 C39.4982642,3.96345824 39.5422557,4.00089787 39.598416,4.027106 C39.6545763,4.05331413 39.7294555,4.066418 39.823056,4.066418 C39.9204005,4.066418 40.0196155,4.05237814 40.120704,4.024298 C40.2217925,3.99621786 40.3135196,3.96345819 40.395888,3.926018 C40.4932325,3.88483379 40.5868316,3.83616228 40.676688,3.780002 L40.676688,1.55045 L41.08104,1.55045 L41.08104,4.35845 L40.77216,4.35845 L40.716,4.07765 C40.6149115,4.14129832 40.5100805,4.19745776 40.401504,4.24613 C40.3079035,4.28731421 40.2030726,4.32475383 40.087008,4.35845 C39.9709434,4.39214617 39.8548806,4.408994 39.738816,4.408994 C39.5778232,4.408994 39.4477205,4.38465824 39.348504,4.335986 C39.2492875,4.28731376 39.1725363,4.22460238 39.118248,4.14785 C39.0639597,4.07109762 39.0274561,3.98685846 39.008736,3.89513 C38.9900159,3.80340154 38.980656,3.71261045 38.980656,3.622754 L38.980656,1.55045 L39.385008,1.55045 Z M43.434144,1.870562 C43.3143354,1.85932994 43.1964006,1.86588188 43.080336,1.890218 C42.9642714,1.91455412 42.8594405,1.94544181 42.76584,1.982882 C42.6572635,2.02406621 42.5524325,2.07273772 42.451344,2.128898 L42.451344,4.35845 L42.046992,4.35845 L42.046992,1.55045 L42.355872,1.55045 L42.412032,1.83125 C42.5131205,1.76385766 42.6198234,1.70582624 42.732144,1.657154 C42.8294885,1.61596979 42.9380634,1.57759418 43.057872,1.542026 C43.1776806,1.50645782 43.3031033,1.49241796 43.434144,1.499906 L43.434144,1.870562 Z M44.33832,2.555714 C44.33832,2.80656325 44.4047753,2.99282539 44.537688,3.114506 C44.6706007,3.23618661 44.834399,3.297026 45.029088,3.297026 C45.223777,3.297026 45.3885113,3.23618661 45.523296,3.114506 C45.6580807,2.99282539 45.725472,2.80656325 45.725472,2.555714 L45.725472,2.162594 C45.6730557,2.09894568 45.6112804,2.04278624 45.540144,1.994114 C45.4764957,1.95292979 45.3978725,1.91455418 45.304272,1.878986 C45.2106715,1.84341782 45.1002246,1.825634 44.972928,1.825634 C44.8980476,1.825634 44.8222324,1.83967386 44.74548,1.867754 C44.6687276,1.89583414 44.6004003,1.9398257 44.540496,1.99973 C44.4805917,2.0596343 44.4319202,2.13544954 44.39448,2.227178 C44.3570398,2.31890646 44.33832,2.42841736 44.33832,2.555714 Z M44.42256,4.38653 C44.3776318,4.42022617 44.3364482,4.45766579 44.299008,4.49885 C44.2690559,4.53629019 44.2409761,4.58215373 44.214768,4.636442 C44.1885599,4.69073027 44.175456,4.74969768 44.175456,4.813346 C44.175456,4.89571441 44.1969838,4.96404173 44.24004,5.01833 C44.2830962,5.07261827 44.3429996,5.11660983 44.419752,5.150306 C44.4965044,5.18400217 44.5882315,5.20833793 44.694936,5.223314 C44.8016405,5.23829007 44.9186394,5.245778 45.045936,5.245778 C45.1732326,5.245778 45.2921034,5.23641809 45.402552,5.217698 C45.5130006,5.19897791 45.6094076,5.17089819 45.691776,5.133458 C45.7741444,5.09601781 45.8387278,5.04828229 45.885528,4.99025 C45.9323282,4.93221771 45.955728,4.86389039 45.955728,4.785266 C45.955728,4.70664161 45.9398162,4.64299424 45.907992,4.594322 C45.8761678,4.54564976 45.8340483,4.50821013 45.781632,4.482002 C45.7292157,4.45579387 45.6674404,4.43801005 45.596304,4.42865 C45.5251676,4.41928995 45.4502884,4.41461 45.371664,4.41461 L44.664048,4.41461 C44.6303518,4.41461 44.5994641,4.41367401 44.571384,4.411802 C44.5433039,4.40992999 44.5180321,4.40712202 44.495568,4.403378 C44.4693599,4.39963398 44.4450241,4.39401804 44.42256,4.38653 Z M43.793568,4.858274 C43.793568,4.76092951 43.8132238,4.67481837 43.852536,4.599938 C43.8918482,4.52505763 43.9358398,4.46141026 43.984512,4.408994 C44.0406723,4.3490897 44.1043196,4.30041819 44.175456,4.262978 C44.1380158,4.24425791 44.1061921,4.21617819 44.079984,4.178738 C44.0575199,4.14878585 44.0369281,4.11041023 44.018208,4.06361 C43.9994879,4.01680977 43.990128,3.96158632 43.990128,3.897938 C43.990128,3.79684949 44.0116558,3.71448232 44.054712,3.650834 C44.0977682,3.58718568 44.1455037,3.53851417 44.19792,3.504818 C44.2578243,3.46363379 44.3270876,3.43555407 44.405712,3.420578 C44.3158556,3.37939379 44.2372323,3.32136237 44.16984,3.246482 C44.1099357,3.18283368 44.0565842,3.09765853 44.009784,2.990954 C43.9629838,2.88424947 43.939584,2.74853082 43.939584,2.583794 C43.939584,2.40033708 43.9695357,2.24028268 44.02944,2.103626 C44.0893443,1.96696932 44.1651595,1.85371445 44.256888,1.763858 C44.3486165,1.67400155 44.4515754,1.60754622 44.565768,1.56449 C44.6799606,1.52143378 44.7932154,1.499906 44.905536,1.499906 C45.0403207,1.499906 45.1601275,1.51768982 45.26496,1.553258 C45.3697925,1.58882618 45.4596476,1.62720179 45.534528,1.668386 C45.6206404,1.71705824 45.6955197,1.7713457 45.759168,1.83125 L45.815328,1.55045 L46.118592,1.55045 L46.118592,2.522018 C46.118592,2.70921894 46.0886403,2.87114532 46.028736,3.007802 C45.9688317,3.14445868 45.8892725,3.25677756 45.790056,3.344762 C45.6908395,3.43274644 45.5757127,3.49826578 45.444672,3.541322 C45.3136313,3.58437822 45.1751047,3.605906 45.029088,3.605906 L44.781984,3.605906 C44.5086706,3.605906 44.372016,3.68265723 44.372016,3.836162 C44.372016,3.91104237 44.4019677,3.97094578 44.461872,4.015874 C44.5217763,4.06080222 44.6247353,4.083266 44.770752,4.083266 L45.472752,4.083266 C45.7572974,4.083266 45.9725753,4.13568148 46.118592,4.240514 C46.2646087,4.34534652 46.337616,4.51382484 46.337616,4.745954 C46.337616,4.98182718 46.2243611,5.17183328 45.997848,5.315978 C45.7713349,5.46012272 45.4409302,5.532194 45.006624,5.532194 C44.5760618,5.532194 44.2662489,5.47603456 44.077176,5.363714 C43.8881031,5.25139344 43.793568,5.08291512 43.793568,4.858274 Z M48.786192,4.229282 C48.7000796,4.26297817 48.6083525,4.29292987 48.511008,4.319138 C48.4248956,4.34160211 48.3256806,4.36125792 48.21336,4.378106 C48.1010394,4.39495408 47.9812326,4.403378 47.853936,4.403378 C47.4870222,4.403378 47.2165209,4.27982724 47.042424,4.032722 C46.8683271,3.78561676 46.78128,3.44304419 46.78128,3.004994 C46.78128,2.75414475 46.8102957,2.53418695 46.868328,2.345114 C46.9263603,2.15604105 47.0077915,1.99785864 47.112624,1.870562 C47.2174565,1.74326536 47.3419433,1.64873031 47.486088,1.586954 C47.6302327,1.52517769 47.7884151,1.49429 47.96064,1.49429 C48.2302093,1.49429 48.4436152,1.55980934 48.600864,1.69085 C48.7581128,1.82189066 48.836736,2.01657671 48.836736,2.274914 C48.836736,2.45837092 48.8039763,2.60719343 48.738456,2.721386 C48.6729357,2.83557857 48.5886965,2.92543367 48.485736,2.990954 C48.3827755,3.05647433 48.2657767,3.10046589 48.134736,3.12293 C48.0036953,3.14539411 47.8726567,3.156626 47.741616,3.156626 L47.191248,3.156626 C47.2024801,3.28766666 47.2211999,3.40840945 47.247408,3.518858 C47.2736161,3.62930655 47.3147997,3.72384161 47.37096,3.802466 C47.4271203,3.88109039 47.5001276,3.94286578 47.589984,3.987794 C47.6798404,4.03272222 47.7921593,4.055186 47.926944,4.055186 C48.0242885,4.055186 48.1225675,4.04582609 48.221784,4.027106 C48.3210005,4.00838591 48.4136636,3.98779411 48.499776,3.96533 C48.5971205,3.93912187 48.6925915,3.90729819 48.786192,3.869858 L48.786192,4.229282 Z M47.741616,2.825282 C47.9774892,2.825282 48.1515834,2.77848247 48.263904,2.684882 C48.3762246,2.59128153 48.432384,2.46585879 48.432384,2.30861 C48.432384,2.15884925 48.3921364,2.04278641 48.31164,1.960418 C48.2311436,1.87804959 48.1141448,1.836866 47.96064,1.836866 C47.8370874,1.836866 47.7275765,1.86307374 47.632104,1.91549 C47.5366315,1.96790626 47.4570723,2.03904155 47.393424,2.128898 C47.3297757,2.21875445 47.2801682,2.3235854 47.2446,2.443394 C47.2090318,2.5632026 47.189376,2.69049733 47.185632,2.825282 L47.741616,2.825282 Z M51.04944,1.870562 C50.9296314,1.85932994 50.8116966,1.86588188 50.695632,1.890218 C50.5795674,1.91455412 50.4747365,1.94544181 50.381136,1.982882 C50.2725595,2.02406621 50.1677285,2.07273772 50.06664,2.128898 L50.06664,4.35845 L49.662288,4.35845 L49.662288,1.55045 L49.971168,1.55045 L50.027328,1.83125 C50.1284165,1.76385766 50.2351194,1.70582624 50.34744,1.657154 C50.4447845,1.61596979 50.5533594,1.57759418 50.673168,1.542026 C50.7929766,1.50645782 50.9183993,1.49241796 51.04944,1.499906 L51.04944,1.870562 Z M54.935712,4.35845 L54.935712,2.415314 C54.935712,2.32545755 54.931968,2.24496236 54.92448,2.173826 C54.916992,2.10268964 54.9001441,2.04278624 54.873936,1.994114 C54.8477279,1.94544176 54.8074803,1.90800213 54.753192,1.881794 C54.6989037,1.85558587 54.6249605,1.842482 54.53136,1.842482 C54.4489916,1.842482 54.3610085,1.85745785 54.267408,1.88741 C54.1738075,1.91736215 54.0858244,1.95105781 54.003456,1.988498 C53.9061115,2.02968221 53.8106405,2.07648174 53.71704,2.128898 L53.71704,2.173826 C53.71704,2.18880207 53.717976,2.20564991 53.719848,2.22437 C53.72172,2.24309009 53.722656,2.26180991 53.722656,2.28053 L53.722656,4.35845 L53.318304,4.35845 L53.318304,2.415314 C53.318304,2.32545755 53.31456,2.24496236 53.307072,2.173826 C53.299584,2.10268964 53.2827361,2.04278624 53.256528,1.994114 C53.2303199,1.94544176 53.1900723,1.90800213 53.135784,1.881794 C53.0814957,1.85558587 53.0075525,1.842482 52.913952,1.842482 C52.8240956,1.842482 52.7314325,1.85745785 52.63596,1.88741 C52.5404875,1.91736215 52.4534404,1.95105781 52.374816,1.988498 C52.2812155,2.02968221 52.1913604,2.07648174 52.105248,2.128898 L52.105248,4.35845 L51.700896,4.35845 L51.700896,1.55045 L52.009776,1.55045 L52.065936,1.83125 C52.1632805,1.7713457 52.2643675,1.71705824 52.3692,1.668386 C52.4590564,1.62720179 52.5592074,1.58882618 52.669656,1.553258 C52.7801046,1.51768982 52.8914874,1.499906 53.003808,1.499906 C53.1460807,1.499906 53.2593356,1.51862581 53.343576,1.556066 C53.4278164,1.59350619 53.4942718,1.63281779 53.542944,1.674002 C53.5991043,1.72641826 53.6384159,1.78444968 53.66088,1.848098 C53.7582245,1.78444968 53.8611835,1.72641826 53.96976,1.674002 C54.0596164,1.63281779 54.1616394,1.59350619 54.275832,1.556066 C54.3900246,1.51862581 54.5032794,1.499906 54.6156,1.499906 C54.7803368,1.499906 54.9113755,1.52424176 55.00872,1.572914 C55.1060645,1.62158624 55.1790718,1.68429762 55.227744,1.76105 C55.2764162,1.83780238 55.3073039,1.92297753 55.320408,2.016578 C55.3335121,2.11017847 55.340064,2.20003357 55.340064,2.286146 L55.340064,4.35845 L54.935712,4.35845 Z M58.103136,4.229282 C58.0170236,4.26297817 57.9252965,4.29292987 57.827952,4.319138 C57.7418396,4.34160211 57.6426246,4.36125792 57.530304,4.378106 C57.4179834,4.39495408 57.2981766,4.403378 57.17088,4.403378 C56.8039662,4.403378 56.5334649,4.27982724 56.359368,4.032722 C56.1852711,3.78561676 56.098224,3.44304419 56.098224,3.004994 C56.098224,2.75414475 56.1272397,2.53418695 56.185272,2.345114 C56.2433043,2.15604105 56.3247355,1.99785864 56.429568,1.870562 C56.5344005,1.74326536 56.6588873,1.64873031 56.803032,1.586954 C56.9471767,1.52517769 57.1053591,1.49429 57.277584,1.49429 C57.5471533,1.49429 57.7605592,1.55980934 57.917808,1.69085 C58.0750568,1.82189066 58.15368,2.01657671 58.15368,2.274914 C58.15368,2.45837092 58.1209203,2.60719343 58.0554,2.721386 C57.9898797,2.83557857 57.9056405,2.92543367 57.80268,2.990954 C57.6997195,3.05647433 57.5827207,3.10046589 57.45168,3.12293 C57.3206393,3.14539411 57.1896007,3.156626 57.05856,3.156626 L56.508192,3.156626 C56.5194241,3.28766666 56.5381439,3.40840945 56.564352,3.518858 C56.5905601,3.62930655 56.6317437,3.72384161 56.687904,3.802466 C56.7440643,3.88109039 56.8170716,3.94286578 56.906928,3.987794 C56.9967844,4.03272222 57.1091033,4.055186 57.243888,4.055186 C57.3412325,4.055186 57.4395115,4.04582609 57.538728,4.027106 C57.6379445,4.00838591 57.7306076,3.98779411 57.81672,3.96533 C57.9140645,3.93912187 58.0095355,3.90729819 58.103136,3.869858 L58.103136,4.229282 Z M57.05856,2.825282 C57.2944332,2.825282 57.4685274,2.77848247 57.580848,2.684882 C57.6931686,2.59128153 57.749328,2.46585879 57.749328,2.30861 C57.749328,2.15884925 57.7090804,2.04278641 57.628584,1.960418 C57.5480876,1.87804959 57.4310888,1.836866 57.277584,1.836866 C57.1540314,1.836866 57.0445205,1.86307374 56.949048,1.91549 C56.8535755,1.96790626 56.7740163,2.03904155 56.710368,2.128898 C56.6467197,2.21875445 56.5971122,2.3235854 56.561544,2.443394 C56.5259758,2.5632026 56.50632,2.69049733 56.502576,2.825282 L57.05856,2.825282 Z M59.383584,4.35845 L58.979232,4.35845 L58.979232,1.55045 L59.383584,1.55045 L59.383584,4.35845 Z M58.861296,0.657506 C58.861296,0.563905532 58.8931197,0.485282318 58.956768,0.421634 C59.0204163,0.357985682 59.0990395,0.326162 59.19264,0.326162 C59.2862405,0.326162 59.3648637,0.357985682 59.428512,0.421634 C59.4921603,0.485282318 59.523984,0.563905532 59.523984,0.657506 C59.523984,0.751106468 59.4921603,0.829729682 59.428512,0.893378 C59.3648637,0.957026318 59.2862405,0.98885 59.19264,0.98885 C59.0990395,0.98885 59.0204163,0.957026318 58.956768,0.893378 C58.8931197,0.829729682 58.861296,0.751106468 58.861296,0.657506 Z M61.80408,1.909874 C61.7291996,1.89864194 61.6524484,1.88553807 61.573824,1.870562 L61.343568,1.848098 C61.2611996,1.83686594 61.1788324,1.83125 61.096464,1.83125 C60.886799,1.83125 60.7445284,1.86962562 60.669648,1.946378 C60.5947676,2.02313038 60.557328,2.10830553 60.557328,2.201906 C60.557328,2.3217146 60.5910237,2.41437767 60.658416,2.479898 C60.7258083,2.54541833 60.8109835,2.59876979 60.913944,2.639954 C61.0169045,2.68113821 61.1282874,2.72044981 61.248096,2.75789 C61.3679046,2.79533019 61.4792875,2.84493769 61.582248,2.906714 C61.6852085,2.96849031 61.7703837,3.05366546 61.837776,3.162242 C61.9051683,3.27081854 61.938864,3.41683308 61.938864,3.60029 C61.938864,3.69763449 61.9238881,3.79497751 61.893936,3.892322 C61.8639839,3.98966649 61.8134404,4.07671362 61.742304,4.153466 C61.6711676,4.23021838 61.5756966,4.29199377 61.455888,4.338794 C61.3360794,4.38559423 61.1863209,4.408994 61.006608,4.408994 C60.9017755,4.408994 60.8006885,4.40431405 60.703344,4.394954 C60.6059995,4.38559395 60.5198884,4.37342607 60.445008,4.35845 C60.3551516,4.34347393 60.2709124,4.32475411 60.192288,4.30229 L60.192288,3.920402 C60.2784004,3.94661013 60.3682555,3.96907391 60.461856,3.987794 C60.5404804,4.00651409 60.6275275,4.02242593 60.723,4.03553 C60.8184725,4.04863407 60.9130075,4.055186 61.006608,4.055186 C61.1189286,4.055186 61.2087837,4.04021015 61.276176,4.010258 C61.3435683,3.98030585 61.3969198,3.94380222 61.436232,3.900746 C61.4755442,3.85768978 61.5017519,3.81089025 61.514856,3.760346 C61.5279601,3.70980175 61.534512,3.66206622 61.534512,3.617138 C61.534512,3.49358538 61.5008163,3.39811434 61.433424,3.330722 C61.3660317,3.26332966 61.2817925,3.20717022 61.180704,3.162242 C61.0796155,3.11731378 60.9691686,3.07706618 60.84936,3.041498 C60.7295514,3.00592982 60.6191045,2.9581943 60.518016,2.89829 C60.4169275,2.8383857 60.3326883,2.7588265 60.265296,2.65961 C60.1979037,2.5603935 60.164208,2.42654684 60.164208,2.258066 C60.164208,2.15323348 60.1819918,2.05495446 60.21756,1.963226 C60.2531282,1.87149754 60.3083516,1.79100235 60.383232,1.721738 C60.4581124,1.65247365 60.5545194,1.5981862 60.672456,1.558874 C60.7903926,1.5195618 60.9317272,1.499906 61.096464,1.499906 C61.1863204,1.499906 61.2743036,1.50458595 61.360416,1.513946 C61.4465284,1.52330605 61.5214077,1.53172996 61.585056,1.539218 C61.6599364,1.55045006 61.7329436,1.56168194 61.80408,1.572914 L61.80408,1.909874 Z M64.072944,4.375298 C64.0355038,4.38278604 63.9961922,4.38840198 63.955008,4.392146 C63.9213118,4.39963404 63.8838722,4.40431399 63.842688,4.406186 C63.8015038,4.40805801 63.7603202,4.408994 63.719136,4.408994 C63.4121265,4.408994 63.1968486,4.33224277 63.073296,4.178738 C62.9497434,4.02523323 62.887968,3.78936359 62.887968,3.471122 L62.887968,1.893026 L62.42184,1.893026 L62.42184,1.55045 L62.887968,1.55045 L62.887968,0.42725 L63.29232,0.42725 L63.29232,1.55045 L63.988704,1.55045 L63.988704,1.893026 L63.29232,1.893026 L63.29232,3.409346 C63.29232,3.52166656 63.2979359,3.61900959 63.309168,3.701378 C63.3204001,3.78374641 63.3428638,3.85113774 63.37656,3.903554 C63.4102562,3.95597026 63.4598637,3.99528187 63.525384,4.02149 C63.5909043,4.04769813 63.6779515,4.060802 63.786528,4.060802 C63.8576644,4.060802 63.9213117,4.05518606 63.977472,4.043954 C64.0111682,4.04020998 64.0429919,4.03459404 64.072944,4.027106 L64.072944,4.375298 Z M66.476592,4.229282 C66.3904796,4.26297817 66.2987525,4.29292987 66.201408,4.319138 C66.1152956,4.34160211 66.0160806,4.36125792 65.90376,4.378106 C65.7914394,4.39495408 65.6716326,4.403378 65.544336,4.403378 C65.1774222,4.403378 64.9069209,4.27982724 64.732824,4.032722 C64.5587271,3.78561676 64.47168,3.44304419 64.47168,3.004994 C64.47168,2.75414475 64.5006957,2.53418695 64.558728,2.345114 C64.6167603,2.15604105 64.6981915,1.99785864 64.803024,1.870562 C64.9078565,1.74326536 65.0323433,1.64873031 65.176488,1.586954 C65.3206327,1.52517769 65.4788151,1.49429 65.65104,1.49429 C65.9206093,1.49429 66.1340152,1.55980934 66.291264,1.69085 C66.4485128,1.82189066 66.527136,2.01657671 66.527136,2.274914 C66.527136,2.45837092 66.4943763,2.60719343 66.428856,2.721386 C66.3633357,2.83557857 66.2790965,2.92543367 66.176136,2.990954 C66.0731755,3.05647433 65.9561767,3.10046589 65.825136,3.12293 C65.6940953,3.14539411 65.5630567,3.156626 65.432016,3.156626 L64.881648,3.156626 C64.8928801,3.28766666 64.9115999,3.40840945 64.937808,3.518858 C64.9640161,3.62930655 65.0051997,3.72384161 65.06136,3.802466 C65.1175203,3.88109039 65.1905276,3.94286578 65.280384,3.987794 C65.3702404,4.03272222 65.4825593,4.055186 65.617344,4.055186 C65.7146885,4.055186 65.8129675,4.04582609 65.912184,4.027106 C66.0114005,4.00838591 66.1040636,3.98779411 66.190176,3.96533 C66.2875205,3.93912187 66.3829915,3.90729819 66.476592,3.869858 L66.476592,4.229282 Z M65.432016,2.825282 C65.6678892,2.825282 65.8419834,2.77848247 65.954304,2.684882 C66.0666246,2.59128153 66.122784,2.46585879 66.122784,2.30861 C66.122784,2.15884925 66.0825364,2.04278641 66.00204,1.960418 C65.9215436,1.87804959 65.8045448,1.836866 65.65104,1.836866 C65.5274874,1.836866 65.4179765,1.86307374 65.322504,1.91549 C65.2270315,1.96790626 65.1474723,2.03904155 65.083824,2.128898 C65.0201757,2.21875445 64.9705682,2.3235854 64.935,2.443394 C64.8994318,2.5632026 64.879776,2.69049733 64.876032,2.825282 L65.432016,2.825282 Z M68.73984,1.870562 C68.6200314,1.85932994 68.5020966,1.86588188 68.386032,1.890218 C68.2699674,1.91455412 68.1651365,1.94544181 68.071536,1.982882 C67.9629595,2.02406621 67.8581285,2.07273772 67.75704,2.128898 L67.75704,4.35845 L67.352688,4.35845 L67.352688,1.55045 L67.661568,1.55045 L67.717728,1.83125 C67.8188165,1.76385766 67.9255194,1.70582624 68.03784,1.657154 C68.1351845,1.61596979 68.2437594,1.57759418 68.363568,1.542026 C68.4833766,1.50645782 68.6087993,1.49241796 68.73984,1.499906 L68.73984,1.870562 Z M46.646496,10.749458 C46.7064003,10.5884652 46.7625597,10.4330907 46.814976,10.28333 C46.8599042,10.1560334 46.9020238,10.0278026 46.941336,9.898634 C46.9806482,9.76946535 47.0096639,9.66369841 47.028384,9.58133 L47.28672,8.28965 L47.719152,8.28965 L47.421504,9.58133 C47.3952959,9.68990654 47.3513043,9.82936915 47.289528,9.999722 C47.2277517,10.1700749 47.1650403,10.3376172 47.101392,10.502354 C47.0265116,10.693299 46.9441444,10.891729 46.854288,11.09765 L46.410624,11.09765 C46.3207676,10.887985 46.2384004,10.687683 46.16352,10.496738 C46.0998717,10.3320012 46.0380963,10.1644589 45.978192,9.994106 C45.9182877,9.82375315 45.8771041,9.68616252 45.85464,9.58133 L45.562608,8.28965 L46.011888,8.28965 L46.270224,9.58133 C46.2852001,9.65621037 46.3142158,9.75916934 46.357272,9.89021 C46.4003282,10.0212507 46.4424478,10.1504174 46.483632,10.277714 C46.5323042,10.4274747 46.5865917,10.5847212 46.646496,10.749458 Z M48.640176,9.69365 C48.640176,9.90705907 48.6607678,10.0848973 48.701952,10.22717 C48.7431362,10.3694427 48.7983597,10.4845696 48.867624,10.572554 C48.9368883,10.6605384 49.0183195,10.7223138 49.11192,10.757882 C49.2055205,10.7934502 49.3047355,10.811234 49.409568,10.811234 C49.5181445,10.811234 49.6192315,10.7859623 49.712832,10.735418 C49.8064325,10.6848737 49.8878637,10.6118665 49.957128,10.516394 C50.0263923,10.4209215 50.0806798,10.3039227 50.119992,10.165394 C50.1593042,10.0268653 50.17896,9.86961888 50.17896,9.69365 C50.17896,9.48024093 50.1574322,9.30240271 50.114376,9.16013 C50.0713198,9.01785729 50.0142244,8.90273044 49.943088,8.814746 C49.8719516,8.72676156 49.7895845,8.66498618 49.695984,8.629418 C49.6023835,8.59384982 49.5069125,8.576066 49.409568,8.576066 C49.1849269,8.576066 49.0005367,8.67340903 48.856392,8.868098 C48.7122473,9.06278697 48.640176,9.33796822 48.640176,9.69365 Z M48.224592,9.74981 C48.224592,9.5101928 48.2526717,9.29678694 48.308832,9.109586 C48.3649923,8.92238506 48.4454875,8.76420265 48.55032,8.635034 C48.6551525,8.50586535 48.7796393,8.40758634 48.923784,8.340194 C49.0679287,8.27280166 49.2298551,8.239106 49.409568,8.239106 C49.7802259,8.239106 50.070383,8.35329686 50.280048,8.581682 C50.489713,8.81006714 50.594544,9.16199962 50.594544,9.63749 C50.594544,9.88085122 50.5655283,10.0961291 50.507496,10.28333 C50.4494637,10.4705309 50.3680325,10.6287134 50.2632,10.757882 C50.1583675,10.8870506 50.0329447,10.9843937 49.886928,11.049914 C49.7409113,11.1154343 49.5817929,11.148194 49.409568,11.148194 C49.0426542,11.148194 48.7534331,11.0340031 48.541896,10.805618 C48.3303589,10.5772329 48.224592,10.2253004 48.224592,9.74981 Z M53.059968,11.09765 L53.059968,9.154514 C53.059968,9.06465755 53.0543521,8.98416236 53.04312,8.913026 C53.0318879,8.84188964 53.0103602,8.78198624 52.978536,8.733314 C52.9467118,8.68464176 52.9027203,8.64720213 52.84656,8.620994 C52.7903997,8.59478587 52.7155205,8.581682 52.62192,8.581682 C52.5245755,8.581682 52.4253605,8.59665785 52.324272,8.62661 C52.2231835,8.65656215 52.1314564,8.69025781 52.049088,8.727698 C51.9517435,8.76888221 51.8581444,8.81568174 51.768288,8.868098 L51.768288,11.09765 L51.363936,11.09765 L51.363936,8.28965 L51.672816,8.28965 L51.728976,8.57045 C51.8300645,8.5105457 51.9348955,8.45625824 52.043472,8.407586 C52.1370725,8.36640179 52.2419034,8.32802618 52.357968,8.292458 C52.4740326,8.25688982 52.5900954,8.239106 52.70616,8.239106 C52.8671528,8.239106 52.9972555,8.26344176 53.096472,8.312114 C53.1956885,8.36078624 53.2724397,8.42349762 53.326728,8.50025 C53.3810163,8.57700238 53.4175199,8.66124154 53.43624,8.75297 C53.4549601,8.84469846 53.46432,8.93548955 53.46432,9.025346 L53.46432,11.09765 L53.059968,11.09765 Z M57.232656,9.025346 C57.3337445,9.04781011 57.4320235,9.07963379 57.527496,9.120818 C57.6229685,9.16200221 57.7072076,9.21909763 57.780216,9.292106 C57.8532244,9.36511437 57.9121918,9.45871343 57.95712,9.572906 C58.0020482,9.68709857 58.024512,9.82843316 58.024512,9.996914 C58.024512,10.187859 57.9889444,10.3525933 57.917808,10.491122 C57.8466716,10.6296507 57.7512006,10.7438416 57.631392,10.833698 C57.5115834,10.9235544 57.3711848,10.9900098 57.210192,11.033066 C57.0491992,11.0761222 56.8788489,11.09765 56.699136,11.09765 L55.79496,11.09765 L55.79496,7.16645 L56.642976,7.16645 C56.7927367,7.16645 56.9396873,7.17955387 57.083832,7.205762 C57.2279767,7.23197013 57.3571434,7.28064164 57.471336,7.351778 C57.5855286,7.42291436 57.6772557,7.51932139 57.74652,7.641002 C57.8157843,7.76268261 57.850416,7.91899305 57.850416,8.109938 C57.850416,8.35329922 57.7933206,8.54985725 57.679128,8.699618 C57.5649354,8.84937875 57.4161129,8.95608168 57.232656,9.01973 L57.232656,9.025346 Z M56.221776,7.514642 L56.221776,8.890562 L56.603664,8.890562 C56.7122405,8.890562 56.8161355,8.87652214 56.915352,8.848442 C57.0145685,8.82036186 57.1025516,8.77824228 57.179304,8.722082 C57.2560564,8.66592172 57.3168958,8.59478643 57.361824,8.508674 C57.4067522,8.42256157 57.429216,8.32334656 57.429216,8.211026 C57.429216,8.07624133 57.4067522,7.96485844 57.361824,7.876874 C57.3168958,7.78888956 57.2560564,7.71775427 57.179304,7.663466 C57.1025516,7.60917773 57.0145685,7.57080211 56.915352,7.548338 C56.8161355,7.52587389 56.7122405,7.514642 56.603664,7.514642 L56.221776,7.514642 Z M56.221776,9.233138 L56.221776,10.749458 L56.654208,10.749458 C56.7852487,10.749458 56.9078634,10.7335462 57.022056,10.701722 C57.1362486,10.6698978 57.2354636,10.6221623 57.319704,10.558514 C57.4039444,10.4948657 57.4703998,10.4153065 57.519072,10.319834 C57.5677442,10.2243615 57.59208,10.1129786 57.59208,9.985682 C57.59208,9.83592125 57.5677442,9.71237049 57.519072,9.615026 C57.4703998,9.51768151 57.4039444,9.44093028 57.319704,9.38477 C57.2354636,9.32860972 57.1362486,9.28929811 57.022056,9.266834 C56.9078634,9.24436989 56.7852487,9.233138 56.654208,9.233138 L56.221776,9.233138 Z M60.68088,10.968482 C60.5947676,11.0021782 60.5030405,11.0321299 60.405696,11.058338 C60.3195836,11.0808021 60.2203686,11.1004579 60.108048,11.117306 C59.9957274,11.1341541 59.8759206,11.142578 59.748624,11.142578 C59.3817102,11.142578 59.1112089,11.0190272 58.937112,10.771922 C58.7630151,10.5248168 58.675968,10.1822442 58.675968,9.744194 C58.675968,9.49334475 58.7049837,9.27338695 58.763016,9.084314 C58.8210483,8.89524105 58.9024795,8.73705864 59.007312,8.609762 C59.1121445,8.48246536 59.2366313,8.38793031 59.380776,8.326154 C59.5249207,8.26437769 59.6831031,8.23349 59.855328,8.23349 C60.1248973,8.23349 60.3383032,8.29900934 60.495552,8.43005 C60.6528008,8.56109066 60.731424,8.75577671 60.731424,9.014114 C60.731424,9.19757092 60.6986643,9.34639343 60.633144,9.460586 C60.5676237,9.57477857 60.4833845,9.66463367 60.380424,9.730154 C60.2774635,9.79567433 60.1604647,9.83966589 60.029424,9.86213 C59.8983833,9.88459411 59.7673447,9.895826 59.636304,9.895826 L59.085936,9.895826 C59.0971681,10.0268667 59.1158879,10.1476094 59.142096,10.258058 C59.1683041,10.3685066 59.2094877,10.4630416 59.265648,10.541666 C59.3218083,10.6202904 59.3948156,10.6820658 59.484672,10.726994 C59.5745284,10.7719222 59.6868473,10.794386 59.821632,10.794386 C59.9189765,10.794386 60.0172555,10.7850261 60.116472,10.766306 C60.2156885,10.7475859 60.3083516,10.7269941 60.394464,10.70453 C60.4918085,10.6783219 60.5872795,10.6464982 60.68088,10.609058 L60.68088,10.968482 Z M59.636304,9.564482 C59.8721772,9.564482 60.0462714,9.51768247 60.158592,9.424082 C60.2709126,9.33048153 60.327072,9.20505879 60.327072,9.04781 C60.327072,8.89804925 60.2868244,8.78198641 60.206328,8.699618 C60.1258316,8.61724959 60.0088328,8.576066 59.855328,8.576066 C59.7317754,8.576066 59.6222645,8.60227374 59.526792,8.65469 C59.4313195,8.70710626 59.3517603,8.77824155 59.288112,8.868098 C59.2244637,8.95795445 59.1748562,9.0627854 59.139288,9.182594 C59.1037198,9.3024026 59.084064,9.42969733 59.08032,9.564482 L59.636304,9.564482 Z M62.944128,8.609762 C62.8243194,8.59852994 62.7063846,8.60508188 62.59032,8.629418 C62.4742554,8.65375412 62.3694245,8.68464181 62.275824,8.722082 C62.1672475,8.76326621 62.0624165,8.81193772 61.961328,8.868098 L61.961328,11.09765 L61.556976,11.09765 L61.556976,8.28965 L61.865856,8.28965 L61.922016,8.57045 C62.0231045,8.50305766 62.1298074,8.44502624 62.242128,8.396354 C62.3394725,8.35516979 62.4480474,8.31679418 62.567856,8.281226 C62.6876646,8.24565782 62.8130873,8.23161796 62.944128,8.239106 L62.944128,8.609762 Z M63.999936,11.09765 L63.595584,11.09765 L63.595584,6.82949 L63.999936,6.82949 L63.999936,11.09765 Z M65.37024,11.09765 L64.965888,11.09765 L64.965888,8.28965 L65.37024,8.28965 L65.37024,11.09765 Z M64.847952,7.396706 C64.847952,7.30310553 64.8797757,7.22448232 64.943424,7.160834 C65.0070723,7.09718568 65.0856955,7.065362 65.179296,7.065362 C65.2728965,7.065362 65.3515197,7.09718568 65.415168,7.160834 C65.4788163,7.22448232 65.51064,7.30310553 65.51064,7.396706 C65.51064,7.49030647 65.4788163,7.56892968 65.415168,7.632578 C65.3515197,7.69622632 65.2728965,7.72805 65.179296,7.72805 C65.0856955,7.72805 65.0070723,7.69622632 64.943424,7.632578 C64.8797757,7.56892968 64.847952,7.49030647 64.847952,7.396706 Z M68.032224,11.09765 L68.032224,9.154514 C68.032224,9.06465755 68.0266081,8.98416236 68.015376,8.913026 C68.0041439,8.84188964 67.9826162,8.78198624 67.950792,8.733314 C67.9189678,8.68464176 67.8749763,8.64720213 67.818816,8.620994 C67.7626557,8.59478587 67.6877765,8.581682 67.594176,8.581682 C67.4968315,8.581682 67.3976165,8.59665785 67.296528,8.62661 C67.1954395,8.65656215 67.1037124,8.69025781 67.021344,8.727698 C66.9239995,8.76888221 66.8304004,8.81568174 66.740544,8.868098 L66.740544,11.09765 L66.336192,11.09765 L66.336192,8.28965 L66.645072,8.28965 L66.701232,8.57045 C66.8023205,8.5105457 66.9071515,8.45625824 67.015728,8.407586 C67.1093285,8.36640179 67.2141594,8.32802618 67.330224,8.292458 C67.4462886,8.25688982 67.5623514,8.239106 67.678416,8.239106 C67.8394088,8.239106 67.9695115,8.26344176 68.068728,8.312114 C68.1679445,8.36078624 68.2446957,8.42349762 68.298984,8.50025 C68.3532723,8.57700238 68.3897759,8.66124154 68.408496,8.75297 C68.4272161,8.84469846 68.436576,8.93548955 68.436576,9.025346 L68.436576,11.09765 L68.032224,11.09765 Z M38.840256,14.315618 C38.7466555,14.3006419 38.6511845,14.2856661 38.55384,14.27069 C38.4714716,14.2594579 38.3834885,14.2482261 38.289888,14.236994 C38.1962875,14.2257619 38.1101764,14.220146 38.031552,14.220146 C37.8106549,14.220146 37.6346887,14.2781774 37.503648,14.394242 C37.3726073,14.5103066 37.307088,14.6581931 37.307088,14.837906 C37.307088,15.0026428 37.3482716,15.1364895 37.43064,15.23945 C37.5130084,15.3424105 37.6159674,15.4313296 37.73952,15.50621 C37.8630726,15.5810904 37.9969193,15.6503537 38.141064,15.714002 C38.2852087,15.7776503 38.4190554,15.8534656 38.542608,15.94145 C38.6661606,16.0294344 38.7691196,16.1398813 38.851488,16.272794 C38.9338564,16.4057067 38.97504,16.5788649 38.97504,16.792274 C38.97504,16.9532668 38.9516402,17.1011533 38.90484,17.235938 C38.8580398,17.3707227 38.7840965,17.4867855 38.683008,17.58413 C38.5819195,17.6814745 38.4536888,17.7572897 38.298312,17.811578 C38.1429352,17.8658663 37.9585451,17.89301 37.745136,17.89301 C37.6365595,17.89301 37.5317285,17.8864581 37.43064,17.873354 C37.3295515,17.8602499 37.2359524,17.8443381 37.14984,17.825618 C37.0524955,17.8068979 36.9588964,17.7825621 36.86904,17.75261 L36.86904,17.35949 C36.9626405,17.3894421 37.0581115,17.4156499 37.155456,17.438114 C37.2415684,17.4568341 37.3370395,17.4736819 37.441872,17.488658 C37.5467045,17.5036341 37.6515355,17.511122 37.756368,17.511122 C38.0147053,17.511122 38.2103273,17.4484106 38.34324,17.322986 C38.4761527,17.1975614 38.542608,17.0281471 38.542608,16.814738 C38.542608,16.6574892 38.5014244,16.5301945 38.419056,16.43285 C38.3366876,16.3355055 38.2346646,16.2503304 38.112984,16.177322 C37.9913034,16.1043136 37.8593287,16.0350503 37.717056,15.96953 C37.5747833,15.9040097 37.4428086,15.8244505 37.321128,15.73085 C37.1994474,15.6372495 37.0974244,15.5221227 37.015056,15.385466 C36.9326876,15.2488093 36.891504,15.0719071 36.891504,14.854754 C36.891504,14.7162253 36.9167757,14.5861226 36.96732,14.464442 C37.0178643,14.3427614 37.0918075,14.2360585 37.189152,14.14433 C37.2864965,14.0526015 37.4063033,13.9805303 37.548576,13.928114 C37.6908487,13.8756977 37.8555831,13.84949 38.042784,13.84949 C38.1214084,13.84949 38.2075195,13.85417 38.30112,13.86353 C38.3947205,13.87289 38.4808316,13.8831859 38.559456,13.894418 C38.6530565,13.9093941 38.7466555,13.9224979 38.840256,13.93373 L38.840256,14.315618 Z M41.61456,17.707682 C41.5284476,17.7413782 41.4367205,17.7713299 41.339376,17.797538 C41.2532636,17.8200021 41.1540486,17.8396579 41.041728,17.856506 C40.9294074,17.8733541 40.8096006,17.881778 40.682304,17.881778 C40.3153902,17.881778 40.0448889,17.7582272 39.870792,17.511122 C39.6966951,17.2640168 39.609648,16.9214442 39.609648,16.483394 C39.609648,16.2325447 39.6386637,16.0125869 39.696696,15.823514 C39.7547283,15.6344411 39.8361595,15.4762586 39.940992,15.348962 C40.0458245,15.2216654 40.1703113,15.1271303 40.314456,15.065354 C40.4586007,15.0035777 40.6167831,14.97269 40.789008,14.97269 C41.0585773,14.97269 41.2719832,15.0382093 41.429232,15.16925 C41.5864808,15.3002907 41.665104,15.4949767 41.665104,15.753314 C41.665104,15.9367709 41.6323443,16.0855934 41.566824,16.199786 C41.5013037,16.3139786 41.4170645,16.4038337 41.314104,16.469354 C41.2111435,16.5348743 41.0941447,16.5788659 40.963104,16.60133 C40.8320633,16.6237941 40.7010247,16.635026 40.569984,16.635026 L40.019616,16.635026 C40.0308481,16.7660667 40.0495679,16.8868094 40.075776,16.997258 C40.1019841,17.1077066 40.1431677,17.2022416 40.199328,17.280866 C40.2554883,17.3594904 40.3284956,17.4212658 40.418352,17.466194 C40.5082084,17.5111222 40.6205273,17.533586 40.755312,17.533586 C40.8526565,17.533586 40.9509355,17.5242261 41.050152,17.505506 C41.1493685,17.4867859 41.2420316,17.4661941 41.328144,17.44373 C41.4254885,17.4175219 41.5209595,17.3856982 41.61456,17.348258 L41.61456,17.707682 Z M40.569984,16.303682 C40.8058572,16.303682 40.9799514,16.2568825 41.092272,16.163282 C41.2045926,16.0696815 41.260752,15.9442588 41.260752,15.78701 C41.260752,15.6372493 41.2205044,15.5211864 41.140008,15.438818 C41.0595116,15.3564496 40.9425128,15.315266 40.789008,15.315266 C40.6654554,15.315266 40.5559445,15.3414737 40.460472,15.39389 C40.3649995,15.4463063 40.2854403,15.5174416 40.221792,15.607298 C40.1581437,15.6971544 40.1085362,15.8019854 40.072968,15.921794 C40.0373998,16.0416026 40.017744,16.1688973 40.014,16.303682 L40.569984,16.303682 Z M44.186688,17.83685 L44.186688,15.893714 C44.186688,15.8038576 44.1810721,15.7233624 44.16984,15.652226 C44.1586079,15.5810896 44.1370802,15.5211862 44.105256,15.472514 C44.0734318,15.4238418 44.0294403,15.3864021 43.97328,15.360194 C43.9171197,15.3339859 43.8422405,15.320882 43.74864,15.320882 C43.6512955,15.320882 43.5520805,15.3358579 43.450992,15.36581 C43.3499035,15.3957621 43.2581764,15.4294578 43.175808,15.466898 C43.0784635,15.5080822 42.9848644,15.5548817 42.895008,15.607298 L42.895008,17.83685 L42.490656,17.83685 L42.490656,15.02885 L42.799536,15.02885 L42.855696,15.30965 C42.9567845,15.2497457 43.0616155,15.1954582 43.170192,15.146786 C43.2637925,15.1056018 43.3686234,15.0672262 43.484688,15.031658 C43.6007526,14.9960898 43.7168154,14.978306 43.83288,14.978306 C43.9938728,14.978306 44.1239755,15.0026418 44.223192,15.051314 C44.3224085,15.0999862 44.3991597,15.1626976 44.453448,15.23945 C44.5077363,15.3162024 44.5442399,15.4004415 44.56296,15.49217 C44.5816801,15.5838985 44.59104,15.6746896 44.59104,15.764546 L44.59104,17.83685 L44.186688,17.83685 Z M45.590688,15.146786 C45.6880325,15.1168339 45.7947354,15.0887541 45.9108,15.062546 C46.0081445,15.0438259 46.1195274,15.0251061 46.244952,15.006386 C46.3703766,14.9876659 46.5023513,14.978306 46.64088,14.978306 C46.7868967,14.978306 46.9132555,14.9904739 47.01996,15.01481 C47.1266645,15.0391461 47.2146477,15.0793937 47.283912,15.135554 C47.3531763,15.1917143 47.4046558,15.2675295 47.438352,15.363002 C47.4720482,15.4584745 47.488896,15.5792173 47.488896,15.725234 L47.488896,17.83685 L47.180016,17.83685 L47.123856,17.55605 C47.0227675,17.6196983 46.9235525,17.6758578 46.826208,17.72453 C46.7400956,17.7657142 46.6464965,17.8031538 46.545408,17.83685 C46.4443195,17.8705462 46.3451045,17.887394 46.24776,17.887394 C46.1054873,17.887394 45.9838085,17.8649302 45.88272,17.820002 C45.7816315,17.7750738 45.6983283,17.7151704 45.632808,17.64029 C45.5672877,17.5654096 45.5186162,17.4774265 45.486792,17.376338 C45.4549678,17.2752495 45.439056,17.1685466 45.439056,17.056226 C45.439056,16.9139533 45.4633918,16.7866586 45.512064,16.674338 C45.5607362,16.5620174 45.6281276,16.4674824 45.71424,16.39073 C45.8003524,16.3139776 45.9042474,16.2550102 46.025928,16.213826 C46.1476086,16.1726418 46.2795833,16.15205 46.421856,16.15205 L47.084544,16.15205 L47.084544,15.826322 C47.084544,15.635377 47.0480404,15.5034024 46.975032,15.430394 C46.9020236,15.3573856 46.762561,15.320882 46.55664,15.320882 C46.4592955,15.320882 46.3544646,15.3311779 46.242144,15.35177 C46.1298234,15.3723621 46.0249925,15.3938899 45.927648,15.416354 C45.8153274,15.4425621 45.7030086,15.4725138 45.590688,15.50621 L45.590688,15.146786 Z M45.843408,17.02253 C45.843408,17.1797788 45.8845916,17.3052015 45.96696,17.398802 C46.0493284,17.4924025 46.1672632,17.539202 46.320768,17.539202 C46.3956484,17.539202 46.4780156,17.5251621 46.567872,17.497082 C46.6577284,17.4690019 46.7400956,17.4362422 46.814976,17.398802 C46.9048324,17.3576178 46.9946876,17.3089463 47.084544,17.252786 L47.084544,16.472162 L46.466784,16.472162 C46.2870711,16.472162 46.1382486,16.5180255 46.020312,16.609754 C45.9023754,16.7014825 45.843408,16.8390731 45.843408,17.02253 Z M49.797072,17.853698 C49.7596318,17.861186 49.7203202,17.866802 49.679136,17.870546 C49.6454398,17.878034 49.6080002,17.882714 49.566816,17.884586 C49.5256318,17.886458 49.4844482,17.887394 49.443264,17.887394 C49.1362545,17.887394 48.9209766,17.8106428 48.797424,17.657138 C48.6738714,17.5036332 48.612096,17.2677636 48.612096,16.949522 L48.612096,15.371426 L48.145968,15.371426 L48.145968,15.02885 L48.612096,15.02885 L48.612096,13.90565 L49.016448,13.90565 L49.016448,15.02885 L49.712832,15.02885 L49.712832,15.371426 L49.016448,15.371426 L49.016448,16.887746 C49.016448,17.0000666 49.0220639,17.0974096 49.033296,17.179778 C49.0445281,17.2621464 49.0669918,17.3295377 49.100688,17.381954 C49.1343842,17.4343703 49.1839917,17.4736819 49.249512,17.49989 C49.3150323,17.5260981 49.4020795,17.539202 49.510656,17.539202 C49.5817924,17.539202 49.6454397,17.5335861 49.7016,17.522354 C49.7352962,17.51861 49.7671199,17.512994 49.797072,17.505506 L49.797072,17.853698 Z M51.846912,15.388274 C51.7720316,15.3770419 51.6952804,15.3639381 51.616656,15.348962 L51.3864,15.326498 C51.3040316,15.3152659 51.2216644,15.30965 51.139296,15.30965 C50.929631,15.30965 50.7873604,15.3480256 50.71248,15.424778 C50.6375996,15.5015304 50.60016,15.5867055 50.60016,15.680306 C50.60016,15.8001146 50.6338557,15.8927777 50.701248,15.958298 C50.7686403,16.0238183 50.8538155,16.0771698 50.956776,16.118354 C51.0597365,16.1595382 51.1711194,16.1988498 51.290928,16.23629 C51.4107366,16.2737302 51.5221195,16.3233377 51.62508,16.385114 C51.7280405,16.4468903 51.8132157,16.5320655 51.880608,16.640642 C51.9480003,16.7492185 51.981696,16.8952331 51.981696,17.07869 C51.981696,17.1760345 51.9667201,17.2733775 51.936768,17.370722 C51.9068159,17.4680665 51.8562724,17.5551136 51.785136,17.631866 C51.7139996,17.7086184 51.6185286,17.7703938 51.49872,17.817194 C51.3789114,17.8639942 51.2291529,17.887394 51.04944,17.887394 C50.9446075,17.887394 50.8435205,17.882714 50.746176,17.873354 C50.6488315,17.863994 50.5627204,17.8518261 50.48784,17.83685 C50.3979836,17.8218739 50.3137444,17.8031541 50.23512,17.78069 L50.23512,17.398802 C50.3212324,17.4250101 50.4110875,17.4474739 50.504688,17.466194 C50.5833124,17.4849141 50.6703595,17.5008259 50.765832,17.51393 C50.8613045,17.5270341 50.9558395,17.533586 51.04944,17.533586 C51.1617606,17.533586 51.2516157,17.5186101 51.319008,17.488658 C51.3864003,17.4587059 51.4397518,17.4222022 51.479064,17.379146 C51.5183762,17.3360898 51.5445839,17.2892903 51.557688,17.238746 C51.5707921,17.1882017 51.577344,17.1404662 51.577344,17.095538 C51.577344,16.9719854 51.5436483,16.8765143 51.476256,16.809122 C51.4088637,16.7417297 51.3246245,16.6855702 51.223536,16.640642 C51.1224475,16.5957138 51.0120006,16.5554662 50.892192,16.519898 C50.7723834,16.4843298 50.6619365,16.4365943 50.560848,16.37669 C50.4597595,16.3167857 50.3755203,16.2372265 50.308128,16.13801 C50.2407357,16.0387935 50.20704,15.9049468 50.20704,15.736466 C50.20704,15.6316335 50.2248238,15.5333545 50.260392,15.441626 C50.2959602,15.3498975 50.3511836,15.2694023 50.426064,15.200138 C50.5009444,15.1308737 50.5973514,15.0765862 50.715288,15.037274 C50.8332246,14.9979618 50.9745592,14.978306 51.139296,14.978306 C51.2291524,14.978306 51.3171356,14.982986 51.403248,14.992346 C51.4893604,15.001706 51.5642397,15.01013 51.627888,15.017618 C51.7027684,15.0288501 51.7757756,15.0400819 51.846912,15.051314 L51.846912,15.388274 Z M54.368496,17.83685 L54.037152,16.842818 C54.0071999,16.7492175 53.9678882,16.6659144 53.919216,16.592906 C53.8705438,16.5198976 53.8256162,16.4590582 53.784432,16.410386 C53.7320157,16.3542257 53.6796003,16.3055542 53.627184,16.26437 L53.166672,16.775426 L53.166672,17.83685 L52.76232,17.83685 L52.76232,13.56869 L53.166672,13.56869 L53.166672,16.354226 L54.211248,15.02885 L54.716688,15.02885 L53.85744,15.994802 C53.9360644,16.0547063 54.0090717,16.1220976 54.076464,16.196978 C54.1363683,16.2606263 54.1962717,16.3373776 54.256176,16.427234 C54.3160803,16.5170904 54.3666238,16.6144335 54.407808,16.719266 L54.81216,17.83685 L54.368496,17.83685 Z M55.508544,15.146786 C55.6058885,15.1168339 55.7125914,15.0887541 55.828656,15.062546 C55.9260005,15.0438259 56.0373834,15.0251061 56.162808,15.006386 C56.2882326,14.9876659 56.4202073,14.978306 56.558736,14.978306 C56.7047527,14.978306 56.8311115,14.9904739 56.937816,15.01481 C57.0445205,15.0391461 57.1325037,15.0793937 57.201768,15.135554 C57.2710323,15.1917143 57.3225118,15.2675295 57.356208,15.363002 C57.3899042,15.4584745 57.406752,15.5792173 57.406752,15.725234 L57.406752,17.83685 L57.097872,17.83685 L57.041712,17.55605 C56.9406235,17.6196983 56.8414085,17.6758578 56.744064,17.72453 C56.6579516,17.7657142 56.5643525,17.8031538 56.463264,17.83685 C56.3621755,17.8705462 56.2629605,17.887394 56.165616,17.887394 C56.0233433,17.887394 55.9016645,17.8649302 55.800576,17.820002 C55.6994875,17.7750738 55.6161843,17.7151704 55.550664,17.64029 C55.4851437,17.5654096 55.4364722,17.4774265 55.404648,17.376338 C55.3728238,17.2752495 55.356912,17.1685466 55.356912,17.056226 C55.356912,16.9139533 55.3812478,16.7866586 55.42992,16.674338 C55.4785922,16.5620174 55.5459836,16.4674824 55.632096,16.39073 C55.7182084,16.3139776 55.8221034,16.2550102 55.943784,16.213826 C56.0654646,16.1726418 56.1974393,16.15205 56.339712,16.15205 L57.0024,16.15205 L57.0024,15.826322 C57.0024,15.635377 56.9658964,15.5034024 56.892888,15.430394 C56.8198796,15.3573856 56.680417,15.320882 56.474496,15.320882 C56.3771515,15.320882 56.2723206,15.3311779 56.16,15.35177 C56.0476794,15.3723621 55.9428485,15.3938899 55.845504,15.416354 C55.7331834,15.4425621 55.6208646,15.4725138 55.508544,15.50621 L55.508544,15.146786 Z M55.761264,17.02253 C55.761264,17.1797788 55.8024476,17.3052015 55.884816,17.398802 C55.9671844,17.4924025 56.0851192,17.539202 56.238624,17.539202 C56.3135044,17.539202 56.3958716,17.5251621 56.485728,17.497082 C56.5755844,17.4690019 56.6579516,17.4362422 56.732832,17.398802 C56.8226884,17.3576178 56.9125436,17.3089463 57.0024,17.252786 L57.0024,16.472162 L56.38464,16.472162 C56.2049271,16.472162 56.0561046,16.5180255 55.938168,16.609754 C55.8202314,16.7014825 55.761264,16.8390731 55.761264,17.02253 Z M60.057504,17.83685 L60.057504,15.893714 C60.057504,15.8038576 60.0518881,15.7233624 60.040656,15.652226 C60.0294239,15.5810896 60.0078962,15.5211862 59.976072,15.472514 C59.9442478,15.4238418 59.9002563,15.3864021 59.844096,15.360194 C59.7879357,15.3339859 59.7130565,15.320882 59.619456,15.320882 C59.5221115,15.320882 59.4228965,15.3358579 59.321808,15.36581 C59.2207195,15.3957621 59.1289924,15.4294578 59.046624,15.466898 C58.9492795,15.5080822 58.8556804,15.5548817 58.765824,15.607298 L58.765824,17.83685 L58.361472,17.83685 L58.361472,15.02885 L58.670352,15.02885 L58.726512,15.30965 C58.8276005,15.2497457 58.9324315,15.1954582 59.041008,15.146786 C59.1346085,15.1056018 59.2394394,15.0672262 59.355504,15.031658 C59.4715686,14.9960898 59.5876314,14.978306 59.703696,14.978306 C59.8646888,14.978306 59.9947915,15.0026418 60.094008,15.051314 C60.1932245,15.0999862 60.2699757,15.1626976 60.324264,15.23945 C60.3785523,15.3162024 60.4150559,15.4004415 60.433776,15.49217 C60.4524961,15.5838985 60.461856,15.6746896 60.461856,15.764546 L60.461856,17.83685 L60.057504,17.83685 Z M61.231248,17.83685 L61.231248,17.505506 L62.680176,15.382658 L61.29864,15.382658 L61.29864,15.02885 L63.135072,15.02885 L63.135072,15.360194 L61.686144,17.477426 L63.185616,17.477426 L63.185616,17.83685 L61.231248,17.83685 Z M64.370592,17.83685 L63.96624,17.83685 L63.96624,13.56869 L64.370592,13.56869 L64.370592,17.83685 Z M67.144896,17.707682 C67.0587836,17.7413782 66.9670565,17.7713299 66.869712,17.797538 C66.7835996,17.8200021 66.6843846,17.8396579 66.572064,17.856506 C66.4597434,17.8733541 66.3399366,17.881778 66.21264,17.881778 C65.8457262,17.881778 65.5752249,17.7582272 65.401128,17.511122 C65.2270311,17.2640168 65.139984,16.9214442 65.139984,16.483394 C65.139984,16.2325447 65.1689997,16.0125869 65.227032,15.823514 C65.2850643,15.6344411 65.3664955,15.4762586 65.471328,15.348962 C65.5761605,15.2216654 65.7006473,15.1271303 65.844792,15.065354 C65.9889367,15.0035777 66.1471191,14.97269 66.319344,14.97269 C66.5889133,14.97269 66.8023192,15.0382093 66.959568,15.16925 C67.1168168,15.3002907 67.19544,15.4949767 67.19544,15.753314 C67.19544,15.9367709 67.1626803,16.0855934 67.09716,16.199786 C67.0316397,16.3139786 66.9474005,16.4038337 66.84444,16.469354 C66.7414795,16.5348743 66.6244807,16.5788659 66.49344,16.60133 C66.3623993,16.6237941 66.2313607,16.635026 66.10032,16.635026 L65.549952,16.635026 C65.5611841,16.7660667 65.5799039,16.8868094 65.606112,16.997258 C65.6323201,17.1077066 65.6735037,17.2022416 65.729664,17.280866 C65.7858243,17.3594904 65.8588316,17.4212658 65.948688,17.466194 C66.0385444,17.5111222 66.1508633,17.533586 66.285648,17.533586 C66.3829925,17.533586 66.4812715,17.5242261 66.580488,17.505506 C66.6797045,17.4867859 66.7723676,17.4661941 66.85848,17.44373 C66.9558245,17.4175219 67.0512955,17.3856982 67.144896,17.348258 L67.144896,17.707682 Z M66.10032,16.303682 C66.3361932,16.303682 66.5102874,16.2568825 66.622608,16.163282 C66.7349286,16.0696815 66.791088,15.9442588 66.791088,15.78701 C66.791088,15.6372493 66.7508404,15.5211864 66.670344,15.438818 C66.5898476,15.3564496 66.4728488,15.315266 66.319344,15.315266 C66.1957914,15.315266 66.0862805,15.3414737 65.990808,15.39389 C65.8953355,15.4463063 65.8157763,15.5174416 65.752128,15.607298 C65.6884797,15.6971544 65.6388722,15.8019854 65.603304,15.921794 C65.5677358,16.0416026 65.54808,16.1688973 65.544336,16.303682 L66.10032,16.303682 Z M68.425344,17.83685 L68.020992,17.83685 L68.020992,15.02885 L68.425344,15.02885 L68.425344,17.83685 Z M67.903056,14.135906 C67.903056,14.0423055 67.9348797,13.9636823 67.998528,13.900034 C68.0621763,13.8363857 68.1407995,13.804562 68.2344,13.804562 C68.3280005,13.804562 68.4066237,13.8363857 68.470272,13.900034 C68.5339203,13.9636823 68.565744,14.0423055 68.565744,14.135906 C68.565744,14.2295065 68.5339203,14.3081297 68.470272,14.371778 C68.4066237,14.4354263 68.3280005,14.46725 68.2344,14.46725 C68.1407995,14.46725 68.0621763,14.4354263 67.998528,14.371778 C67.9348797,14.3081297 67.903056,14.2295065 67.903056,14.135906 Z" id="DerregierendeBrgermeistervonBerlinSenatskanzlei-Copy" fill-rule="nonzero"></path>
            <rect id="Rectangle-Copy-18" x="77.90832" y="0" width="1" height="22.5"></rect>
        </g>
    </g>
</svg>