<?xml version="1.0" encoding="UTF-8" standalone="no"?>
<!DOCTYPE svg PUBLIC "-//W3C//DTD SVG 1.1//EN" "http://www.w3.org/Graphics/SVG/1.1/DTD/svg11.dtd">
<svg width="100%" height="100%" viewBox="0 0 899 770" version="1.1" xmlns="http://www.w3.org/2000/svg" xmlns:xlink="http://www.w3.org/1999/xlink" xml:space="preserve" xmlns:serif="http://www.serif.com/" style="fill-rule:evenodd;clip-rule:evenodd;stroke-linejoin:round;stroke-miterlimit:2;">
    <g id="CBF_FullLogo_Positiv" transform="matrix(0.948312,0,0,0.948086,0,0)">
        <rect x="0" y="0" width="948" height="812.163" style="fill:none;"/>
        <g id="Graphic" transform="matrix(1.05508,0,0,1.05496,-24.6417,-23.8289)">
            <path id="Signet" d="M433.637,233.77C407.114,248.015 384.884,266.792 366.766,290.241C343.168,320.79 328.334,358.092 324.482,396.585C319.878,442.586 330.541,488.233 355.109,527.647C383.413,573.072 428.148,605.692 480.394,619.002C490.878,621.678 502.396,623.632 513.264,624.6C520.164,625.203 525.479,625.426 532.814,625.396L537.1,625.376L564.483,679.207C589.728,728.83 591.961,733.242 593.031,735.641C595.045,740.137 597.717,745.12 600.155,748.906C612.989,768.87 633.175,783.193 656.431,788.839C667.034,791.417 678.295,792.092 689.159,790.811C697.125,789.873 705.158,787.836 712.612,784.861C715.494,783.714 716.674,783.17 720.337,781.318C724.011,779.451 725.158,778.803 727.791,777.147C746.24,765.54 759.899,748.018 766.659,727.286C770.591,715.211 772.028,702.601 770.892,690.038C769.954,679.793 767.4,670.024 763.122,660.412C762.669,659.391 741.908,618.482 699.259,534.556C653.585,444.678 636.083,410.182 636.113,410.092C636.16,409.947 634.672,407.294 633.513,405.474C626.237,393.948 615.411,385.068 602.603,380.117C600.953,379.48 597.05,378.232 595.368,377.807C583.81,374.892 571.785,375.25 560.459,378.839C557.446,379.8 555.032,380.766 551.884,382.29C538.514,388.767 527.936,399.616 521.758,413.187C519.577,417.975 517.91,423.351 517.006,428.518C515.814,435.362 515.732,442.166 516.759,449.003C517.654,454.917 519.227,460.217 521.774,465.927C522.733,468.073 622.941,665.265 623.607,666.3C629.34,675.303 641.023,678.5 650.546,673.66C656.766,670.5 660.935,664.533 661.776,657.587C662.171,654.286 661.754,650.874 660.564,647.724C660.367,647.189 645.344,617.57 610.065,548.148C576.186,481.479 559.706,448.995 559.415,448.293C558.212,445.393 557.678,442.89 557.629,439.908C557.591,437.499 557.886,435.397 558.597,433.084C559.891,428.831 562.336,425.169 565.729,422.399C567.014,421.345 567.904,420.78 569.715,419.86C571.593,418.906 572.536,418.538 574.321,418.08C580.32,416.544 586.99,417.74 592.226,421.299C594.436,422.801 596.528,424.894 597.923,426.997C598.34,427.616 610.327,451.186 662.047,553.037C721.866,670.842 725.68,678.384 726.112,679.528C727.65,683.621 728.563,687.033 729.135,690.842C731.299,705.283 727.158,720.07 717.789,731.369C711.508,738.95 703.029,744.594 693.416,747.602C680.136,751.754 665.373,750.179 653.115,743.296C646.141,739.387 640.268,734.022 635.854,727.542L635.076,726.397L600.963,659.305C568.223,594.916 566.828,592.188 566.321,591.503C563.429,587.63 560.013,585.136 555.681,583.741C553.546,583.052 551.586,582.74 549.385,582.747C547.788,582.746 546.79,582.842 545.165,583.155C542.049,583.748 532.537,584.015 524.988,583.714C504.224,582.9 483.299,578.039 464.199,569.6C437.566,557.843 414.666,539.502 397.539,516.218C386.009,500.55 377.271,482.95 371.75,464.276C365.78,444.092 363.723,422.658 365.753,401.622C367.999,378.365 375.043,355.93 386.479,335.596C399.377,312.66 417.318,293.345 439.232,278.781C449.669,271.843 461.11,265.982 472.952,261.515C499.041,251.657 527.201,248.572 554.907,252.536C561.877,253.533 568.723,254.967 575.806,256.905C580.036,258.062 587.79,260.64 592.009,262.288C614.217,270.979 634.066,284.091 650.564,300.97C668.287,319.103 681.83,341.49 689.77,365.753C698.956,393.847 700.461,423.659 694.149,452.717C693.372,456.278 692.682,458.945 691.981,461.057C690.973,464.091 690.624,465.977 690.614,468.401C690.606,471.823 691.345,474.913 692.895,477.963C694.008,480.153 695.113,481.683 696.863,483.418C701.477,488.013 708.007,490.167 714.506,489.246C717.006,488.891 718.637,488.37 721.027,487.156C722.949,486.179 723.713,485.679 725.157,484.44C728.697,481.427 731.179,477.215 732.103,472.655C732.215,472.084 732.475,470.981 732.683,470.212C743.05,430.903 741.632,389.279 728.617,350.859C722.478,332.751 713.805,315.389 702.985,299.593C678.516,263.847 643.543,236.781 602.547,221.845C565.208,208.245 524.68,205.642 485.878,214.358C471.727,217.534 457.995,222.195 444.363,228.45C442.373,229.368 435.403,232.817 433.637,233.77Z" style="fill:rgb(60,255,140);fill-rule:nonzero;"/>
            <g id="Text--Vector-" serif:id="Text (Vector)">
                <g id="Festival" transform="matrix(1.03661,0,0,1.03661,-22.7334,356.218)">
                    <g transform="matrix(93.5745,0,0,93.5745,40.1537,276.299)">
                        <path d="M0.552,-0.712L0.083,-0.712L0.083,-0L0.222,-0L0.222,-0.289L0.504,-0.289L0.504,-0.413L0.222,-0.413L0.222,-0.588L0.552,-0.588L0.552,-0.712Z" style="fill:rgb(30,37,123);fill-rule:nonzero;"/>
                    </g>
                    <g transform="matrix(93.5745,0,0,93.5745,95.3626,276.299)">
                        <path d="M0.552,-0.712L0.083,-0.712L0.083,-0L0.552,-0L0.552,-0.124L0.222,-0.124L0.222,-0.297L0.504,-0.297L0.504,-0.421L0.222,-0.421L0.222,-0.588L0.552,-0.588L0.552,-0.712Z" style="fill:rgb(30,37,123);fill-rule:nonzero;"/>
                    </g>
                    <g transform="matrix(93.5745,0,0,93.5745,151.975,276.299)">
                        <path d="M0.295,-0.718C0.141,-0.718 0.047,-0.629 0.047,-0.502C0.047,-0.442 0.064,-0.395 0.098,-0.362C0.13,-0.331 0.176,-0.312 0.236,-0.303L0.321,-0.29C0.355,-0.285 0.371,-0.279 0.385,-0.266C0.4,-0.251 0.407,-0.231 0.407,-0.207C0.407,-0.15 0.363,-0.118 0.28,-0.118C0.215,-0.118 0.154,-0.133 0.109,-0.178L0.019,-0.088C0.089,-0.017 0.171,0.006 0.279,0.006C0.429,0.006 0.543,-0.072 0.543,-0.21C0.543,-0.274 0.526,-0.324 0.488,-0.36C0.457,-0.39 0.417,-0.407 0.352,-0.416L0.267,-0.429C0.237,-0.433 0.216,-0.443 0.202,-0.456C0.187,-0.47 0.181,-0.488 0.181,-0.507C0.181,-0.556 0.217,-0.597 0.291,-0.597C0.356,-0.597 0.399,-0.586 0.437,-0.548L0.525,-0.635C0.464,-0.694 0.393,-0.718 0.295,-0.718Z" style="fill:rgb(30,37,123);fill-rule:nonzero;"/>
                    </g>
                    <g transform="matrix(93.5745,0,0,93.5745,206.623,276.299)">
                        <path d="M0.541,-0.712L0.03,-0.712L0.03,-0.588L0.216,-0.588L0.216,-0L0.355,-0L0.355,-0.588L0.541,-0.588L0.541,-0.712Z" style="fill:rgb(30,37,123);fill-rule:nonzero;"/>
                    </g>
                    <g transform="matrix(93.5745,0,0,93.5745,260.054,276.299)">
                        <rect x="0.083" y="-0.712" width="0.139" height="0.712" style="fill:rgb(30,37,123);fill-rule:nonzero;"/>
                    </g>
                    <g transform="matrix(93.5745,0,0,93.5745,288.687,276.299)">
                        <path d="M0.267,0L0.378,-0.128L0.389,-0.138L0.578,-0.712L0.433,-0.712L0.291,-0.249L0.147,-0.712L0.003,-0.712L0.238,0L0.267,0Z" style="fill:rgb(30,37,123);"/>
                    </g>
                    <g transform="matrix(93.5745,0,0,93.5745,288.687,276.299)">
                        <path d="M0.343,0L0.267,0L0.378,-0.128L0.389,-0.138L0.343,0Z" style="fill:rgb(55,222,137);"/>
                    </g>
                    <g transform="matrix(0.964685,0,0,0.964685,21.9306,-343.638)">
                        <path d="M335.765,625.696C338.23,626.679 340.501,628.177 342.458,630.13C344.001,631.663 345.277,633.407 346.244,635.302L347.914,630.409L372.358,630.409L376.432,642.631L390.594,642.631L365.374,573.567L354.801,573.567L335.765,625.696ZM360.136,594.034L368.575,619.06L351.6,619.06L360.136,594.034Z" style="fill:rgb(30,37,123);"/>
                    </g>
                    <g transform="matrix(0.00716033,-0.00363868,-0.00363868,-0.00716033,506.719,890.345)">
                        <path d="M17699.7,79043.9L16116,77567.1L17632.4,76796.5L18299,77445.1C18298.5,77700.7 18256.8,77956.8 18175,78205C18071.7,78520.6 17910.1,78804.5 17699.7,79043.9Z" style="fill:rgb(55,222,137);"/>
                    </g>
                    <g transform="matrix(93.5745,0,0,93.5745,399.105,276.299)">
                        <path d="M0.222,-0.712L0.083,-0.712L0.083,-0L0.545,-0L0.545,-0.124L0.222,-0.124L0.222,-0.712Z" style="fill:rgb(30,37,123);fill-rule:nonzero;"/>
                    </g>
                </g>
                <g id="Bureaucracy" transform="matrix(1.03661,0,0,1.03661,-22.9964,252.583)">
                    <g transform="matrix(93.5745,0,0,93.5745,40.1537,276.299)">
                        <path d="M0.083,-0.712L0.083,-0L0.381,-0C0.508,-0 0.6,-0.072 0.6,-0.205C0.6,-0.3 0.545,-0.345 0.501,-0.365C0.537,-0.383 0.589,-0.433 0.589,-0.512C0.589,-0.633 0.508,-0.712 0.368,-0.712L0.083,-0.712ZM0.368,-0.299C0.43,-0.299 0.461,-0.261 0.461,-0.212C0.461,-0.162 0.43,-0.124 0.368,-0.124L0.222,-0.124L0.222,-0.299L0.368,-0.299ZM0.359,-0.588C0.418,-0.588 0.45,-0.555 0.45,-0.506C0.45,-0.456 0.418,-0.423 0.359,-0.423L0.222,-0.423L0.222,-0.588L0.359,-0.588Z" style="fill:rgb(30,37,123);fill-rule:nonzero;"/>
                    </g>
                    <g transform="matrix(93.5745,0,0,93.5745,101.726,276.299)">
                        <path d="M0.596,-0.712L0.457,-0.712L0.457,-0.249C0.457,-0.168 0.408,-0.118 0.333,-0.118C0.258,-0.118 0.211,-0.168 0.211,-0.249L0.211,-0.712L0.072,-0.712L0.072,-0.244C0.072,-0.093 0.187,0.006 0.333,0.006C0.48,0.006 0.596,-0.093 0.596,-0.244L0.596,-0.712Z" style="fill:rgb(30,37,123);fill-rule:nonzero;"/>
                    </g>
                    <g transform="matrix(93.5745,0,0,93.5745,164.233,276.299)">
                        <path d="M0.083,-0.712L0.083,-0L0.222,-0L0.222,-0.284L0.322,-0.284L0.461,-0L0.622,-0L0.463,-0.307C0.532,-0.331 0.593,-0.394 0.593,-0.494C0.593,-0.613 0.508,-0.712 0.362,-0.712L0.083,-0.712ZM0.354,-0.588C0.415,-0.588 0.454,-0.55 0.454,-0.495C0.454,-0.439 0.415,-0.401 0.354,-0.401L0.222,-0.401L0.222,-0.588L0.354,-0.588Z" style="fill:rgb(30,37,123);fill-rule:nonzero;"/>
                    </g>
                    <g transform="matrix(93.5745,0,0,93.5745,225.431,276.299)">
                        <path d="M0.552,-0.712L0.083,-0.712L0.083,-0L0.552,-0L0.552,-0.124L0.222,-0.124L0.222,-0.297L0.504,-0.297L0.504,-0.421L0.222,-0.421L0.222,-0.588L0.552,-0.588L0.552,-0.712Z" style="fill:rgb(30,37,123);fill-rule:nonzero;"/>
                    </g>
                    <g transform="matrix(93.5745,0,0,93.5745,282.044,276.299)">
                        <path d="M0.373,-0.712L0.264,-0.712L0.004,-0L0.15,-0L0.193,-0.126L0.445,-0.126L0.487,-0L0.633,-0L0.373,-0.712ZM0.319,-0.501L0.406,-0.243L0.231,-0.243L0.319,-0.501Z" style="fill:rgb(30,37,123);fill-rule:nonzero;"/>
                    </g>
                    <g transform="matrix(93.5745,0,0,93.5745,341.651,276.299)">
                        <path d="M0.596,-0.712L0.457,-0.712L0.457,-0.249C0.457,-0.168 0.408,-0.118 0.333,-0.118C0.258,-0.118 0.211,-0.168 0.211,-0.249L0.211,-0.712L0.072,-0.712L0.072,-0.244C0.072,-0.093 0.187,0.006 0.333,0.006C0.48,0.006 0.596,-0.093 0.596,-0.244L0.596,-0.712Z" style="fill:rgb(30,37,123);fill-rule:nonzero;"/>
                    </g>
                    <g transform="matrix(93.5745,0,0,93.5745,404.158,276.299)">
                        <path d="M0.322,-0.718C0.24,-0.718 0.18,-0.691 0.131,-0.643C0.06,-0.572 0.059,-0.492 0.059,-0.356C0.059,-0.22 0.06,-0.14 0.131,-0.069C0.18,-0.021 0.24,0.006 0.322,0.006C0.455,0.006 0.558,-0.07 0.583,-0.219L0.442,-0.219C0.428,-0.161 0.391,-0.118 0.322,-0.118C0.284,-0.118 0.253,-0.132 0.233,-0.155C0.207,-0.185 0.198,-0.22 0.198,-0.356C0.198,-0.492 0.207,-0.527 0.233,-0.557C0.253,-0.58 0.284,-0.594 0.322,-0.594C0.391,-0.594 0.428,-0.551 0.442,-0.493L0.583,-0.493C0.558,-0.642 0.455,-0.718 0.322,-0.718Z" style="fill:rgb(30,37,123);fill-rule:nonzero;"/>
                    </g>
                    <g transform="matrix(93.5745,0,0,93.5745,462.175,276.299)">
                        <path d="M0.083,-0.712L0.083,-0L0.222,-0L0.222,-0.284L0.322,-0.284L0.461,-0L0.622,-0L0.463,-0.307C0.532,-0.331 0.593,-0.394 0.593,-0.494C0.593,-0.613 0.508,-0.712 0.362,-0.712L0.083,-0.712ZM0.354,-0.588C0.415,-0.588 0.454,-0.55 0.454,-0.495C0.454,-0.439 0.415,-0.401 0.354,-0.401L0.222,-0.401L0.222,-0.588L0.354,-0.588Z" style="fill:rgb(30,37,123);fill-rule:nonzero;"/>
                    </g>
                    <g transform="matrix(93.5745,0,0,93.5745,523.372,276.299)">
                        <path d="M0.373,-0.712L0.264,-0.712L0.004,-0L0.15,-0L0.193,-0.126L0.445,-0.126L0.487,-0L0.633,-0L0.373,-0.712ZM0.319,-0.501L0.406,-0.243L0.231,-0.243L0.319,-0.501Z" style="fill:rgb(30,37,123);fill-rule:nonzero;"/>
                    </g>
                    <g transform="matrix(93.5745,0,0,93.5745,582.043,276.299)">
                        <path d="M0.322,-0.718C0.24,-0.718 0.18,-0.691 0.131,-0.643C0.06,-0.572 0.059,-0.492 0.059,-0.356C0.059,-0.22 0.06,-0.14 0.131,-0.069C0.18,-0.021 0.24,0.006 0.322,0.006C0.455,0.006 0.558,-0.07 0.583,-0.219L0.442,-0.219C0.428,-0.161 0.391,-0.118 0.322,-0.118C0.284,-0.118 0.253,-0.132 0.233,-0.155C0.207,-0.185 0.198,-0.22 0.198,-0.356C0.198,-0.492 0.207,-0.527 0.233,-0.557C0.253,-0.58 0.284,-0.594 0.322,-0.594C0.391,-0.594 0.428,-0.551 0.442,-0.493L0.583,-0.493C0.558,-0.642 0.455,-0.718 0.322,-0.718Z" style="fill:rgb(30,37,123);fill-rule:nonzero;"/>
                    </g>
                    <g transform="matrix(93.5745,0,0,93.5745,639.124,276.299)">
                        <path d="M0.569,-0.712L0.418,-0.712L0.287,-0.425L0.154,-0.712L0.003,-0.712L0.216,-0.291L0.216,-0L0.355,-0L0.355,-0.291L0.569,-0.712Z" style="fill:rgb(30,37,123);fill-rule:nonzero;"/>
                    </g>
                </g>
                <g id="Creative" transform="matrix(1.03661,0,0,1.03661,-22.9918,148.947)">
                    <g transform="matrix(93.5745,0,0,93.5745,40.1537,276.299)">
                        <path d="M0.322,-0.718C0.24,-0.718 0.18,-0.691 0.131,-0.643C0.06,-0.572 0.059,-0.492 0.059,-0.356C0.059,-0.22 0.06,-0.14 0.131,-0.069C0.18,-0.021 0.24,0.006 0.322,0.006C0.455,0.006 0.558,-0.07 0.583,-0.219L0.442,-0.219C0.428,-0.161 0.391,-0.118 0.322,-0.118C0.284,-0.118 0.253,-0.132 0.233,-0.155C0.207,-0.185 0.198,-0.22 0.198,-0.356C0.198,-0.492 0.207,-0.527 0.233,-0.557C0.253,-0.58 0.284,-0.594 0.322,-0.594C0.391,-0.594 0.428,-0.551 0.442,-0.493L0.583,-0.493C0.558,-0.642 0.455,-0.718 0.322,-0.718Z" style="fill:rgb(30,37,123);fill-rule:nonzero;"/>
                    </g>
                    <g transform="matrix(93.5745,0,0,93.5745,98.1699,276.299)">
                        <path d="M0.083,-0.712L0.083,-0L0.222,-0L0.222,-0.284L0.322,-0.284L0.461,-0L0.622,-0L0.463,-0.307C0.532,-0.331 0.593,-0.394 0.593,-0.494C0.593,-0.613 0.508,-0.712 0.362,-0.712L0.083,-0.712ZM0.354,-0.588C0.415,-0.588 0.454,-0.55 0.454,-0.495C0.454,-0.439 0.415,-0.401 0.354,-0.401L0.222,-0.401L0.222,-0.588L0.354,-0.588Z" style="fill:rgb(30,37,123);fill-rule:nonzero;"/>
                    </g>
                    <g transform="matrix(0.00716033,-0.00363868,-0.00363868,-0.00716033,506.968,1090.3)">
                        <path d="M13640,108175C11403.2,109105 8837.52,110164 8730,110200L8563.59,110247L8193.35,109518L13064.5,107043L13640,108175Z" style="fill:rgb(55,222,137);"/>
                    </g>
                    <g transform="matrix(93.5745,0,0,93.5745,159.368,276.299)">
                        <path d="M0.083,-0.07L0.098,-0.073C0.107,-0.075 0.345,-0.093 0.552,-0.109L0.552,-0.124L0.222,-0.124L0.222,-0.297L0.504,-0.297L0.504,-0.421L0.222,-0.421L0.222,-0.588L0.552,-0.588L0.552,-0.712L0.083,-0.712L0.083,-0.07Z" style="fill:rgb(30,37,123);"/>
                    </g>
                    <g transform="matrix(0.00716033,-0.00363868,-0.00363868,-0.00716033,506.968,1090.3)">
                        <path d="M14713.3,107727L13656.6,106742L15173,105971L16284.6,107053L17407.6,106482C17271.5,106607 17117.1,106709 16952,106793L14713.3,107727Z" style="fill:rgb(55,222,137);"/>
                    </g>
                    <g transform="matrix(0.964685,0,0,0.964685,22.1799,-143.687)">
                        <path d="M205.409,424.06L225.55,422.55C227.091,422.549 228.624,422.727 230.104,423.138L244.06,423.138L248.134,435.36L262.296,435.36L237.076,366.296L226.503,366.296L205.409,424.06ZM231.838,386.763L240.277,411.789L223.302,411.789L231.838,386.763Z" style="fill:rgb(30,37,123);"/>
                    </g>
                    <g transform="matrix(93.5745,0,0,93.5745,269.318,276.299)">
                        <path d="M0.541,-0.712L0.03,-0.712L0.03,-0.588L0.216,-0.588L0.216,-0L0.355,-0L0.355,-0.588L0.541,-0.588L0.541,-0.712Z" style="fill:rgb(30,37,123);fill-rule:nonzero;"/>
                    </g>
                    <g transform="matrix(93.5745,0,0,93.5745,322.749,276.299)">
                        <rect x="0.083" y="-0.712" width="0.139" height="0.712" style="fill:rgb(30,37,123);fill-rule:nonzero;"/>
                    </g>
                    <g transform="matrix(93.5745,0,0,93.5745,351.382,276.299)">
                        <path d="M0.578,-0.712L0.433,-0.712L0.291,-0.249L0.147,-0.712L0.003,-0.712L0.238,-0L0.343,-0L0.578,-0.712Z" style="fill:rgb(30,37,123);fill-rule:nonzero;"/>
                    </g>
                    <g transform="matrix(93.5745,0,0,93.5745,405.749,276.299)">
                        <path d="M0.552,-0.712L0.083,-0.712L0.083,-0L0.552,-0L0.552,-0.124L0.222,-0.124L0.222,-0.297L0.504,-0.297L0.504,-0.421L0.222,-0.421L0.222,-0.588L0.552,-0.588L0.552,-0.712Z" style="fill:rgb(30,37,123);fill-rule:nonzero;"/>
                    </g>
                </g>
            </g>
            <path id="Halo" d="M314.227,629.198L309.793,642.631L302.439,642.631C288.433,658.892 265.707,685.476 265.07,686.341C261.866,690.659 260.513,696.101 261.289,701.58C261.614,703.909 262.184,705.693 263.297,707.901C264.575,710.454 265.969,712.277 268.006,714.1C273.579,719.057 281.085,720.613 288.394,718.327C289.635,717.939 292.79,716.336 293.909,715.525C294.906,714.803 296.227,713.636 296.959,712.835C298.128,711.569 344.083,657.826 344.578,657.163C347.257,653.523 348.655,649.142 348.592,644.57C348.544,641.306 347.735,638.137 346.244,635.302L343.743,642.631L329.581,642.631L335.765,625.696C331.206,623.776 326.001,623.569 321.012,625.235C320.247,625.493 317.518,626.758 317.085,627.063C316.973,627.138 316.577,627.405 316.213,627.646C315.579,628.064 314.875,628.608 314.227,629.198ZM154.924,427.984L154.658,428.006L154.438,428.025C154.092,428.053 153.774,428.08 153.487,428.105L153.431,428.11L153.037,428.144L152.959,428.151C152.793,428.165 152.642,428.178 152.507,428.191L152.959,428.151L153.037,428.144L153.487,428.105L154.438,428.025L154.874,427.988L154.924,427.984C162.108,427.386 179.847,425.996 195.754,424.784L195.754,435.36L150.261,435.36L150.261,428.556L151.672,428.274L151.696,428.27C151.687,428.272 151.678,428.273 151.672,428.274C149.295,428.632 146.764,429.497 144.713,430.661C140.183,433.215 136.748,437.408 135.138,442.326C133.71,446.703 133.79,451.491 135.379,455.979C135.721,456.945 136.988,459.439 137.567,460.284C139.477,463.068 141.908,465.316 144.737,466.913C147.899,468.687 151.386,469.577 155.031,469.527C156.74,469.508 227.302,464.041 228.652,463.831C229.724,463.66 231.106,463.312 232.292,462.924C233.626,462.48 236.149,461.179 237.38,460.292C239.244,458.943 240.672,457.545 242.052,455.704C245.555,451.02 246.906,445.131 245.792,439.337C245.464,437.627 244.982,436.181 244.155,434.444C242.66,431.3 240.776,428.952 238.085,426.873C234.639,424.209 230.485,422.704 226.231,422.561L226.197,422.56L226.181,422.559L226.137,422.558L226.098,422.557C226.043,422.555 225.988,422.554 225.932,422.553L226.098,422.557L226.181,422.559L226.231,422.561C227.542,422.606 228.842,422.788 230.104,423.138L219.616,423.138L215.445,435.36L201.283,435.36L205.409,424.06L225.55,422.55C224.181,422.545 169.067,426.806 154.924,427.984ZM225.865,422.552L225.891,422.552L225.85,422.552L225.865,422.552ZM818.883,372.072C816.339,373.682 814.588,375.272 812.971,377.439C811.458,379.459 810.487,381.354 809.743,383.768C808.438,387.961 808.496,392.321 809.917,396.642C810.342,397.939 811.723,400.656 812.546,401.797C813.241,402.779 814.629,404.371 815.352,405.041C819.353,408.723 824.441,410.723 829.657,410.659C830.945,410.64 901.534,405.187 902.947,404.991C904.056,404.839 905.253,404.567 906.424,404.205C907.669,403.825 910.156,402.654 911.32,401.894C915.677,399.092 918.991,394.513 920.206,389.646C921.527,384.342 920.867,379.093 918.305,374.436C916.802,371.717 915.016,369.655 912.531,367.798C908.834,365.026 904.461,363.587 899.919,363.654C898.627,363.666 827.972,369.135 826.725,369.31C825.048,369.556 823.668,369.911 822.105,370.51C821.158,370.869 819.539,371.654 818.883,372.072ZM234.314,156.168C226.478,161.112 222.835,170.482 225.283,179.361C225.676,180.777 226.081,181.814 226.846,183.302C227.914,185.384 229.112,187.025 230.772,188.638C231.998,189.836 285.726,235.799 286.912,236.663C291.952,240.35 298.568,241.517 304.686,239.79C307.637,238.963 310.587,237.343 312.849,235.325C315.725,232.752 317.704,229.663 318.857,225.958C320.225,221.555 320.121,217.125 318.547,212.63C318.114,211.411 316.817,208.951 316.002,207.806C315.243,206.753 314.099,205.439 313.301,204.696C312.121,203.605 258.419,157.694 257.678,157.137C255.848,155.778 253.954,154.789 251.794,154.085C247.435,152.657 242.967,152.686 238.486,154.179C237.45,154.528 235.252,155.57 234.314,156.168ZM762.606,116.693C761.07,117.604 759.381,118.929 758.235,120.128C757.214,121.207 711.277,174.913 710.487,175.95C706.345,181.454 705.275,188.629 707.586,195.364C707.977,196.501 709.41,199.266 710.113,200.244C711.447,202.097 712.909,203.596 714.72,204.954C722.611,210.872 733.578,210.417 740.948,203.86C741.43,203.429 742.092,202.784 742.428,202.417C743.918,200.773 789.282,147.704 789.891,146.88C793.228,142.42 794.59,136.536 793.589,130.927C793.257,129.079 792.785,127.6 791.947,125.784C788.582,118.557 781.354,113.908 773.359,113.834C770.351,113.813 767.618,114.37 764.796,115.58C764.168,115.852 763.596,116.106 763.541,116.143C763.481,116.173 763.058,116.426 762.606,116.693ZM489.479,26.454C487.536,27.703 486.539,28.48 485.274,29.758C483.606,31.437 482.013,33.778 481.025,35.97C479.888,38.51 479.231,41.701 479.279,44.516C479.3,45.99 484.799,116.761 484.99,118.055C485.169,119.272 485.516,120.636 485.964,121.903C486.404,123.155 487.551,125.411 488.303,126.505C493.851,134.593 503.936,137.733 513.092,134.23C514.333,133.749 516.696,132.463 517.745,131.678C521.436,128.944 523.989,125.367 525.335,121.069C525.973,119.036 526.267,117.243 526.294,115.165C526.311,113.802 520.791,42.603 520.55,41.063C520.193,38.798 519.612,37.048 518.491,34.862C517.402,32.754 516.289,31.209 514.715,29.655C509.026,24.01 500.849,22.142 493.21,24.735C492.396,25.009 490.02,26.104 489.479,26.454Z" style="fill:rgb(60,255,140);"/>
        </g>
    </g>
</svg>
