<?xml version="1.0" encoding="UTF-8"?>
<svg width="2656px" height="496px" viewBox="0 0 2656 496" version="1.1" xmlns="http://www.w3.org/2000/svg" xmlns:xlink="http://www.w3.org/1999/xlink">
    <!-- Generator: Sketch 54.1 (76490) - https://sketchapp.com -->
    <title>organiser-logos</title>
    <desc>Created with Sketch.</desc>
    <defs>
        <polygon id="path-1" points="0.942982664 0.176690805 476.371788 0.176690805 476.371788 218.969013 0.942982664 218.969013"></polygon>
        <polygon id="path-3" points="0 0.584138688 88.7696836 0.584138688 88.7696836 80.374808 0 80.374808"></polygon>
        <polygon id="path-5" points="0 0.421772657 283.238928 0.421772657 283.238928 198.629282 0 198.629282"></polygon>
        <polygon id="path-7" points="0 0.0277019969 283.238928 0.0277019969 283.238928 136.815369 0 136.815369"></polygon>
        <polygon id="path-9" points="0 0.421772657 246.997247 0.421772657 246.997247 166.310471 0 166.310471"></polygon>
        <polygon id="path-11" points="0 0.0277019969 175.859968 0.0277019969 175.859968 104.496559 0 104.496559"></polygon>
    </defs>
    <g id="Page-1" stroke="none" stroke-width="1" fill="none" fill-rule="evenodd">
        <g id="hcu-dgfk-tsb" transform="translate(10.000000, 10.000000)">
            <g id="Group-21" transform="translate(0.000000, 111.445691)">
                <g id="Group-3" transform="translate(357.840685, 0.944488)">
                    <mask id="mask-2" fill="white">
                        <use xlink:href="#path-1"></use>
                    </mask>
                    <g id="Clip-2"></g>
                    <path d="M395.473485,38.4656998 C394.165862,38.8374751 392.69158,38.9528536 391.089101,38.9528536 C384.02537,38.9528536 381.576781,35.9530116 381.576781,23.9664635 C381.576781,12.1465732 384.089469,8.95443362 392.332625,8.95443362 C395.768341,8.95443362 399.511734,9.6979842 402.409017,10.8645894 L403.370505,2.27529822 C400.191185,0.980494624 395.768341,0.172844854 391.781372,0.172844854 C377.576992,0.172844854 371.43629,7.60835067 371.43629,24.081842 C371.43629,40.183558 376.91036,47.92674 391.358317,47.92674 C396.024738,47.92674 400.998835,46.8883331 404.126876,45.401232 L404.126876,22.107587 L395.473485,22.107587 L395.473485,38.4656998 Z M358.295956,24.0177428 C358.295956,41.4142625 352.898804,47.8626408 339.79693,47.8626408 C326.951453,47.8626408 321.297905,41.0424872 321.297905,24.0177428 C321.297905,6.99299846 326.720696,0.236944042 339.79693,0.236944042 C352.898804,0.236944042 358.295956,6.99299846 358.295956,24.0177428 L358.295956,24.0177428 Z M348.168284,24.0177428 C348.168284,11.7876177 346.065831,9.19801053 339.79693,9.19801053 C333.592129,9.19801053 331.438396,11.8517169 331.438396,24.0177428 C331.438396,36.2478679 333.592129,38.9656735 339.84821,38.9656735 C346.065831,38.9656735 348.168284,36.1837687 348.168284,24.0177428 L348.168284,24.0177428 Z M107.488653,47.8626408 C111.129487,47.8626408 115.129276,46.9396125 117.834262,45.5935295 L116.859954,37.4144731 C114.578023,38.4656998 111.937137,39.1451512 108.924475,39.1451512 C101.360771,39.1451512 98.7198841,35.7607141 98.7198841,23.7100667 C98.7198841,12.4029699 101.232572,9.13391135 108.744997,9.13391135 C111.744839,9.13391135 114.629303,9.76208339 116.718936,10.5569133 L117.718883,2.00608163 C115.360033,0.980494624 111.321785,0.172844854 108.065546,0.172844854 C94.5918964,0.172844854 88.5922124,7.90320693 88.5922124,23.7100667 C88.5922124,40.504054 94.6559956,47.8626408 107.488653,47.8626408 L107.488653,47.8626408 Z M420.523448,47.054991 L430.407543,47.054991 L430.407543,0.980494624 L425.471905,0.980494624 L420.523448,0.980494624 L420.523448,47.054991 Z M250.532401,47.8626408 C237.686924,47.8626408 232.059015,41.0424872 232.059015,24.0177428 C232.059015,6.99299846 237.468987,0.236944042 250.532401,0.236944042 C263.634275,0.236944042 269.044247,6.99299846 269.044247,24.0177428 C269.044247,41.4142625 263.634275,47.8626408 250.532401,47.8626408 L250.532401,47.8626408 Z M258.916575,24.0177428 C258.916575,11.7876177 256.826941,9.19801053 250.532401,9.19801053 C244.34042,9.19801053 242.186687,11.8517169 242.186687,24.0177428 C242.186687,36.2478679 244.34042,38.9528536 250.5965,38.9528536 C256.826941,38.9528536 258.916575,36.1837687 258.916575,24.0177428 L258.916575,24.0177428 Z M75.4646987,38.3375014 L56.4656994,38.3375014 L56.4656994,27.4021799 L71.6443871,27.4021799 L71.6443871,19.3000426 L56.4656994,19.3000426 L56.4656994,9.81336274 L74.5416704,9.81336274 L74.3493728,0.980494624 L46.8380013,0.980494624 L46.8380013,47.054991 L75.2211218,47.054991 L75.4646987,38.3375014 Z M141.948377,27.953433 L156.216856,27.953433 L156.216856,47.054991 L165.857374,47.054991 L165.857374,0.980494624 L156.216856,0.980494624 L156.216856,18.9795466 L141.948377,18.9795466 L141.948377,0.980494624 L132.307859,0.980494624 L132.307859,47.054991 L141.948377,47.054991 L141.948377,27.953433 Z M311.234332,38.0939245 L294.260867,38.0939245 L294.260867,0.967674786 L284.58189,0.967674786 L284.58189,47.054991 L310.977935,47.054991 L311.234332,38.0939245 Z M457.393301,38.3375014 L457.393301,27.4021799 L472.571989,27.4021799 L472.571989,19.3000426 L457.393301,19.3000426 L457.393301,9.81336274 L475.443632,9.81336274 L475.264154,0.980494624 L447.727143,0.980494624 L447.727143,47.054991 L476.135903,47.054991 L476.37948,38.3375014 L457.393301,38.3375014 Z M12.1475207,47.054991 L21.8905973,47.054991 L21.8905973,10.0056603 L33.0694957,10.0056603 L32.9156577,0.980494624 L1.17373974,0.980494624 L0.942982664,10.0056603 L12.1475207,10.0056603 L12.1475207,47.054991 Z M216.944427,47.054991 L216.944427,0.980494624 L208.483334,0.980494624 L208.483334,23.9536436 L208.598712,28.8636414 L208.483334,28.9277406 L191.39449,0.980494624 L183.100055,0.980494624 L183.100055,47.054991 L191.625247,47.054991 L191.625247,22.8511376 L191.573968,17.8770406 L191.689346,17.8129414 L194.266134,22.107587 L210.072994,47.054991 L216.944427,47.054991 Z M187.061385,88.2066697 L155.370747,88.2066697 L155.11435,97.2318354 L166.306068,97.2318354 L166.306068,134.293986 L176.074784,134.293986 L176.074784,97.2318354 L187.266503,97.2318354 L187.061385,88.2066697 Z M233.456377,118.640964 L233.456377,88.2066697 L223.81586,88.2066697 L223.81586,118.512766 C223.81586,123.858638 221.713406,126.06365 216.559831,126.06365 C211.393437,126.06365 209.239704,123.794539 209.239704,118.512766 L209.239704,88.2066697 L199.547907,88.2066697 L199.547907,118.640964 C199.547907,129.691664 205.368113,135.088816 216.559831,135.088816 C227.75155,135.088816 233.456377,129.691664 233.456377,118.640964 L233.456377,118.640964 Z M141.974016,107.513345 L126.923527,107.513345 L126.923527,97.2318354 L144.935399,97.2318354 L144.794381,88.2066697 L117.283009,88.2066697 L117.283009,134.293986 L126.923527,134.293986 L126.923527,116.051357 L141.858638,116.051357 L141.974016,107.513345 Z M275.377246,111.192639 L275.505445,116.102636 L275.377246,116.166736 L258.288403,88.2066697 L249.981148,88.2066697 L249.981148,134.293986 L258.51916,134.293986 L258.51916,110.090133 L258.455061,105.103216 L258.583259,105.051936 L261.172866,109.346582 L276.979726,134.293986 L283.851159,134.293986 L283.851159,88.2066697 L275.377246,88.2066697 L275.377246,111.192639 Z M17.8010691,126.435425 C13.6730814,126.435425 9.92968883,125.26882 6.35295414,123.371484 L5.07097038,131.845397 C8.63488523,133.935031 13.1859276,135.088816 17.9805469,135.088816 C27.9415607,135.088816 33.6976678,129.691664 33.6976678,120.653679 C33.6976678,105.53909 14.5320105,108.244076 14.5320105,100.872669 C14.5320105,98.2830621 16.0062919,96.3216269 21.2367856,96.3216269 C24.3776458,96.3216269 27.6979838,96.9241593 31.1337002,98.0907645 L32.2362063,89.7578701 C29.0440667,88.2707689 24.8135203,87.475939 20.6214334,87.475939 C9.98096818,87.475939 5.2504481,93.4884428 5.2504481,101.295724 C5.2504481,116.359033 24.441745,113.718147 24.441745,121.281851 C24.441745,124.653468 22.390571,126.435425 17.8010691,126.435425 L17.8010691,126.435425 Z M55.388833,134.293986 L65.1447294,134.293986 L65.1447294,97.2318354 L76.3364477,97.2318354 L76.1697898,88.2066697 L44.4406917,88.2066697 L44.2099346,97.2318354 L55.388833,97.2318354 L55.388833,134.293986 Z M99.681372,88.2066697 L94.7457345,88.2066697 L89.7844573,88.2066697 L89.7844573,134.293986 L99.681372,134.293986 L99.681372,88.2066697 Z M323.323439,125.704695 C322.028636,126.07647 320.554354,126.191849 318.951874,126.191849 C311.875324,126.191849 309.426735,123.179187 309.426735,111.192639 C309.426735,99.3855681 311.939423,96.1934286 320.195399,96.1934286 C323.631115,96.1934286 327.374508,96.9241593 330.258971,98.0907645 L331.233279,89.5014733 C328.041139,88.2066697 323.631115,87.4118398 319.631326,87.4118398 C305.439766,87.4118398 299.299063,94.8473456 299.299063,111.320837 C299.299063,127.422553 304.747494,135.152915 319.208271,135.152915 C323.887512,135.152915 328.848789,134.101688 331.976829,132.640227 L331.976829,109.346582 L323.323439,109.346582 L323.323439,125.704695 Z M236.558778,172.881697 L236.558778,202.918577 L236.674157,207.841394 L236.558778,207.905494 L234.03327,203.610848 L215.765002,172.881697 L210.444769,172.881697 L210.444769,218.969013 L215.662443,218.969013 L215.662443,187.996286 L215.598344,183.022189 L215.726542,182.95809 L218.187951,187.265555 L237.417707,218.969013 L241.648254,218.969013 L241.648254,172.881697 L236.558778,172.881697 Z M184.061543,218.969013 L190.009948,218.969013 L190.009948,172.881697 L187.022926,172.881697 L184.061543,172.881697 L184.061543,218.969013 Z M28.6594716,194.572862 C33.51819,195.790747 36.3898337,199.303382 36.3898337,205.879959 C36.3898337,214.174394 32.4797832,218.969013 22.6341479,218.969013 L7.00676585,218.969013 L7.00676585,172.881697 L22.0828949,172.881697 C30.4927084,172.881697 34.7360746,176.62509 34.7360746,184.316992 C34.7360746,189.957721 32.2874856,193.14986 28.6594716,194.444664 L28.6594716,194.572862 Z M12.6731341,192.726806 L22.1469941,192.726806 C26.9416133,192.726806 29.0953461,190.393595 29.0953461,185.342579 C29.0953461,179.996707 26.890334,178.15065 21.8905973,178.15065 L12.6731341,178.15065 L12.6731341,192.726806 Z M22.7110669,213.815439 C27.7364433,213.815439 30.5568075,211.712985 30.5568075,205.444085 C30.5568075,199.790536 27.99284,197.457326 22.4290305,197.457326 L12.6731341,197.457326 L12.6731341,213.815439 L22.7110669,213.815439 Z M116.859954,198.123957 L127.859375,218.969013 L120.975122,218.969013 L111.501262,199.226463 L103.450404,199.226463 L103.450404,218.969013 L97.6173781,218.969013 L97.6173781,172.881697 L111.449983,172.881697 C120.718725,172.881697 125.07747,176.868667 125.07747,185.906652 C125.07747,193.14986 122.193007,197.14965 116.859954,198.123957 L116.859954,198.123957 Z M119.064966,186.137409 C119.064966,180.112086 116.731756,178.099371 111.501262,178.099371 L103.450404,178.099371 L103.450404,194.444664 L111.270505,194.444664 C116.667657,194.444664 119.064966,192.355031 119.064966,186.137409 L119.064966,186.137409 Z M54.1965881,172.881697 L54.1965881,218.969013 L80.5669941,218.969013 L80.733652,213.507763 L60.0424341,213.507763 L60.0424341,197.508605 L76.9133404,197.508605 L76.9133404,192.41913 L60.0424341,192.41913 L60.0424341,178.407047 L79.7593443,178.407047 L79.6311459,172.881697 L54.1965881,172.881697 Z M149.332603,172.881697 L149.332603,213.379564 L168.370062,213.379564 L168.190584,218.969013 L143.448298,218.969013 L143.448298,172.881697 L149.332603,172.881697 Z" id="Fill-1" fill="#000000" mask="url(#mask-2)"></path>
                </g>
                <g id="Group-6" transform="translate(0.000000, 172.284404)">
                    <mask id="mask-4" fill="white">
                        <use xlink:href="#path-3"></use>
                    </mask>
                    <g id="Clip-5"></g>
                    <polygon id="Fill-4" fill="#E40134" mask="url(#mask-4)" points="26.3883537 80.374808 -0.00769190257 1.34050911 1.24865218 0.584138688 88.7696836 15.2115734 88.0774123 15.9294843"></polygon>
                </g>
                <polygon id="Fill-7" fill="#71CBF4" points="61.104474 46.0072758 312.245093 156.680934 283.24662 220.523725 0.00512793504 173.628759"></polygon>
                <g id="Group-11" transform="translate(0.000000, 21.902135)">
                    <mask id="mask-6" fill="white">
                        <use xlink:href="#path-5"></use>
                    </mask>
                    <g id="Clip-10"></g>
                    <polygon id="Fill-9" fill="#63B9E9" mask="url(#mask-6)" points="-0.00256396752 151.721496 246.997247 0.421772657 283.238928 198.629282"></polygon>
                </g>
                <g id="Group-14" transform="translate(0.000000, 83.716048)">
                    <mask id="mask-8" fill="white">
                        <use xlink:href="#path-7"></use>
                    </mask>
                    <g id="Clip-13"></g>
                    <polygon id="Fill-12" fill="#3192D0" mask="url(#mask-8)" points="-0.00256396752 89.9075835 146.733297 0.0277019969 267.996141 53.4607852 283.238928 136.815369"></polygon>
                </g>
                <g id="Group-17" transform="translate(0.000000, 21.902135)">
                    <mask id="mask-10" fill="white">
                        <use xlink:href="#path-9"></use>
                    </mask>
                    <g id="Clip-16"></g>
                    <polygon id="Fill-15" fill="#3A5BA7" mask="url(#mask-10)" points="-0.00256396752 151.721496 246.997247 0.421772657 88.0825403 166.310471"></polygon>
                </g>
                <g id="Group-20" transform="translate(0.000000, 83.716048)">
                    <mask id="mask-12" fill="white">
                        <use xlink:href="#path-11"></use>
                    </mask>
                    <g id="Clip-19"></g>
                    <polygon id="Fill-18" fill="#213A8F" mask="url(#mask-12)" points="-0.00256396752 89.9075835 146.733297 0.0277019969 175.859968 12.8603594 88.0825403 104.496559"></polygon>
                </g>
            </g>
        </g>
    </g>
</svg>