<?xml version="1.0" encoding="UTF-8"?>
<svg width="2656px" height="496px" viewBox="0 0 2656 496" version="1.1" xmlns="http://www.w3.org/2000/svg" xmlns:xlink="http://www.w3.org/1999/xlink">
    <!-- Generator: Sketch 54.1 (76490) - https://sketchapp.com -->
    <title>organiser-logos</title>
    <desc>Created with Sketch.</desc>
    <defs>
        <polygon id="path-1" points="0.942982664 0.176690805 476.371788 0.176690805 476.371788 218.969013 0.942982664 218.969013"></polygon>
        <polygon id="path-3" points="0 0.584138688 88.7696836 0.584138688 88.7696836 80.374808 0 80.374808"></polygon>
        <polygon id="path-5" points="0 0.421772657 283.238928 0.421772657 283.238928 198.629282 0 198.629282"></polygon>
        <polygon id="path-7" points="0 0.0277019969 283.238928 0.0277019969 283.238928 136.815369 0 136.815369"></polygon>
        <polygon id="path-9" points="0 0.421772657 246.997247 0.421772657 246.997247 166.310471 0 166.310471"></polygon>
        <polygon id="path-11" points="0 0.0277019969 175.859968 0.0277019969 175.859968 104.496559 0 104.496559"></polygon>
    </defs>
    <g id="Page-1" stroke="none" stroke-width="1" fill="none" fill-rule="evenodd">
        <g id="hcu-dgfk-tsb" transform="translate(10.000000, 10.000000)">
            <g id="g10" transform="translate(2468.736843, 238.445691) scale(-1, 1) rotate(-180.000000) translate(-2468.736843, -238.445691) translate(2300.810914, 0.341762)">
                <g id="g12" transform="translate(0.000000, 3.007629)">
                    <path d="M13.2973776,305.587596 C13.2973776,390.140055 81.8385762,458.680903 166.39254,458.680903 C250.947005,458.680903 319.487852,390.140055 319.487852,305.587596 C319.487852,221.037141 250.947005,152.496293 166.39254,152.496293 C81.8385762,152.496293 13.2973776,221.037141 13.2973776,305.587596 Z" id="path14" stroke="#2A6B2B" stroke-width="2.50635715"></path>
                    <path d="M166.469234,458.680903 L166.469234,152.496293" id="path16" stroke="#2A6B2B" stroke-width="2.50635715"></path>
                    <polygon id="path18" stroke="#2A6B2B" stroke-width="3.44774479" points="0.193841662 472.191672 332.591589 472.191672 332.591589 0.499311459 0.193841662 0.499311459"></polygon>
                    <path d="M65.3632881,305.587596 C65.3632881,361.385622 110.595014,406.615343 166.39254,406.615343 C222.190566,406.615343 267.422293,361.385622 267.422293,305.587596 C267.422293,249.791574 222.190566,204.561853 166.39254,204.561853 C110.595014,204.561853 65.3632881,249.791574 65.3632881,305.587596 Z" id="path20" stroke="#2A6B2B" stroke-width="6.89498857"></path>
                    <path d="M16.7456238,305.587596 C16.7456238,361.385622 83.7439089,406.615343 166.39254,406.615343 C249.041672,406.615343 316.041611,361.385622 316.041611,305.587596 C316.041611,249.791574 249.041672,204.561853 166.39254,204.561853 C83.7439089,204.561853 16.7456238,249.791574 16.7456238,305.587596 Z" id="path22" stroke="#2A6B2B" stroke-width="6.89498857"></path>
                    <path d="M316.041611,305.587596 L16.7456238,305.587596" id="path24" stroke="#2A6B2B" stroke-width="6.89498857"></path>
                    <path d="M166.469234,406.615343 L166.469234,204.561853" id="path26" stroke="#2A6B2B" stroke-width="6.89498857"></path>
                    <path d="M225.558609,135.270602 L225.558609,114.546537 C225.558609,114.546537 222.039684,117.550155 217.420468,117.444387 C214.6735,117.379723 211.550078,116.130555 211.238788,113.632218 L211.238788,87.8242584 L225.207719,87.8242584 L225.207719,67.5247705 L211.238788,67.5247705 L211.238788,8.94849706 L190.937295,8.94849706 L190.937295,28.8485718 C190.937295,28.8485718 196.224205,35.5060579 197.800704,40.0919396 C199.852408,46.0640874 201.634428,56.7278852 201.448456,59.5199671 L201.448456,81.8190266 L177.309229,81.8190266 L177.309229,87.8242584 L190.937295,87.8242584 L190.937295,113.632218 C190.937295,113.632218 191.56188,124.875235 197.183639,130.185704 C202.805398,135.494169 209.4297,138.521347 213.424332,138.3058 C217.420468,138.090254 222.061238,138.797548 225.558609,135.270602" id="path28" fill="#2A6B2B" fill-rule="nonzero"></path>
                    <polyline id="path30" fill="#2A6B2B" fill-rule="nonzero" points="229.549231 135.807463 249.850724 135.807463 249.850724 96.8822331 290.651211 135.807463 320.206675 135.807463 259.844572 77.8304099 326.141729 8.94849706 297.833428 8.94849706 249.850724 58.5079 249.850724 8.94849706 229.549231 8.94849706 229.549231 135.807463"></polyline>
                    <path d="M83.9333895,43.2444356 C91.2394206,51.9402418 91.5878042,61.3330658 91.5878042,77.2975583 C91.5878042,93.2600457 88.1084793,99.9114163 79.0640388,107.176343 C70.0175933,114.442774 59.285372,114.881386 56.1619497,115.194681 L29.4164121,115.194681 L29.4164121,31.7230627 L61.7837088,31.7230627 C71.4487233,32.9037574 76.6278597,34.5466244 83.9333895,43.2444356 L83.9333895,43.2444356 Z M60.5345404,11.5370627 L9.11687413,11.5370627 L9.11687413,135.66811 L57.8301811,135.66811 C62.408293,134.732236 80.4540645,134.311168 93.3267148,122.135786 C106.200869,109.960405 111.378,99.8703121 111.726885,77.645942 C112.075269,55.420068 110.688752,42.5395477 96.4576562,26.8924102 C82.8897424,11.9737203 63.0995463,11.6251862 60.5345404,11.5370627 L60.5345404,11.5370627 Z" id="path32" fill="#2A6B2B"></path>
                    <path d="M99.3595165,122.468631 C96.5223202,125.317858 91.4860461,129.126518 91.4860461,129.126518 C98.9579981,133.355745 113.637732,140.226672 131.55618,140.226672 C151.387982,140.226672 172.510056,135.378375 189.688127,112.382548 L173.561222,99.6943658 C173.561222,99.6943658 165.754421,110.197506 156.696446,114.570097 C147.639976,118.942186 146.516125,119.700109 131.209802,119.700109 C119.375285,119.700109 109.592471,115.908993 106.16177,114.30342 C106.16177,114.30342 102.282931,119.531681 99.3595165,122.468631" id="path34" fill="#2A6B2B" fill-rule="nonzero"></path>
                    <path d="M73.1776084,39.5044996 C81.3272793,44.9558264 85.0577413,50.4660025 86.6242145,61.2277988 C85.9094015,64.0725142 84.6306581,70.365977 84.6306581,76.2539112 C84.6306581,81.3588594 85.6527505,86.8217155 86.2597902,89.2478692 C84.7539708,95.1924471 80.3543115,102.229797 71.2667617,107.142758 C69.0616687,102.457374 64.4915771,90.0624353 64.4915771,76.2539112 C64.4915771,59.7590735 70.5108444,44.630802 73.1776084,39.5044996" id="path36" fill="#2A6B2B" fill-rule="nonzero"></path>
                    <path d="M106.809914,32.8763379 C111.515349,30.7400694 122.545325,26.8924102 133.99236,26.8924102 C148.257041,26.8924102 161.381831,31.7230627 167.628174,38.2826505 C173.874517,44.8402834 175.434975,52.9603291 176.060061,57.0216302 L143.069884,57.0216302 L143.069884,77.5191203 L197.183639,77.5191203 L197.10945,57.6462145 C197.10945,57.6462145 196.674848,37.7716043 180.12086,21.8444565 C163.567374,5.91540389 131.207797,6.40690053 131.207797,6.40690053 C114.832262,6.13862006 98.0747578,14.1393632 92.5357085,17.427002 C96.1072675,20.1742201 101.452826,24.9813129 106.809914,32.8763379" id="path38" fill="#2A6B2B" fill-rule="nonzero"></path>
                </g>
            </g>
        </g>
    </g>
</svg>